<mxfile host="app.diagrams.net" agent="Mozilla/5.0 (Macintosh; Intel Mac OS X 10_15_7) AppleWebKit/537.36 (KHTML, like Gecko) Chrome/131.0.0.0 Safari/537.36" version="24.8.8">
  <diagram name="Page-1" id="tyUgXR4dSxfluN2MRNgp">
    <mxGraphModel dx="4353" dy="2611" grid="1" gridSize="10" guides="1" tooltips="1" connect="1" arrows="1" fold="1" page="1" pageScale="1" pageWidth="850" pageHeight="1100" math="0" shadow="0">
      <root>
        <mxCell id="0" />
        <mxCell id="1" parent="0" />
        <mxCell id="XZvLHF4rB5YBOy9yUA8D-165" value="" style="rounded=1;whiteSpace=wrap;html=1;" vertex="1" parent="1">
          <mxGeometry x="-1500" y="-550" width="3880" height="1680" as="geometry" />
        </mxCell>
        <mxCell id="XZvLHF4rB5YBOy9yUA8D-1" value="&lt;font color=&quot;#000000&quot;&gt;&lt;b&gt;AWS Cloud&lt;/b&gt;&lt;/font&gt;" style="sketch=0;outlineConnect=0;gradientColor=none;html=1;whiteSpace=wrap;fontSize=12;fontStyle=0;shape=mxgraph.aws4.group;grIcon=mxgraph.aws4.group_aws_cloud;strokeColor=#AAB7B8;fillColor=none;verticalAlign=top;align=left;spacingLeft=30;fontColor=#AAB7B8;dashed=0;" vertex="1" parent="1">
          <mxGeometry x="120" y="-340" width="730" height="480" as="geometry" />
        </mxCell>
        <mxCell id="XZvLHF4rB5YBOy9yUA8D-2" value="" style="rounded=1;whiteSpace=wrap;html=1;hachureGap=4;fontFamily=Architects Daughter;fontSource=https%3A%2F%2Ffonts.googleapis.com%2Fcss%3Ffamily%3DArchitects%2BDaughter;fontSize=20;arcSize=2;fillColor=#5E5E5E;strokeColor=#666666;fontColor=#333333;dashed=1;fillStyle=cross-hatch;" vertex="1" parent="1">
          <mxGeometry x="100" y="-360" width="790" height="510" as="geometry" />
        </mxCell>
        <mxCell id="XZvLHF4rB5YBOy9yUA8D-3" value="" style="verticalLabelPosition=bottom;verticalAlign=top;html=1;shape=mxgraph.basic.rect;fillColor2=none;strokeWidth=1;size=20;indent=5;hachureGap=4;fontFamily=Architects Daughter;fontSource=https%3A%2F%2Ffonts.googleapis.com%2Fcss%3Ffamily%3DArchitects%2BDaughter;fontSize=20;rounded=1;fillColor=#f5f5f5;strokeColor=#666666;fontColor=#333333;" vertex="1" parent="1">
          <mxGeometry x="-1330" y="187.42" width="1000" height="500" as="geometry" />
        </mxCell>
        <mxCell id="XZvLHF4rB5YBOy9yUA8D-4" value="NodeJS&lt;br&gt;" style="whiteSpace=wrap;html=1;fontSize=20;fontFamily=Architects Daughter;verticalAlign=top;hachureGap=4;fontSource=https%3A%2F%2Ffonts.googleapis.com%2Fcss%3Ffamily%3DArchitects%2BDaughter;fillColor=#e1d5e7;strokeColor=#9673a6;fillStyle=auto;rounded=1;glass=0;" vertex="1" parent="1">
          <mxGeometry x="530" y="367.5" width="120" height="60" as="geometry" />
        </mxCell>
        <mxCell id="XZvLHF4rB5YBOy9yUA8D-5" style="edgeStyle=orthogonalEdgeStyle;rounded=1;hachureGap=4;orthogonalLoop=1;jettySize=auto;html=1;exitX=1;exitY=0.5;exitDx=0;exitDy=0;exitPerimeter=0;entryX=0;entryY=0.5;entryDx=0;entryDy=0;fontFamily=Architects Daughter;fontSource=https%3A%2F%2Ffonts.googleapis.com%2Fcss%3Ffamily%3DArchitects%2BDaughter;fontSize=16;" edge="1" parent="1" source="XZvLHF4rB5YBOy9yUA8D-7" target="XZvLHF4rB5YBOy9yUA8D-4">
          <mxGeometry relative="1" as="geometry" />
        </mxCell>
        <mxCell id="XZvLHF4rB5YBOy9yUA8D-6" value="" style="edgeStyle=orthogonalEdgeStyle;rounded=0;orthogonalLoop=1;jettySize=auto;html=1;" edge="1" parent="1" source="XZvLHF4rB5YBOy9yUA8D-7" target="XZvLHF4rB5YBOy9yUA8D-9">
          <mxGeometry relative="1" as="geometry" />
        </mxCell>
        <mxCell id="XZvLHF4rB5YBOy9yUA8D-7" value="" style="verticalLabelPosition=bottom;html=1;verticalAlign=top;align=center;points=[[0,0.5,0],[0.125,0.25,0],[0.25,0,0],[0.5,0,0],[0.75,0,0],[0.875,0.25,0],[1,0.5,0],[0.875,0.75,0],[0.75,1,0],[0.5,1,0],[0.125,0.75,0]];pointerEvents=1;shape=mxgraph.cisco_safe.compositeIcon;bgIcon=mxgraph.cisco_safe.design.blank_device;resIcon=mxgraph.cisco_safe.design.wide_area_application_engine_2;hachureGap=4;fontFamily=Architects Daughter;fontSource=https%3A%2F%2Ffonts.googleapis.com%2Fcss%3Ffamily%3DArchitects%2BDaughter;fontSize=20;shadow=0;rounded=1;" vertex="1" parent="1">
          <mxGeometry x="386" y="364.26" width="77.78" height="70" as="geometry" />
        </mxCell>
        <mxCell id="XZvLHF4rB5YBOy9yUA8D-8" value="" style="edgeStyle=orthogonalEdgeStyle;rounded=1;hachureGap=4;orthogonalLoop=1;jettySize=auto;html=1;fontFamily=Architects Daughter;fontSource=https%3A%2F%2Ffonts.googleapis.com%2Fcss%3Ffamily%3DArchitects%2BDaughter;fontSize=16;entryX=0.413;entryY=1.011;entryDx=0;entryDy=0;entryPerimeter=0;" edge="1" parent="1" source="XZvLHF4rB5YBOy9yUA8D-9" target="XZvLHF4rB5YBOy9yUA8D-2">
          <mxGeometry relative="1" as="geometry">
            <Array as="points">
              <mxPoint x="440" y="183" />
              <mxPoint x="426" y="183" />
            </Array>
          </mxGeometry>
        </mxCell>
        <mxCell id="XZvLHF4rB5YBOy9yUA8D-9" value="&lt;b&gt;Cloud Services&lt;/b&gt;" style="rounded=1;whiteSpace=wrap;html=1;hachureGap=4;fontFamily=Architects Daughter;fontSource=https%3A%2F%2Ffonts.googleapis.com%2Fcss%3Ffamily%3DArchitects%2BDaughter;fontSize=20;" vertex="1" parent="1">
          <mxGeometry x="265" y="215" width="320" height="78" as="geometry" />
        </mxCell>
        <mxCell id="XZvLHF4rB5YBOy9yUA8D-167" style="edgeStyle=orthogonalEdgeStyle;rounded=0;orthogonalLoop=1;jettySize=auto;html=1;" edge="1" parent="1" source="XZvLHF4rB5YBOy9yUA8D-10" target="XZvLHF4rB5YBOy9yUA8D-166">
          <mxGeometry relative="1" as="geometry">
            <Array as="points">
              <mxPoint x="520" y="644" />
              <mxPoint x="520" y="644" />
            </Array>
          </mxGeometry>
        </mxCell>
        <mxCell id="XZvLHF4rB5YBOy9yUA8D-170" value="Steam&lt;div&gt;&amp;nbsp;OpenID&lt;/div&gt;" style="edgeLabel;html=1;align=center;verticalAlign=middle;resizable=0;points=[];" vertex="1" connectable="0" parent="XZvLHF4rB5YBOy9yUA8D-167">
          <mxGeometry x="0.1865" y="2" relative="1" as="geometry">
            <mxPoint x="-1" as="offset" />
          </mxGeometry>
        </mxCell>
        <mxCell id="XZvLHF4rB5YBOy9yUA8D-10" value="authentication" style="rhombus;whiteSpace=wrap;html=1;hachureGap=4;fontFamily=Architects Daughter;fontSource=https%3A%2F%2Ffonts.googleapis.com%2Fcss%3Ffamily%3DArchitects%2BDaughter;fontSize=20;rounded=1;" vertex="1" parent="1">
          <mxGeometry x="600" y="599" width="150" height="91" as="geometry" />
        </mxCell>
        <mxCell id="XZvLHF4rB5YBOy9yUA8D-11" style="edgeStyle=orthogonalEdgeStyle;rounded=1;hachureGap=4;orthogonalLoop=1;jettySize=auto;html=1;exitX=1;exitY=0.5;exitDx=0;exitDy=0;entryX=0.072;entryY=1.006;entryDx=0;entryDy=0;fontFamily=Architects Daughter;fontSource=https%3A%2F%2Ffonts.googleapis.com%2Fcss%3Ffamily%3DArchitects%2BDaughter;fontSize=16;startArrow=classic;startFill=1;entryPerimeter=0;dashed=1;" edge="1" parent="1" source="XZvLHF4rB5YBOy9yUA8D-10" target="XZvLHF4rB5YBOy9yUA8D-109">
          <mxGeometry relative="1" as="geometry">
            <mxPoint x="712.4799999999996" y="470.32000000000016" as="targetPoint" />
          </mxGeometry>
        </mxCell>
        <mxCell id="XZvLHF4rB5YBOy9yUA8D-12" value="Payment Processor" style="whiteSpace=wrap;html=1;fontSize=20;fontFamily=Architects Daughter;verticalAlign=top;hachureGap=4;fontSource=https%3A%2F%2Ffonts.googleapis.com%2Fcss%3Ffamily%3DArchitects%2BDaughter;fillColor=#ffe6cc;strokeColor=#d79b00;fillStyle=hatch;rounded=1;" vertex="1" parent="1">
          <mxGeometry x="1260" y="170" width="164" height="66" as="geometry" />
        </mxCell>
        <mxCell id="XZvLHF4rB5YBOy9yUA8D-13" value="" style="group;rounded=1;" vertex="1" connectable="0" parent="1">
          <mxGeometry x="960.8700000000001" y="540" width="729.1299999999999" height="267.37" as="geometry" />
        </mxCell>
        <mxCell id="XZvLHF4rB5YBOy9yUA8D-14" value="" style="rounded=1;whiteSpace=wrap;html=1;hachureGap=4;fontFamily=Architects Daughter;fontSource=https%3A%2F%2Ffonts.googleapis.com%2Fcss%3Ffamily%3DArchitects%2BDaughter;fontSize=20;fillColor=#f5f5f5;strokeColor=#666666;fontColor=#333333;" vertex="1" parent="XZvLHF4rB5YBOy9yUA8D-13">
          <mxGeometry y="28.870000000000005" width="685" height="238.5" as="geometry" />
        </mxCell>
        <mxCell id="XZvLHF4rB5YBOy9yUA8D-15" style="edgeStyle=orthogonalEdgeStyle;rounded=1;hachureGap=4;orthogonalLoop=1;jettySize=auto;html=1;fontFamily=Architects Daughter;fontSource=https%3A%2F%2Ffonts.googleapis.com%2Fcss%3Ffamily%3DArchitects%2BDaughter;fontSize=16;" edge="1" parent="XZvLHF4rB5YBOy9yUA8D-13" target="XZvLHF4rB5YBOy9yUA8D-18">
          <mxGeometry relative="1" as="geometry">
            <mxPoint x="58.569999999999936" y="73" as="sourcePoint" />
            <Array as="points">
              <mxPoint x="236.56999999999994" y="76" />
              <mxPoint x="236.56999999999994" y="187" />
            </Array>
          </mxGeometry>
        </mxCell>
        <mxCell id="XZvLHF4rB5YBOy9yUA8D-16" value="Visit cache" style="edgeLabel;html=1;align=center;verticalAlign=middle;resizable=0;points=[];fontSize=20;fontFamily=Architects Daughter;rounded=1;" connectable="0" vertex="1" parent="XZvLHF4rB5YBOy9yUA8D-15">
          <mxGeometry x="0.3793" y="2" relative="1" as="geometry">
            <mxPoint x="-91" y="-30" as="offset" />
          </mxGeometry>
        </mxCell>
        <mxCell id="XZvLHF4rB5YBOy9yUA8D-17" value="&lt;font color=&quot;#ffffff&quot;&gt;Query&lt;/font&gt;" style="edgeLabel;html=1;align=center;verticalAlign=middle;resizable=0;points=[];fontSize=20;fontFamily=Architects Daughter;fontColor=default;labelBackgroundColor=#FF050D;rounded=1;" connectable="0" vertex="1" parent="XZvLHF4rB5YBOy9yUA8D-15">
          <mxGeometry x="-0.8066" relative="1" as="geometry">
            <mxPoint x="-43" y="-1" as="offset" />
          </mxGeometry>
        </mxCell>
        <mxCell id="XZvLHF4rB5YBOy9yUA8D-18" value="&lt;font style=&quot;font-size: 18px;&quot;&gt;&lt;b&gt;Redis Cache&lt;/b&gt;&lt;/font&gt;" style="image;aspect=fixed;html=1;points=[];align=center;fontSize=12;image=img/lib/mscae/Cache_Redis_Product.svg;hachureGap=4;fontFamily=Architects Daughter;fontSource=https%3A%2F%2Ffonts.googleapis.com%2Fcss%3Ffamily%3DArchitects%2BDaughter;rounded=1;" vertex="1" parent="XZvLHF4rB5YBOy9yUA8D-13">
          <mxGeometry x="270" y="159.37" width="65.47" height="55" as="geometry" />
        </mxCell>
        <mxCell id="XZvLHF4rB5YBOy9yUA8D-19" value="Database + Caching + Queue flow" style="text;html=1;strokeColor=#6c8ebf;fillColor=#dae8fc;align=center;verticalAlign=middle;whiteSpace=wrap;rounded=1;fontSize=20;fontFamily=Architects Daughter;fontStyle=1;" vertex="1" parent="XZvLHF4rB5YBOy9yUA8D-13">
          <mxGeometry x="169" width="355" height="20" as="geometry" />
        </mxCell>
        <mxCell id="XZvLHF4rB5YBOy9yUA8D-20" style="edgeStyle=orthogonalEdgeStyle;rounded=1;hachureGap=4;orthogonalLoop=1;jettySize=auto;html=1;fontFamily=Architects Daughter;fontSource=https%3A%2F%2Ffonts.googleapis.com%2Fcss%3Ffamily%3DArchitects%2BDaughter;fontSize=16;" edge="1" parent="XZvLHF4rB5YBOy9yUA8D-13" target="XZvLHF4rB5YBOy9yUA8D-18">
          <mxGeometry relative="1" as="geometry">
            <mxPoint x="565.0000000000002" y="72.375" as="sourcePoint" />
          </mxGeometry>
        </mxCell>
        <mxCell id="XZvLHF4rB5YBOy9yUA8D-21" value="Store data" style="edgeLabel;html=1;align=center;verticalAlign=middle;resizable=0;points=[];fontSize=20;fontFamily=Architects Daughter;rounded=1;" connectable="0" vertex="1" parent="XZvLHF4rB5YBOy9yUA8D-20">
          <mxGeometry x="0.1804" relative="1" as="geometry">
            <mxPoint x="84" y="13" as="offset" />
          </mxGeometry>
        </mxCell>
        <mxCell id="XZvLHF4rB5YBOy9yUA8D-22" value="" style="endArrow=none;html=1;rounded=1;hachureGap=4;fontFamily=Architects Daughter;fontSource=https%3A%2F%2Ffonts.googleapis.com%2Fcss%3Ffamily%3DArchitects%2BDaughter;fontSize=16;fillColor=#f8cecc;strokeColor=#b85450;" edge="1" parent="XZvLHF4rB5YBOy9yUA8D-13">
          <mxGeometry width="50" height="50" relative="1" as="geometry">
            <mxPoint x="169" y="17" as="sourcePoint" />
            <mxPoint x="526" y="34.36576239476153" as="targetPoint" />
          </mxGeometry>
        </mxCell>
        <mxCell id="XZvLHF4rB5YBOy9yUA8D-23" style="edgeStyle=orthogonalEdgeStyle;rounded=1;hachureGap=4;orthogonalLoop=1;jettySize=auto;html=1;fontFamily=Architects Daughter;fontSource=https%3A%2F%2Ffonts.googleapis.com%2Fcss%3Ffamily%3DArchitects%2BDaughter;fontSize=16;" edge="1" parent="XZvLHF4rB5YBOy9yUA8D-13" source="XZvLHF4rB5YBOy9yUA8D-18">
          <mxGeometry relative="1" as="geometry">
            <mxPoint x="588.9449999999999" y="104.36999999999989" as="targetPoint" />
          </mxGeometry>
        </mxCell>
        <mxCell id="XZvLHF4rB5YBOy9yUA8D-24" value="Fetch data" style="edgeLabel;html=1;align=center;verticalAlign=middle;resizable=0;points=[];fontSize=20;fontFamily=Architects Daughter;rounded=1;" connectable="0" vertex="1" parent="XZvLHF4rB5YBOy9yUA8D-23">
          <mxGeometry x="-0.2228" y="1" relative="1" as="geometry">
            <mxPoint x="-13" y="-12" as="offset" />
          </mxGeometry>
        </mxCell>
        <mxCell id="XZvLHF4rB5YBOy9yUA8D-25" value="" style="shape=image;verticalLabelPosition=bottom;labelBackgroundColor=default;verticalAlign=top;aspect=fixed;imageAspect=0;image=data:image/png,iVBORw0KGgoAAAANSUhEUgAAAUwAAACACAYAAABgM1AkAAAMPWlDQ1BJQ0MgUHJvZmlsZQAASImVVwdYU8kWnluSkJDQAqFICb0JAtKREkILICBVsBGSAKHEGAgidlRUcO0iCjZ0VUTRtQCyqIjYXRR7XyworKyLBRsqb1JA133leyff3Plz5sx/yp259w4A6i1csTgH1QAgV5QviQ0NZI5PTmGSugECf1RgBpy5vDwxKyYmEkAZ6v8u725CWyjXHGRc/xz/r6LJF+TxAEBiIE7j5/FyIT4MAF7FE0vyASDK9ObT88UyDBvQlsAAIV4iwxkKXCXDaQp8QG4TH8uGuA0AFSqXK8kAQO0K1DMLeBmQQ60PYicRXygCQJ0JsV9u7lQ+xKkQ20AbMcQyfs+073gy/saZNszJ5WYMY0UuclEJEuaJc7gz/s9y/G/JzZEO+bCCjZopCYuV5Qzrdjt7aoQMUyHuFaVFRUOsBfEHIV9uDzFKyZSGJSjsUUNeHhvWDDAgduJzgyIgNoQ4RJQTFanUp6ULQzgQwxWCFgrzOfEQ60G8RJAXHKe02SqZGqv0hdanS9gspf4cVyL3K/P1UJqdwFLyv84UcJT8mFpRZnwSxBSILQqEiVEQq0HsmJcdF6G0GVOUyY4aspFIY2XxW0AcKxCFBir4sYJ0SUis0r40N28oX2xrppATpcQH8zPjwxT1wdp4XHn8MBfsikDEShjiEeSNjxzKhS8IClbkjnULRAlxSp4P4vzAWMVcnCLOiVHa42aCnFCZ3gxi17yCOOVcPDEfLkgFP54uzo+JV8SJF2Vxw2MU8eArQSRggyDABFLY0sBUkAWE7b0NvfCfYiQEcIEEZAABcFBqhmYkyUdE8BoHisCfEAlA3vC8QPmoABRA/ZdhreLqANLlowXyGdngGcS5IALkwP9S+SzRsLdE8BRqhP/wzoWNB+PNgU02/u/1Q9pvGhbURCo10iGPTPUhS2IwMYgYRgwh2uIGuB/ug0fCawBsLrgn7jWUxzd7wjNCB+Ex4Qahk3BnirBY8kOUY0En5A9R1iLt+1rgVpDTDQ/EfSE7ZMYZuAFwwF2hHxbuDz27QS1bGbesKswfuP+WwXd3Q2lHdiKjZF1yANnmx5lqdmpuwyyyWn9fH0WsacP1Zg+P/Oif/V31+bCP+NESW4Idws5iJ7HzWDPWAJjYCawRu4Qdk+Hh1fVUvrqGvMXK48mGPMJ/+Bu6s7JK5jnVOvU4fVaM5QsKZc9owJ4qniERZmTmM1nwjSBgckQ8x5FMFycXVwBk7xfF4+sNQ/7eQBgXvumK3wLgyx8cHGz+pouEe/3wIrj9n33TWR+HjwldAM6V8aSSAoUOl10I8CmhDneaPjAG5sAG5uMC3IEPCADBIBxEg3iQDCbD6DPhOpeA6WAWmA9KQBlYCdaBjWAL2A52g33gIGgAzeAkOAMugivgBrgHV08XeAH6wDswgCAICaEhdEQfMUEsEXvEBfFE/JBgJBKJRZKRVCQDESFSZBayAClDViMbkW1IDfILchQ5iZxHOpA7yCOkB3mNfEIxlIpqo0aoFToK9URZaAQaj05CM9BpaBG6EF2OVqDV6F60Hj2JXkRvoJ3oC7QfA5gqxsBMMQfME2Nj0VgKlo5JsDlYKVaOVWN1WBO8z9ewTqwX+4gTcTrOxB3gCg7DE3AePg2fgy/DN+K78Xq8Db+GP8L78K8EGsGQYE/wJnAI4wkZhOmEEkI5YSfhCOE03EtdhHdEIpFBtCZ6wL2YTMwiziQuI24i7ie2EDuIT4j9JBJJn2RP8iVFk7ikfFIJaQNpL+kE6Sqpi/RBRVXFRMVFJUQlRUWkUqxSrrJH5bjKVZXnKgNkDbIl2ZscTeaTZ5BXkHeQm8iXyV3kAYomxZriS4mnZFHmUyoodZTTlPuUN6qqqmaqXqrjVIWq81QrVA+onlN9pPqRqkW1o7KpE6lS6nLqLmoL9Q71DY1Gs6IF0FJo+bTltBraKdpD2gc1upqjGkeNrzZXrVKtXu2q2kt1srqlOkt9snqRern6IfXL6r0aZA0rDbYGV2OORqXGUY1bGv2adE1nzWjNXM1lmns0z2t2a5G0rLSCtfhaC7W2a53SekLH6OZ0Np1HX0DfQT9N79Imaltrc7SztMu092m3a/fpaOm46iTqFOpU6hzT6WRgDCsGh5HDWME4yLjJ+KRrpMvSFegu1a3Tvar7Xm+EXoCeQK9Ub7/eDb1P+kz9YP1s/VX6DfoPDHADO4NxBtMNNhucNugdoT3CZwRvROmIgyPuGqKGdoaxhjMNtxteMuw3MjYKNRIbbTA6ZdRrzDAOMM4yXmt83LjHhG7iZyI0WWtywuQPpg6TxcxhVjDbmH2mhqZhplLTbabtpgNm1mYJZsVm+80emFPMPc3Tzdeat5r3WZhYjLWYZVFrcdeSbOlpmWm53vKs5Xsra6skq8VWDVbd1nrWHOsi61rr+zY0G3+baTbVNtdtibaettm2m2yv2KF2bnaZdpV2l+1Re3d7of0m+46RhJFeI0Ujq0fecqA6sBwKHGodHjkyHCMdix0bHF+OshiVMmrVqLOjvjq5OeU47XC656zlHO5c7Nzk/NrFzoXnUulyfTRtdMjouaMbR79ytXcVuG52ve1Gdxvrttit1e2Lu4e7xL3OvcfDwiPVo8rjlqe2Z4znMs9zXgSvQK+5Xs1eH73dvfO9D3r/5ePgk+2zx6d7jPUYwZgdY574mvlyfbf5dvox/VL9tvp1+pv6c/2r/R8HmAfwA3YGPGfZsrJYe1kvA50CJYFHAt+zvdmz2S1BWFBoUGlQe7BWcELwxuCHIWYhGSG1IX2hbqEzQ1vCCGERYavCbnGMODxODacv3CN8dnhbBDUiLmJjxONIu0hJZNNYdGz42DVj70dZRomiGqJBNCd6TfSDGOuYaTG/jiOOixlXOe5ZrHPsrNizcfS4KXF74t7FB8aviL+XYJMgTWhNVE+cmFiT+D4pKGl1Uuf4UeNnj7+YbJAsTG5MIaUkpuxM6Z8QPGHdhK6JbhNLJt6cZD2pcNL5yQaTcyYfm6I+hTvlUCohNSl1T+pnbjS3mtufxkmrSuvjsXnreS/4Afy1/B6Br2C14Hm6b/rq9O4M34w1GT2Z/pnlmb1CtnCj8FVWWNaWrPfZ0dm7sgdzknL256rkpuYeFWmJskVtU42nFk7tENuLS8Sd07ynrZvWJ4mQ7MxD8iblNeZrww/5S1Ib6SLpowK/gsqCD9MTpx8q1CwUFV6aYTdj6YznRSFFP8/EZ/Jmts4ynTV/1qPZrNnb5iBz0ua0zjWfu3Bu17zQebvnU+Znz/+t2Kl4dfHbBUkLmhYaLZy38Mmi0EW1JWolkpJbi30Wb1mCLxEuaV86eumGpV9L+aUXypzKyss+L+Mtu/CT808VPw0uT1/evsJ9xeaVxJWilTdX+a/avVpzddHqJ2vGrqlfy1xbuvbtuinrzpe7lm9ZT1kvXd9ZEVnRuMFiw8oNnzdmbrxRGVi5v8qwamnV+038TVc3B2yu22K0pWzLp63Crbe3hW6rr7aqLt9O3F6w/dmOxB1nf/b8uWanwc6ynV92iXZ17o7d3VbjUVOzx3DPilq0Vlrbs3fi3iv7gvY11jnUbdvP2F92AByQHvjjl9Rfbh6MONh6yPNQ3WHLw1VH6EdK65H6GfV9DZkNnY3JjR1Hw4+2Nvk0HfnV8dddzabNlcd0jq04Tjm+8PjgiaIT/S3ilt6TGSeftE5pvXdq/KnrbePa2k9HnD53JuTMqbOssyfO+Z5rPu99/ugFzwsNF90v1l9yu3TkN7ffjrS7t9df9rjceMXrSlPHmI7jV/2vnrwWdO3Mdc71izeibnTcTLh5+9bEW523+be77+TceXW34O7AvXn3CfdLH2g8KH9o+LD6d9vf93e6dx57FPTo0uO4x/ee8J68eJr39HPXwme0Z+XPTZ7XdLt0N/eE9Fz5Y8IfXS/ELwZ6S/7U/LPqpc3Lw38F/HWpb3xf1yvJq8HXy97ov9n11vVta39M/8N3ue8G3pd+0P+w+6Pnx7Ofkj49H5j+mfS54ovtl6avEV/vD+YODoq5Eq78UwCDDU1PB+D1LgBoyQDQ4fmMMkFx/pMLojizyhH4T1hxRpSLOwB1sJN9xrNbADgAm9U8yB0AgOwTPj4AoKNHD7ehs5r8XCkTIjwHbHWSoasmtcvAD6I4c34X9489kLG6gh/7fwGI+nsFHyrmlwAAAIplWElmTU0AKgAAAAgABAEaAAUAAAABAAAAPgEbAAUAAAABAAAARgEoAAMAAAABAAIAAIdpAAQAAAABAAAATgAAAAAAAACQAAAAAQAAAJAAAAABAAOShgAHAAAAEgAAAHigAgAEAAAAAQAAAUygAwAEAAAAAQAAAIAAAAAAQVNDSUkAAABTY3JlZW5zaG905c3bjQAAAAlwSFlzAAAWJQAAFiUBSVIk8AAAAdZpVFh0WE1MOmNvbS5hZG9iZS54bXAAAAAAADx4OnhtcG1ldGEgeG1sbnM6eD0iYWRvYmU6bnM6bWV0YS8iIHg6eG1wdGs9IlhNUCBDb3JlIDYuMC4wIj4KICAgPHJkZjpSREYgeG1sbnM6cmRmPSJodHRwOi8vd3d3LnczLm9yZy8xOTk5LzAyLzIyLXJkZi1zeW50YXgtbnMjIj4KICAgICAgPHJkZjpEZXNjcmlwdGlvbiByZGY6YWJvdXQ9IiIKICAgICAgICAgICAgeG1sbnM6ZXhpZj0iaHR0cDovL25zLmFkb2JlLmNvbS9leGlmLzEuMC8iPgogICAgICAgICA8ZXhpZjpQaXhlbFlEaW1lbnNpb24+MTI4PC9leGlmOlBpeGVsWURpbWVuc2lvbj4KICAgICAgICAgPGV4aWY6UGl4ZWxYRGltZW5zaW9uPjMzMjwvZXhpZjpQaXhlbFhEaW1lbnNpb24+CiAgICAgICAgIDxleGlmOlVzZXJDb21tZW50PlNjcmVlbnNob3Q8L2V4aWY6VXNlckNvbW1lbnQ+CiAgICAgIDwvcmRmOkRlc2NyaXB0aW9uPgogICA8L3JkZjpSREY+CjwveDp4bXBtZXRhPgru+Dz7AAAAHGlET1QAAAACAAAAAAAAAEAAAAAoAAAAQAAAAEAAABAB3e+raAAAD81JREFUeAHsnQd4FEUbx1/9lN4xIiJFuvTQDCAEgvQAUgSpkWYAqUqLVIUgTUBKPgUkIEV6FxLA0ExAIAQBqdJBBDSAgIW2zrs46+xmd2+u4HOXe+d5kp2deaf9ZvZ/sztzt08pzAE5IkAEiAARcEjgKRJMh4zIgAgQASKgEiDBpIFABIgAEZAkQIIpCYrMiAARIAIkmDQGiAARIAKSBEgwJUGRGREgAkSABJPGABEgAkRAkgAJpiQoMiMCRIAIkGDSGCACRIAISBIgwZQERWZEgAgQARJMGgNEgAgQAUkCJJiSoMiMCBABIkCCSWOACBABIiBJgARTEhSZEQEiQARIMGkMEAEiQAQkCZBgSoIiMyJABIgACSaNASJABIiAJAESTElQZEYEiAARIMGkMUAEiAARkCRAgikJisyIABEgAiSYNAaIABEgApIESDAlQZEZESACRIAEk8YAESACRECSAAmmJCgyIwJEgAiQYNIYIAJEgAhIEiDBlARFZkSACBABEkwaA0SACBABSQKpTjBnL1wKCfuTIHrqOEkEZEYEiAARkCOQqgRzT+JBqNm8ndry8cMGQd9uYXIUyIoIEAEiIEEg1Qjm3d9/Z2LZHg4fO6E1O/aruRBc9VXtnDxEgAgQAXcIpBrB7Nx/CCxetV7HovQrxWDLsnmQLUsWXTidEAEiQARcIZAqBHPKrGiIiJxk2v62zRvD3Cn0PNMUDgUSASLgFAGfF8ytuxIgtH0320Z/PHQA9H+nk60NRRIBIkAEHBHwacG8cesW1HurMxw6etxROyF2STQEV6ns0I4MiAARIAJWBHxaMPuPiIT/z19s1TZdeNVK5VXRfPaZZ3ThdEIEiAARkCXgs4K5fP0m6NBrgGw7VbuBPbvC6MH9nUpDxkSACBABTsAnBfPyz1eh/lud4NTZ87wd0sfV0VHQICRY2p4MiQARIAKcgE8KZvjAYTB/2WreBqeOgaVKQMySuZA1c2an0pExESACRMDnBHP1pi3Qpns/t3puWL+eMKz/u27lQYmJABHwPwI+J5i13+wI8XsT3eqp3M8HQMKG5ZA7V4Bb+VBiIkAE/IuATwnmrAVLoM+w0R7pIZplegQjZUIE/IqAzwjmzVu/QY032sDJM+c80kE0y/QIRsqECPgVAZ8RzDFTZsKYqVEe7RyaZXoUJ2VGBFI9AZ8RzOpN28C+g4c82iElixWBxM1rPJonZUYEiEDqJeATgolCiYL5JNyyWdOgSb3aTyJrypMIEIFURsAnBPNJ3I7zfmzTrDH9OjuHQUciQARsCfiEYDpzO/6/p5+GapUrwM49+2wbziPTp0sLSVvXQ4G8eXiQ9BGF3M55cq/nf1mWXZsozj0CjvqR554ubVrIz8Zk/pdeZH95IFfAczxK+ojXwM7de6Xt0RDLef65nFC8SCEoVuhlp9L6g7HXC+aFyz9B0ap1pPsiS6aMqmBuitspnWb+tAnQumkjaXtu6GjmGzXuQ+jcpiU3d+sYUKIy3L571zSPGkGVYPPSeaZxFOhdBNLlL+lShV5gQhbWujmE1qkFlcqVkcoDBbNu67elbM2MKgeWhbrB1WBQr3cgzbPPmpn4XZjXC+bm7d9Ck7Bw6Y55gW1Kr8Z+mWjl17HSaSJ6d4eRA3pL23NDPos9dvJH6Dt8DA/WjsULF4SD3+h/BV6LdMKz8Zvt0Lxzym8m4Sp/jX9+sg5Fk5z3E8Axs3Hrdpg6e55pZXk//v7HH3D91xvsLxnQLzoUzOHsm2p1a74mBqfw8/E5ddY8wDFkdHleyAWFCuTTgs9f+gnOX7qsnXMPljfo3W7QuG4ID/Lbo9cLJg6sIWMmSncQDoCqFcvDghXyq98Na9eEVXPtb68dVcBq5rAvZhXgqzLccXVbd2KPGFLeWuGskl9g7uRPaf97AvgB+/mXX2kFZ8uSGX4+vEc7Fz0LV66FhSvWwvaE78RgmDF2JHRt10oXZnVSrFpdnRi2Zc/up0UOh0wZM+qSXP3lV0g8eBjmLF6eQmQXRU2GFo3q6ez97cTrBTOsz0BYunajdL+UYeJUhc0wxcHoKDFuYj+7b7sjM8v4h48eQcaXS6vxoa/Xgg1bt2m27Vs0hTmTx2rnznp+vnYdClSqqSZDceSzBgwgwVSx+OQ/4+McmT3BeNfUrud7uvbKpMMEeGvu7NhZvHo9dO43RFfe/tjVUKp4UV2YP514vWDit3v2Jsnvv6xSIRCqVAyEyZ/Pdaofb544AOnYApAr7v79B5C5cFk1KQ5g4wb7P8//4Eq2apohkRMBb6nQkWCqGFLFP1cEExtutsXu64WzoXb1qrZcXBFMzBAfBYm38/7+m7JeL5ilazZiv3t5znYwiJE4cKpUKJdCtEQbM//Zvdtd/jGOP//6C7IVLa9mi4KJb688c+GiVsyno4dBeEfX9pFmLRIIf927BzhzzpY1i9OzBK0S5PEqAq4KJjbi1xs3IU+5arr27Fr7le1ikKuCiR/W+KHNXYUypSB+/VJ+6ndHrxfMvIHV4XpysnTH4CZ0nGVGjDV/i6RVRklb1sIrRQtbRduG40P5HMUrqjYomGnSpIERE6ZqaQrmzwtHd8Zo57KeZes2QsfeA1XzyaM+gDUxW0gwZeF5uZ07golNm790FYQPGq61ErcAbVk2X90SpAUKHlcF0/hmA9xydCFRfgeKUIVU4fV6wcxUsAw8ePhQGnabZqEQxASzr5O/ahS3YgHge39ccbfv3IWAko9fsIaCibPJvOWr67LauWYx4DYNZxx/HJEhfXq4lLQL3ni7h8cEE1dff2F/15NvQECO7PBczhwQwP6epMMyL1+5Cg8fPYSc2bNBjmzZIEvmTB4p8srV63Dl2jV1+wsu/KVPl84j+YqZiMxyMeF4PiAnZM+aVTSR9rsrmFhQk47hsHnHt1qZE0cMht5dOmrnosdVwdy6Mx5CO7yjZYVjMfn4fu3c3zxeL5gvswWPK2zhQ9Z1bduKCWY56Pr+B7JJVLvD276GIgULOJWGG9/67TbkKh2knqJg4ob1t/sOhiVrNnATaN2kIcyf/u+tjRZh4fmRvX6jVM2Gamy39q1heuQIlx7ci9nv3p8E+APM0+bMF4N1/j5dw6BZgzrqc2BdhIOTL5evVldyy5cpCeOGPp4VY5J5S1bCtoQ9sGVHPCTfvJUiFywr+tPxgBu1nXWL2Orx2thvYB37MzrjlhljPJ5jPznaZRC7fZea/xds1djM4YJhl7ZvQr1a1W1viY1pPSGYk6LmwLDxU7Ss7W6XXRVMfLMBvuGAO7syuE1qPnq9YIa06AAJ+w9I90FfdsGjYLbp4dzLzu6c/h6ecfGNkigEL5Z9/NCdC+YO9g2Leuy9Q6JLPp4IGdLLzXx6D/0IZi98/Kwofv0yqMCEyNVBj3Xo9v5Qp7ZadWj5Bsz+JFKsvql/T+JBGDVpmrblJeS1KrBx0RzVtmXXXrBhy787Bkwz+CfQmdVX/AHpCTNnA4qZjMNN1xkzZAB8LbPo7HYZXLx8Bbq8F6Gb0YtpzfyyzDCtJwQT9/8G1mmqq4rVnYyrY8dYT1r0URRFR9zLTrr0j4BFq9ZJ1yqiT3d10adJWHfpNHlfzA2ndm+Vtjca4q3tS//cgnPBRJvKDVro3plud8tkzDNDgdLwSHkEwUGVIXZptBrt6qA37sHDOuLz2hLs6294xAvv6KnT6lFc4cev5J2I32ysmnaO21SwTqLLmT077N20Ej757AuImrcI+AysfkgNKJg/H9xgHy64n3DlhhiIi/933yHOCE9/FydmZerfuisBQtt308XVqhYEbZs3VmeLDx48hNhtu1QxFQU1X57csGLODLj40xX4hT2GuMF+X7V86ZKmM8yEfQcgpGUHXRlGZoePnYDDx05CTNwOWMbeYMqdI2bczihE4rjhNjLHwNebwDHWd9xZCZorYwfHRXCzdvDbnTs8e3Dmg01LlJo8TC+92o2ePENJm6+E9N/EqNnKru/2S9tj3nVahbnFgO2V1MrD+nLHBEMLx3IKBYXwKNsju/3T0rENy5ot1lNkwWaxWpyVp0qjN3VpZsxdYGWqhmO8WAamt3JYPv5Vrt9cl4b3Gdubquz//ohVcoXb8fIiIidZ2mIEEymlcFBtXVnsMYNlmh6DR+hsX23YQmE7GiztMeLevfu6NFg3R8z6DP1Il8aOGS/c2HZx3HAbmWPH3gN0ZYf1HmiazNmxc+7iJaVZp566vFdsiDHN258Cwdsbuy1+j67T+MVldYyKXqQcOPSDU2lcHaycHXvtr1aemBf7lXglY8EyWhzWOe7b3TyZ5TGoYUs1DYqD6Jwd9B+MnaQrm626i9lZ+tFO5Iv52Dm8uER77p8ZvdAumXLqzDklS+FyWtqSwQ1s7XsOGanZYhn4weLIDR8/VZdmwsxZtknYYqHOXpaZUQAdMTPai+PGtoKGyJETP9XVt1aL9gaLx6dmY4d/4IlH9ixaGT9jllKgYrCWb9XQVgp7Tmyar78Fer1gsls4reP4hWh3ZNstlJOnzzqVZlPcDrf6nT3v0sozDvxeER9qcVjvt8L72ZaVdOSoZj/048k6W7NBrzMQTthtpZYPlsu+ISLEOvaivciZfaffNpFoi/53h4yyteeRxlkMW0DjUbpj4qEjuvpkL1ZBYavWOhuzk9t37ihsL6uWFj+MrBy2UWyHM8zY3kilRI36uvTYB1bOU4I5b+lKXZnGD1levnHsiO208xvHM8/PX49eL5jYMcHN2uoGhV0Hs31jCtu6Im2PeV25es2t/j938bJWnnGAsUURLY7X2+5CZyuSmj1bKdfVyzjocWZg5Yyzy3ibi9csD7Tn9cUj2w9qZqaFibboP3L8pBZn52EvtdOVsy/pkKk53g6KZVRr3MrUziyQbb/R0mYuVFa5f/++mZnaRrEMZ5nNnLtQKwfzsZtlekowcQyIdUa/mTOOHWMaR+f9R0QqMdt2mmXtV2E+IZjGwWXXuexrXArOUuxsxDi8mNx1Z85f0MozCibmHcJuk8Qyx03/zLJIbmc2EzUOejvBZN+Q0sps1K6rZXl2Ec069dDywHrZPY/k9cYj3s7JOmPfWrVp+pwvdXUJHzhctggFL3axfmyRJEVabJtog213xeUq9aqWD/aBlTO222zcWKUVw/EWWqy37AzTijPmfejocWXRynVKp36DdXljOSPYIw5/dj4hmHuTvk/RceIgEf04ENhKqbQ9zgrcdfgsjtfBbODjYwIej8d85WuYFikuEq3fHJfCRlYwT/x4RleeM7eWYqH9ho/R5bNq42YxWucX24e32bLOKBxWF7Jx9obPM2XdgFEf69pxkD32MDpsm9gGbLsrzrgAhn1h5oztNhs3ZumMYcZ8nHmGaczL7Nw4s0dG3QfJf1iZ5enLYX8DAAD//5bfTW4AAA8ASURBVO2dC5hP1RbAly/dFCFv8oguCeM1CEnkFUKDkUYRJkLkUdJck5hJF0PkVc2EvMpMmRCKUSh0RZrkFbleedOLSN3O3et09+7s/T/PKd/d//+s/X06++y99t5r/dY+63/OPvtMYIRJatKxu3Fd+Wqe/7Z9vtO0qHCVOp6y2N+Bfx/+0wT2HTgoxkqaMiOkvwsXfzJKRTUUMjjuu2s/DJGLbn2/KXNH2y4hdVjQqlsvqY8NW7bayq1Ys06SG/TMc7ZyXoXTUl+X+klduMSxidU3dgycGqKsta2TTcvey5LkmnXu4dRlSHls/GCp7YnTZ0Jk0DarHmh7TpI6FvrCLql2B2Fm7S9+eIKkd8/BT1qrRd7v3BENLJntX3wpjYGcPvh4i0Ui92QhXExdkPFOiNOsE5zn93x1wDSpTK3GnvIJ41P+EvN3szH5+E4T/5nnJwkZlI3pPUAae9On20V9yuw0qY6f+J30k2e/JvrCsZ6dOJV3Eei4+oONUj//nP6KY3tuPx6dGNg1VgOHU8A8cuy4UaJ6A6EP+tdvKh/dVLRr1D7WthnaZrUBbc9Jwjll7Qd9YZdUu4Mws/anzomnkyZaq0VelXPiLBoomYGjxkh2dekzSJHIHadhEzDRHe0fipecZp2YPH+YXViY/t6whatsVLP2xtnz35qyf/Y/X+79SozlNPG3Z4f+Sh86+o0Yus+wUWYfxas1MM6cOy/KrRm/k37em28LfZDL08n2F5G1b7t8+vJVUj/T0+bbiZllnD8enRjYNVYDh9uFPDhhnKTPG5nv2nUplak2pC1Kl+r5CdpmtQHb5SQ9zu7mrf2gL+ySancQZry/c99+J42F42auWsOrpaPfuSM1spwsenu5NFaQHyxLN2GfDauAuWrdeslp1onJ8zwI1rrnPldZp4mcE49m79ojxnKb+J169RdyqG/ihBfN4S7+dEmUDxrl/Pjsd9Jv/vQz0R+O89jIxJyYZUyamSr1gxeNU+L88ejGQG2vBg63gHnp0mWjY0+Z4e59+9UuxfmMOQsk/e99sI+oUzNqQEDbc5I6PNxPGhN9YZdUu4Mw4/0tzlwhjdX4vm68KuTod+6ENPxfwaGjx6Sx0M9793/tJB6x5WEVMNELvQY/FeI468V66fJl01n46GUtt+a79P1rHyc+27lLjOU28dWLslRUI1NX61rhxk8+Ncvs/uN30uOPhtXe7o8NtevOs0x9DFu1boNjG+t4bgzUDtTA4RYwse3xk6eNZjE9JPsGJ4w1cJ3t/Hffm/Ur2fqw2m+xavXVoaVztM1qA9qek1SzeXupH/4Drval6heEGe/rkSEjpbFeSnNed/U7d3jf6vHwsW+ksZAVzvvclsIuYG79LDvEcXyi52NO5KllbE9HOadffd426HFb9k4xltvEv/zzzyFLBenLVhn8Imsb19d16CCT3vqD0aZ7b9d+nSpRH862dM3GxtHjJ5xEhRzKuzFQO1ADh1fAxPZ4V1m7RQdpTK6n3REDqldC29BG3t7LF3b9HTtx0ihU+Y+XjU7rpdhWtTsIM2w/Z3GG0BV1rtK4lXHqzFmssk1B5o5dB4uXyo/kOCbam9tS2AVMdBC+FOET23osWrWe8F+nXo/Zyji9UBENc5D5lyWIe038ZydMlfRq/cAj4nzum2+5jh5k0s+cs1D0i4wyVqx27VutRHkr26fGTVBFpHOrrBcDa0M1cPgJmHEDhgndqjW9V+StOmAeec11WEO06sDzaKO1j6DMEsZPltqjD5ySancQZthn4Sp1pbHmZ2Q6DWWWB5k7dh2pTxuVGjQ3rly5Yica0WVhGTDRIw8NGiFNGJzo5ereJZzVY+DwkHpsczXSlm07xFheE9+63mm9OKve2ZpNwF9c1Qsy6XG7lLX/5gG24aASKG9tn71rr6tuVlkvBtaO1MDhFTCt8r2HPm12dfrsOSNz9VojZVaaMWvuQmMpe/GRk/U1tNFqRxBmO/fsCwliblvWrHbgmEGYqfPAzx202saLs9VHK7PWG/krRklsprw8xypi5rHPcZOnG2NTXjLmp2cav/32W4hMuBeEbcBE8NXvbis5sWqTNsIf/Z4cLdWh7NVKH2/dJsbyM/G7PTpEyPMLNJHdeXqloJNevSj9bqNSt8b4sYnbEfTiV3V0u5Azlv9x11uvTYy5ZunFLGj9iOdekHzjh9lJ9iiM6+JBGKh2+2H89aEjIXtxY3oP9GVi0LnDO/1k++dGmVp3SrY1bNc15O5yIwuWBw8fNea8kWGgD3+8cNHAx/hIS2EdMNEZ1kcT3PjN0/Ax44WTC1SqyYuvyhEnC79Y/Ez8JctWCnneDu9QvFJOJv39jwyQxsILGy88u4Tl6oWP7f0kbgce/TDgfaqBwylgfrF7n3FLvbuFLes+2sy7+MuP5eo0EeOgPW7M1m7cZOAWNav9fpipdhe93fmlFL7Ewhc8pWs2ksbxs62Kw1HnDm5490r4mF/tLnnJA/fC4hOVmvgLp77DnzHw8f0ce/HIy1TZcD7Pg8pDmCd2twFsLyTcUbcWbMhcbFrDNmvDxJmpULpEcdj90Xtwfb58V83K5BdnQvLUWWb/7Vo0gxfHJUCFsjc7jsceVaBuq06w98BBUya2Q1tYMCPFUR4r2Ntz6Nr3cfjhwgUh93DX+2F8wggoXrSIKLPLWPXD+hvz54foWjWgQZ1a0LJpY8jauBm27sgGtlcUfrx4UXQxeuhAGD1skDh3yqj9o9yuDavh1lvKOzUxy9mbVxjyjyR4f/1HQm5a0mjo3/NBcc4zr8x/A55ITOanvo4FCxSAIjcVhqI3FYLaNapB37hYqBtV3Vfbzn0GAdvGJmRVZquy1sOW7TuArV8LGcz4YcY+roA6zP92qWnD+mYx22oG7CUOsOUGuPLLL5Io2pAyZhQ0rl9XKnc6YV8bQeyjQ0KqixQuBDWqVgkpZ3uZAX2jpobRtWFYv97Q6d6WahVMmpUGTw7oC0NGJ0Hea66BCYkjge3+gKcGxofIhnNBRARMdED3/k/AO+9lwaJZUyD/9debF1fBAvlh5aI0KFGs6FXxEXthYwYyu869LpykKTPh+Wm/B9mM1OnQofU9dt2YZW7joABeZGuWzDNlnf6zaOlyGDd5hu2FoLYpW7oUjB35BPTo3FGtks4xiKNuTslNLy+b0B4ePLD/tRs2QYee/ZyG8l2OQXPmC8/5kh8zaRpMf20B/HTpkqc8/kA+O+JxT2b5KvgL2HYD3tOkEfTqFgMPdGpvVx1S5uWfkAY2BTeXKgnN72xozk+7QMmbsPVaYE8HULnSLVD+5tKwjf345smTB7q0b8NFIuIYMQETvcFe9MDbK9+HG1jArMfuoF6emASVKpS7ao7yChZud2fsc0rzLjO6Zg3YtGKJq45u4/CGXgGTyyGfpezfVwcPwWl2B3OK3cEUL1IEihW9ybxTjWNBMq5zB/jbtdfyJo5HvCDZcoRjPVY4McC7UrfUtFEDKWCiLFvKALwwj586Da8tzjCbd+vYDqqwi9QuHTtxCo58cxzYd89SdZCgyb66MnkhN8yfPfctnDl/HkqyH+ESxYuZY3dmQcFvYPCymyuaN29eKFTwRijM/hUqWBAqV6xgBiNe7+foxz92/ZRkduFNRsXyZaFmtap2IrZlbHM7888RyJv3Gsh/ww1Qv3aUrVxYF4bzeoKq++zXF4s1nqmvzlWr6TwCCFi3twxNTPZlEa4Bqut/QdZZfQ1CQrmCQETdYa5Y8wFbqxls/oC9mpIMPWNjwvrHjJSXCbAXCsC+ljIL8Y4Ol1/8JrwjZX+1SYh3bN0C0lNfEueUIQJ+CERUwGRf3AD7M3Cm3V7rgn7gkIw+BPDlyt0xcUKhieylwpD4XuLcK7OfLUFENf9j7Q8fdU/u/MSrGdUTAYlARAVM9qkWsL9SZBqYlTEfmjSIloylk/AlMDV1HoxKniQM2PnhykBret//8COUjGoo2t9e+VbYkfX73aoopAwR8CAQUQHz11//A+Wj7wL2Rxhg+5p3oPptlT3Mp+pwIaC+VT+evRlwW4zfpG6twS1ZqZOf99uc5IiASSCiAiZaxPdkHtz6IZQpWYLcHCEE8O4S7zJ5+nj5m2wnhP+3sOpe0VcnsTVutkWHEhEIQiDiAibftjFiQDzbrH5dEBYkqzGB15cshf4jE4WGvbt3hdkTxopzt8w81pb9TVAhEvSFkWhImVxPIOICZq73aIQCwK9j4tg+2z37vxYW4scBfeO6QemSxUWZNXPi1Bm2XzNdfIWFdfh1Ez6K33ZrRaso5YmALwIUMH1hIiEdCNgFTfz0FTeil2FfpGCe/c1Rc1M+yuKXJ+x/eCZUj2nbit2VjoPChQqKMsoQgSAEKGAGoUWy/3cCGAhTF6XDwreWSd/VuymG3/fHs6DarmUzNzGqIwKeBChgeiIiAR0J4Gd4GDT5H4rgR/7JYsVyZc1PK5s2qh/o8z4dbSWd9CFAAVMfX5AmRIAIaE6AAqbmDiL1iAAR0IcABUx9fEGaEAEioDkBCpiaO4jUIwJEQB8CFDD18QVpQgSIgOYEKGBq7iBSjwgQAX0IUMDUxxekCREgApoToICpuYNIPSJABPQhQAFTH1+QJkSACGhOgAKm5g4i9YgAEdCHAAVMfXxBmhABIqA5AQqYmjuI1CMCREAfAhQw9fEFaUIEiIDmBChgau4gUo8IEAF9CFDA1McXpAkRIAKaE6CAqbmDSD0iQAT0IUABUx9fkCZEgAhoToACpuYOIvWIABHQhwAFTH18QZoQASKgOQEKmJo7iNQjAkRAHwIUMPXxBWlCBIiA5gQoYGruIFKPCBABfQhQwNTHF6QJESACmhOggKm5g0g9IkAE9CFAAVMfX5AmRIAIaE6AAqbmDiL1iAAR0IcABUx9fEGaEAEioDkBCpiaO4jUIwJEQB8CFDD18QVpQgSIgOYEKGBq7iBSjwgQAX0IUMDUxxekCREgApoToICpuYNIPSJABPQhQAFTH1+QJkSACGhOgAKm5g4i9YgAEdCHAAVMfXxBmhABIqA5AQqYmjuI1CMCREAfAhQw9fEFaUIEiIDmBChgau4gUo8IEAF9CFDA1McXpAkRIAKaE6CAqbmDSD0iQAT0IfBfZiiTd2ZEaBoAAAAASUVORK5CYII=;" vertex="1" parent="XZvLHF4rB5YBOy9yUA8D-13">
          <mxGeometry x="567.5699999999999" y="61" width="101.15" height="39" as="geometry" />
        </mxCell>
        <mxCell id="XZvLHF4rB5YBOy9yUA8D-26" value="" style="group;rounded=1;" connectable="0" vertex="1" parent="1">
          <mxGeometry x="-599.74" y="769" width="829.74" height="259.51" as="geometry" />
        </mxCell>
        <mxCell id="XZvLHF4rB5YBOy9yUA8D-27" value="" style="shape=image;verticalLabelPosition=bottom;labelBackgroundColor=default;verticalAlign=top;aspect=fixed;imageAspect=0;image=data:image/svg+xml,PHN2ZyB4bWxucz0iaHR0cDovL3d3dy53My5vcmcvMjAwMC9zdmciIHdpZHRoPSIyMTk0IiB2aWV3Qm94PSIxNzUuNyA3OCA0OTAuNiA0MzYuOSIgaGVpZ2h0PSIyNTAwIj48ZyBmaWxsPSIjNjFkYWZiIj48cGF0aCBkPSJtNjY2LjMgMjk2LjVjMC0zMi41LTQwLjctNjMuMy0xMDMuMS04Mi40IDE0LjQtNjMuNiA4LTExNC4yLTIwLjItMTMwLjQtNi41LTMuOC0xNC4xLTUuNi0yMi40LTUuNnYyMi4zYzQuNiAwIDguMy45IDExLjQgMi42IDEzLjYgNy44IDE5LjUgMzcuNSAxNC45IDc1LjctMS4xIDkuNC0yLjkgMTkuMy01LjEgMjkuNC0xOS42LTQuOC00MS04LjUtNjMuNS0xMC45LTEzLjUtMTguNS0yNy41LTM1LjMtNDEuNi01MCAzMi42LTMwLjMgNjMuMi00Ni45IDg0LTQ2Ljl2LTIyLjNjLTI3LjUgMC02My41IDE5LjYtOTkuOSA1My42LTM2LjQtMzMuOC03Mi40LTUzLjItOTkuOS01My4ydjIyLjNjMjAuNyAwIDUxLjQgMTYuNSA4NCA0Ni42LTE0IDE0LjctMjggMzEuNC00MS4zIDQ5LjktMjIuNiAyLjQtNDQgNi4xLTYzLjYgMTEtMi4zLTEwLTQtMTkuNy01LjItMjktNC43LTM4LjIgMS4xLTY3LjkgMTQuNi03NS44IDMtMS44IDYuOS0yLjYgMTEuNS0yLjZ2LTIyLjNjLTguNCAwLTE2IDEuOC0yMi42IDUuNi0yOC4xIDE2LjItMzQuNCA2Ni43LTE5LjkgMTMwLjEtNjIuMiAxOS4yLTEwMi43IDQ5LjktMTAyLjcgODIuMyAwIDMyLjUgNDAuNyA2My4zIDEwMy4xIDgyLjQtMTQuNCA2My42LTggMTE0LjIgMjAuMiAxMzAuNCA2LjUgMy44IDE0LjEgNS42IDIyLjUgNS42IDI3LjUgMCA2My41LTE5LjYgOTkuOS01My42IDM2LjQgMzMuOCA3Mi40IDUzLjIgOTkuOSA1My4yIDguNCAwIDE2LTEuOCAyMi42LTUuNiAyOC4xLTE2LjIgMzQuNC02Ni43IDE5LjktMTMwLjEgNjItMTkuMSAxMDIuNS00OS45IDEwMi41LTgyLjN6bS0xMzAuMi02Ni43Yy0zLjcgMTIuOS04LjMgMjYuMi0xMy41IDM5LjUtNC4xLTgtOC40LTE2LTEzLjEtMjQtNC42LTgtOS41LTE1LjgtMTQuNC0yMy40IDE0LjIgMi4xIDI3LjkgNC43IDQxIDcuOXptLTQ1LjggMTA2LjVjLTcuOCAxMy41LTE1LjggMjYuMy0yNC4xIDM4LjItMTQuOSAxLjMtMzAgMi00NS4yIDItMTUuMSAwLTMwLjItLjctNDUtMS45LTguMy0xMS45LTE2LjQtMjQuNi0yNC4yLTM4LTcuNi0xMy4xLTE0LjUtMjYuNC0yMC44LTM5LjggNi4yLTEzLjQgMTMuMi0yNi44IDIwLjctMzkuOSA3LjgtMTMuNSAxNS44LTI2LjMgMjQuMS0zOC4yIDE0LjktMS4zIDMwLTIgNDUuMi0yIDE1LjEgMCAzMC4yLjcgNDUgMS45IDguMyAxMS45IDE2LjQgMjQuNiAyNC4yIDM4IDcuNiAxMy4xIDE0LjUgMjYuNCAyMC44IDM5LjgtNi4zIDEzLjQtMTMuMiAyNi44LTIwLjcgMzkuOXptMzIuMy0xM2M1LjQgMTMuNCAxMCAyNi44IDEzLjggMzkuOC0xMy4xIDMuMi0yNi45IDUuOS00MS4yIDggNC45LTcuNyA5LjgtMTUuNiAxNC40LTIzLjcgNC42LTggOC45LTE2LjEgMTMtMjQuMXptLTEwMS40IDEwNi43Yy05LjMtOS42LTE4LjYtMjAuMy0yNy44LTMyIDkgLjQgMTguMi43IDI3LjUuNyA5LjQgMCAxOC43LS4yIDI3LjgtLjctOSAxMS43LTE4LjMgMjIuNC0yNy41IDMyem0tNzQuNC01OC45Yy0xNC4yLTIuMS0yNy45LTQuNy00MS03LjkgMy43LTEyLjkgOC4zLTI2LjIgMTMuNS0zOS41IDQuMSA4IDguNCAxNiAxMy4xIDI0czkuNSAxNS44IDE0LjQgMjMuNHptNzMuOS0yMDguMWM5LjMgOS42IDE4LjYgMjAuMyAyNy44IDMyLTktLjQtMTguMi0uNy0yNy41LS43LTkuNCAwLTE4LjcuMi0yNy44LjcgOS0xMS43IDE4LjMtMjIuNCAyNy41LTMyem0tNzQgNTguOWMtNC45IDcuNy05LjggMTUuNi0xNC40IDIzLjctNC42IDgtOC45IDE2LTEzIDI0LTUuNC0xMy40LTEwLTI2LjgtMTMuOC0zOS44IDEzLjEtMy4xIDI2LjktNS44IDQxLjItNy45em0tOTAuNSAxMjUuMmMtMzUuNC0xNS4xLTU4LjMtMzQuOS01OC4zLTUwLjZzMjIuOS0zNS42IDU4LjMtNTAuNmM4LjYtMy43IDE4LTcgMjcuNy0xMC4xIDUuNyAxOS42IDEzLjIgNDAgMjIuNSA2MC45LTkuMiAyMC44LTE2LjYgNDEuMS0yMi4yIDYwLjYtOS45LTMuMS0xOS4zLTYuNS0yOC0xMC4yem01My44IDE0Mi45Yy0xMy42LTcuOC0xOS41LTM3LjUtMTQuOS03NS43IDEuMS05LjQgMi45LTE5LjMgNS4xLTI5LjQgMTkuNiA0LjggNDEgOC41IDYzLjUgMTAuOSAxMy41IDE4LjUgMjcuNSAzNS4zIDQxLjYgNTAtMzIuNiAzMC4zLTYzLjIgNDYuOS04NCA0Ni45LTQuNS0uMS04LjMtMS0xMS4zLTIuN3ptMjM3LjItNzYuMmM0LjcgMzguMi0xLjEgNjcuOS0xNC42IDc1LjgtMyAxLjgtNi45IDIuNi0xMS41IDIuNi0yMC43IDAtNTEuNC0xNi41LTg0LTQ2LjYgMTQtMTQuNyAyOC0zMS40IDQxLjMtNDkuOSAyMi42LTIuNCA0NC02LjEgNjMuNi0xMSAyLjMgMTAuMSA0LjEgMTkuOCA1LjIgMjkuMXptMzguNS02Ni43Yy04LjYgMy43LTE4IDctMjcuNyAxMC4xLTUuNy0xOS42LTEzLjItNDAtMjIuNS02MC45IDkuMi0yMC44IDE2LjYtNDEuMSAyMi4yLTYwLjYgOS45IDMuMSAxOS4zIDYuNSAyOC4xIDEwLjIgMzUuNCAxNS4xIDU4LjMgMzQuOSA1OC4zIDUwLjYtLjEgMTUuNy0yMyAzNS42LTU4LjQgNTAuNnoiLz48Y2lyY2xlIHI9IjQ1LjciIGN5PSIyOTYuNSIgY3g9IjQyMC45Ii8+PC9nPjwvc3ZnPg==;fontSize=19;rounded=1;" vertex="1" parent="XZvLHF4rB5YBOy9yUA8D-26">
          <mxGeometry x="-529" y="-209.91000000000003" width="84.24" height="96" as="geometry" />
        </mxCell>
        <mxCell id="XZvLHF4rB5YBOy9yUA8D-28" value="ReactJS" style="text;html=1;strokeColor=none;fillColor=none;align=center;verticalAlign=middle;whiteSpace=wrap;rounded=1;fontSize=20;fontFamily=Architects Daughter;" vertex="1" parent="XZvLHF4rB5YBOy9yUA8D-26">
          <mxGeometry x="-516.88" y="-127.91000000000003" width="60" height="30" as="geometry" />
        </mxCell>
        <mxCell id="XZvLHF4rB5YBOy9yUA8D-29" value="&lt;h1&gt;&lt;br&gt;&lt;/h1&gt;&lt;div style=&quot;border-color: var(--border-color);&quot;&gt;&lt;span style=&quot;background-color: initial;&quot;&gt;Server-side Authentication:&lt;/span&gt;&lt;br&gt;&lt;/div&gt;&lt;div style=&quot;border-color: var(--border-color);&quot;&gt;The adapter authenticates the web server&lt;br style=&quot;border-color: var(--border-color);&quot;&gt;by checking its TrustStore for a trusted CA certificate&quot;&lt;br style=&quot;border-color: var(--border-color);&quot;&gt;&amp;nbsp;that validates the web server&#39;s certificate.&lt;/div&gt;&lt;div style=&quot;border-color: var(--border-color);&quot;&gt;&lt;br style=&quot;border-color: var(--border-color);&quot;&gt;&lt;/div&gt;&lt;div style=&quot;border-color: var(--border-color);&quot;&gt;Dual Authentication:&lt;br style=&quot;border-color: var(--border-color);&quot;&gt;&amp;nbsp;Both the adapter and web server authenticate&lt;br style=&quot;border-color: var(--border-color);&quot;&gt;&amp;nbsp;each other by exchanging certificates.&lt;br style=&quot;border-color: var(--border-color);&quot;&gt;&amp;nbsp;The web server verifies the adapter&#39;s&lt;/div&gt;&lt;div style=&quot;border-color: var(--border-color);&quot;&gt;&amp;nbsp;certificate,and the adapter verifies t&lt;/div&gt;&lt;div style=&quot;border-color: var(--border-color);&quot;&gt;he web server&#39;scertificate. This&amp;nbsp;&lt;/div&gt;&lt;div style=&quot;border-color: var(--border-color);&quot;&gt;two-way authentication&lt;br style=&quot;border-color: var(--border-color);&quot;&gt;&amp;nbsp;enhances security.&lt;/div&gt;" style="text;html=1;strokeColor=none;fillColor=none;spacing=5;spacingTop=-20;whiteSpace=wrap;overflow=hidden;rounded=0;align=left;" vertex="1" parent="XZvLHF4rB5YBOy9yUA8D-26">
          <mxGeometry x="529.74" y="-29" width="300" height="288.51" as="geometry" />
        </mxCell>
        <mxCell id="XZvLHF4rB5YBOy9yUA8D-30" value="Website" style="whiteSpace=wrap;html=1;fontSize=20;fontFamily=Architects Daughter;fontStyle=1;startSize=23;hachureGap=4;fontSource=https%3A%2F%2Ffonts.googleapis.com%2Fcss%3Ffamily%3DArchitects%2BDaughter;rounded=1;" vertex="1" parent="XZvLHF4rB5YBOy9yUA8D-26">
          <mxGeometry x="249.74" y="85.25999999999999" width="120" height="60" as="geometry" />
        </mxCell>
        <mxCell id="XZvLHF4rB5YBOy9yUA8D-31" value="Admin Portal" style="whiteSpace=wrap;html=1;fontSize=20;fontFamily=Architects Daughter;fontStyle=1;startSize=23;hachureGap=4;fontSource=https%3A%2F%2Ffonts.googleapis.com%2Fcss%3Ffamily%3DArchitects%2BDaughter;rounded=1;" vertex="1" parent="XZvLHF4rB5YBOy9yUA8D-26">
          <mxGeometry x="119.74000000000001" width="140.26" height="60" as="geometry" />
        </mxCell>
        <mxCell id="XZvLHF4rB5YBOy9yUA8D-32" style="edgeStyle=orthogonalEdgeStyle;rounded=1;hachureGap=4;orthogonalLoop=1;jettySize=auto;html=1;entryX=0;entryY=0.5;entryDx=0;entryDy=0;fontFamily=Architects Daughter;fontSource=https%3A%2F%2Ffonts.googleapis.com%2Fcss%3Ffamily%3DArchitects%2BDaughter;fontSize=16;" edge="1" parent="1" source="XZvLHF4rB5YBOy9yUA8D-42" target="XZvLHF4rB5YBOy9yUA8D-44">
          <mxGeometry relative="1" as="geometry">
            <mxPoint x="-582.76" y="466.17" as="sourcePoint" />
            <Array as="points">
              <mxPoint x="-710" y="235.42" />
              <mxPoint x="-710" y="340.42" />
            </Array>
          </mxGeometry>
        </mxCell>
        <mxCell id="XZvLHF4rB5YBOy9yUA8D-33" style="edgeStyle=orthogonalEdgeStyle;rounded=0;orthogonalLoop=1;jettySize=auto;html=1;entryX=0.25;entryY=1;entryDx=0;entryDy=0;" edge="1" parent="1" source="XZvLHF4rB5YBOy9yUA8D-34" target="XZvLHF4rB5YBOy9yUA8D-30">
          <mxGeometry relative="1" as="geometry" />
        </mxCell>
        <mxCell id="XZvLHF4rB5YBOy9yUA8D-34" value="Customer" style="verticalLabelPosition=bottom;html=1;fillColor=#A153A0;verticalAlign=top;align=center;pointerEvents=1;shape=mxgraph.cisco_safe.design.actor_2;hachureGap=4;fontFamily=Architects Daughter;fontSource=https%3A%2F%2Ffonts.googleapis.com%2Fcss%3Ffamily%3DArchitects%2BDaughter;fontSize=20;rounded=1;" vertex="1" parent="1">
          <mxGeometry x="-550" y="871.05" width="49" height="128.95" as="geometry" />
        </mxCell>
        <mxCell id="XZvLHF4rB5YBOy9yUA8D-35" style="edgeStyle=orthogonalEdgeStyle;rounded=1;hachureGap=4;orthogonalLoop=1;jettySize=auto;html=1;fontFamily=Architects Daughter;fontSource=https%3A%2F%2Ffonts.googleapis.com%2Fcss%3Ffamily%3DArchitects%2BDaughter;fontSize=16;" edge="1" parent="1" source="XZvLHF4rB5YBOy9yUA8D-42" target="XZvLHF4rB5YBOy9yUA8D-50">
          <mxGeometry relative="1" as="geometry">
            <Array as="points">
              <mxPoint x="-810" y="235.42" />
              <mxPoint x="-810" y="421.42" />
            </Array>
          </mxGeometry>
        </mxCell>
        <mxCell id="XZvLHF4rB5YBOy9yUA8D-36" style="edgeStyle=orthogonalEdgeStyle;rounded=1;hachureGap=4;orthogonalLoop=1;jettySize=auto;html=1;exitX=0.75;exitY=1;exitDx=0;exitDy=0;entryX=0;entryY=0.5;entryDx=0;entryDy=0;fontFamily=Architects Daughter;fontSource=https%3A%2F%2Ffonts.googleapis.com%2Fcss%3Ffamily%3DArchitects%2BDaughter;fontSize=16;startArrow=classic;startFill=1;" edge="1" parent="1" source="XZvLHF4rB5YBOy9yUA8D-109" target="XZvLHF4rB5YBOy9yUA8D-14">
          <mxGeometry relative="1" as="geometry" />
        </mxCell>
        <mxCell id="XZvLHF4rB5YBOy9yUA8D-37" value="Database APIs" style="edgeLabel;html=1;align=center;verticalAlign=middle;resizable=0;points=[];fontSize=20;fontFamily=Architects Daughter;rounded=1;" vertex="1" connectable="0" parent="XZvLHF4rB5YBOy9yUA8D-36">
          <mxGeometry x="-0.2935" y="2" relative="1" as="geometry">
            <mxPoint as="offset" />
          </mxGeometry>
        </mxCell>
        <mxCell id="XZvLHF4rB5YBOy9yUA8D-38" style="edgeStyle=orthogonalEdgeStyle;rounded=1;hachureGap=4;orthogonalLoop=1;jettySize=auto;html=1;entryX=0;entryY=0.5;entryDx=0;entryDy=0;fontFamily=Architects Daughter;fontSource=https%3A%2F%2Ffonts.googleapis.com%2Fcss%3Ffamily%3DArchitects%2BDaughter;fontSize=16;" edge="1" parent="1" source="XZvLHF4rB5YBOy9yUA8D-109" target="XZvLHF4rB5YBOy9yUA8D-12">
          <mxGeometry relative="1" as="geometry" />
        </mxCell>
        <mxCell id="XZvLHF4rB5YBOy9yUA8D-39" style="edgeStyle=orthogonalEdgeStyle;rounded=1;hachureGap=4;orthogonalLoop=1;jettySize=auto;html=1;exitX=0.75;exitY=0;exitDx=0;exitDy=0;fontFamily=Architects Daughter;fontSource=https%3A%2F%2Ffonts.googleapis.com%2Fcss%3Ffamily%3DArchitects%2BDaughter;fontSize=16;startArrow=classic;startFill=1;fillColor=#fad7ac;strokeColor=#b46504;shape=flexArrow;startSize=5;entryX=0.282;entryY=0.977;entryDx=0;entryDy=0;entryPerimeter=0;" edge="1" parent="1" source="XZvLHF4rB5YBOy9yUA8D-64" target="XZvLHF4rB5YBOy9yUA8D-109">
          <mxGeometry relative="1" as="geometry">
            <mxPoint x="730" y="550" as="targetPoint" />
          </mxGeometry>
        </mxCell>
        <mxCell id="XZvLHF4rB5YBOy9yUA8D-40" value="Process" style="edgeLabel;html=1;align=center;verticalAlign=middle;resizable=0;points=[];fontSize=20;fontFamily=Architects Daughter;rotation=-89;rounded=1;" connectable="0" vertex="1" parent="XZvLHF4rB5YBOy9yUA8D-39">
          <mxGeometry x="0.2448" y="5" relative="1" as="geometry">
            <mxPoint x="-15" y="-43" as="offset" />
          </mxGeometry>
        </mxCell>
        <mxCell id="XZvLHF4rB5YBOy9yUA8D-41" value="Response" style="edgeLabel;html=1;align=center;verticalAlign=middle;resizable=0;points=[];fontSize=20;fontFamily=Architects Daughter;rotation=90;rounded=1;" connectable="0" vertex="1" parent="XZvLHF4rB5YBOy9yUA8D-39">
          <mxGeometry x="-0.516" y="4" relative="1" as="geometry">
            <mxPoint x="29" y="1" as="offset" />
          </mxGeometry>
        </mxCell>
        <mxCell id="XZvLHF4rB5YBOy9yUA8D-42" value="S3 Bucket" style="verticalLabelPosition=bottom;html=1;verticalAlign=top;strokeWidth=1;align=center;outlineConnect=0;dashed=0;outlineConnect=0;shape=mxgraph.aws3d.s3Bucket;fillColor=#4286c5;strokeColor=#57A2D8;aspect=fixed;hachureGap=4;fontFamily=Architects Daughter;fontSource=https%3A%2F%2Ffonts.googleapis.com%2Fcss%3Ffamily%3DArchitects%2BDaughter;fontSize=20;rounded=1;" vertex="1" parent="1">
          <mxGeometry x="-1106" y="203.08999999999997" width="61.5" height="63.800000000000004" as="geometry" />
        </mxCell>
        <mxCell id="XZvLHF4rB5YBOy9yUA8D-43" style="edgeStyle=orthogonalEdgeStyle;rounded=1;hachureGap=4;orthogonalLoop=1;jettySize=auto;html=1;fontFamily=Architects Daughter;fontSource=https%3A%2F%2Ffonts.googleapis.com%2Fcss%3Ffamily%3DArchitects%2BDaughter;fontSize=16;" edge="1" parent="1" source="XZvLHF4rB5YBOy9yUA8D-42" target="XZvLHF4rB5YBOy9yUA8D-48">
          <mxGeometry relative="1" as="geometry">
            <Array as="points">
              <mxPoint x="-880" y="235.42" />
              <mxPoint x="-880" y="537.42" />
            </Array>
          </mxGeometry>
        </mxCell>
        <mxCell id="XZvLHF4rB5YBOy9yUA8D-44" value="" style="shape=image;html=1;verticalAlign=top;verticalLabelPosition=bottom;labelBackgroundColor=#ffffff;imageAspect=0;aspect=fixed;image=https://cdn2.iconfinder.com/data/icons/boxicons-logos/24/bxl-javascript-128.png;hachureGap=4;fontFamily=Architects Daughter;fontSource=https%3A%2F%2Ffonts.googleapis.com%2Fcss%3Ffamily%3DArchitects%2BDaughter;fontSize=20;rounded=1;" vertex="1" parent="1">
          <mxGeometry x="-557.76" y="299.67" width="82" height="82" as="geometry" />
        </mxCell>
        <mxCell id="XZvLHF4rB5YBOy9yUA8D-45" style="edgeStyle=orthogonalEdgeStyle;rounded=1;hachureGap=4;orthogonalLoop=1;jettySize=auto;html=1;exitX=1;exitY=0.5;exitDx=0;exitDy=0;entryX=0;entryY=0.5;entryDx=0;entryDy=0;fontFamily=Architects Daughter;fontSource=https%3A%2F%2Ffonts.googleapis.com%2Fcss%3Ffamily%3DArchitects%2BDaughter;fontSize=16;" edge="1" parent="1" source="XZvLHF4rB5YBOy9yUA8D-48" target="XZvLHF4rB5YBOy9yUA8D-47">
          <mxGeometry relative="1" as="geometry" />
        </mxCell>
        <mxCell id="XZvLHF4rB5YBOy9yUA8D-46" style="edgeStyle=orthogonalEdgeStyle;rounded=0;orthogonalLoop=1;jettySize=auto;html=1;" edge="1" parent="1" source="XZvLHF4rB5YBOy9yUA8D-47" target="XZvLHF4rB5YBOy9yUA8D-130">
          <mxGeometry relative="1" as="geometry" />
        </mxCell>
        <mxCell id="XZvLHF4rB5YBOy9yUA8D-47" value="Browser" style="swimlane;whiteSpace=wrap;html=1;hachureGap=4;fontFamily=Architects Daughter;fontSource=https%3A%2F%2Ffonts.googleapis.com%2Fcss%3Ffamily%3DArchitects%2BDaughter;fontSize=20;fillColor=#ffe6cc;strokeColor=#d79b00;rounded=1;" vertex="1" parent="1">
          <mxGeometry x="-300" y="377.42" width="120" height="95" as="geometry" />
        </mxCell>
        <mxCell id="XZvLHF4rB5YBOy9yUA8D-48" value="" style="shape=image;html=1;verticalAlign=top;verticalLabelPosition=bottom;labelBackgroundColor=#FFB570;imageAspect=0;aspect=fixed;image=https://cdn3.iconfinder.com/data/icons/picons-social/57/50-html5-128.png;hachureGap=4;fontFamily=Architects Daughter;fontSource=https%3A%2F%2Ffonts.googleapis.com%2Fcss%3Ffamily%3DArchitects%2BDaughter;fontSize=20;fontColor=#E84B13;rounded=1;" vertex="1" parent="1">
          <mxGeometry x="-528.76" y="471.17" width="79" height="79" as="geometry" />
        </mxCell>
        <mxCell id="XZvLHF4rB5YBOy9yUA8D-49" style="edgeStyle=orthogonalEdgeStyle;rounded=1;hachureGap=4;orthogonalLoop=1;jettySize=auto;html=1;fontFamily=Architects Daughter;fontSource=https%3A%2F%2Ffonts.googleapis.com%2Fcss%3Ffamily%3DArchitects%2BDaughter;fontSize=16;" edge="1" parent="1" source="XZvLHF4rB5YBOy9yUA8D-50">
          <mxGeometry relative="1" as="geometry">
            <mxPoint x="-299" y="408.5579310344828" as="targetPoint" />
          </mxGeometry>
        </mxCell>
        <mxCell id="XZvLHF4rB5YBOy9yUA8D-50" value="" style="shape=image;verticalLabelPosition=bottom;labelBackgroundColor=default;verticalAlign=top;aspect=fixed;imageAspect=0;image=data:image/svg+xml,PHN2ZyB4bWxucz0iaHR0cDovL3d3dy53My5vcmcvMjAwMC9zdmciIHZpZXdCb3g9IjAgMCAxMjQgMTQxLjUzIiB3aWR0aD0iMjE4MyIgaGVpZ2h0PSIyNTAwIiBmaWxsPSJub25lIj48cGF0aCBmaWxsPSIjMWI3M2JhIiBkPSJNMTAuMzgzIDEyNi44OTJMMCAwbDEyNCAuMjU1LTEwLjk3OSAxMjYuNjM3LTUwLjU1MyAxNC42Mzh6Ii8+PHBhdGggZmlsbD0iIzFjODhjNyIgZD0iTTYyLjQ2OCAxMjkuMjc1VjEyLjA4NWw1MS4wNjQuMTctOS4xMDYgMTA0Ljg1eiIvPjxwYXRoIGZpbGw9IiNmZmYiIGQ9Ik0xMDAuODUxIDI3LjA2NEgyMi4yOThsMi4xMjggMTUuMzE4aDM3LjI3NmwtMzYuNjggMTUuNzQ1IDIuMTI3IDE0LjgwOGg1NC4wNDNsLTEuOTU4IDIwLjY4LTE4LjI5OCAzLjU3NS0xNi41OTUtNC4yNTUtMS4yNzctMTEuNzQ1SDI3LjgzbDIuMDQyIDI0LjQyNiAzMi42ODEgOS4xMDYgMzEuMzItOS45NTcgNC00Ny43NDVINjQuNzY1bDM2LjA4NS0xNC45Nzh6Ii8+PC9zdmc+;rounded=1;" vertex="1" parent="1">
          <mxGeometry x="-528.76" y="389.04" width="57" height="65.27" as="geometry" />
        </mxCell>
        <mxCell id="XZvLHF4rB5YBOy9yUA8D-51" style="edgeStyle=orthogonalEdgeStyle;rounded=1;hachureGap=4;orthogonalLoop=1;jettySize=auto;html=1;entryX=-0.032;entryY=0.11;entryDx=0;entryDy=0;entryPerimeter=0;fontFamily=Architects Daughter;fontSource=https%3A%2F%2Ffonts.googleapis.com%2Fcss%3Ffamily%3DArchitects%2BDaughter;fontSize=16;" edge="1" parent="1" source="XZvLHF4rB5YBOy9yUA8D-44" target="XZvLHF4rB5YBOy9yUA8D-47">
          <mxGeometry relative="1" as="geometry" />
        </mxCell>
        <mxCell id="XZvLHF4rB5YBOy9yUA8D-52" value="" style="edgeStyle=orthogonalEdgeStyle;rounded=1;hachureGap=4;orthogonalLoop=1;jettySize=auto;html=1;fontFamily=Architects Daughter;fontSource=https%3A%2F%2Ffonts.googleapis.com%2Fcss%3Ffamily%3DArchitects%2BDaughter;fontSize=16;entryX=0.5;entryY=1;entryDx=0;entryDy=0;" edge="1" parent="1" source="XZvLHF4rB5YBOy9yUA8D-53" target="XZvLHF4rB5YBOy9yUA8D-56">
          <mxGeometry relative="1" as="geometry">
            <mxPoint x="-1085.62" y="399.09" as="targetPoint" />
          </mxGeometry>
        </mxCell>
        <mxCell id="XZvLHF4rB5YBOy9yUA8D-53" value="Babel&lt;br&gt;Compilation" style="whiteSpace=wrap;html=1;fontSize=19;verticalAlign=top;labelBackgroundColor=default;hachureGap=4;fontFamily=Architects Daughter;fontSource=https%3A%2F%2Ffonts.googleapis.com%2Fcss%3Ffamily%3DArchitects%2BDaughter;rounded=1;" vertex="1" parent="1">
          <mxGeometry x="-1146.62" y="459.09" width="120" height="60" as="geometry" />
        </mxCell>
        <mxCell id="XZvLHF4rB5YBOy9yUA8D-54" value="" style="edgeStyle=orthogonalEdgeStyle;rounded=1;hachureGap=4;orthogonalLoop=1;jettySize=auto;html=1;fontFamily=Architects Daughter;fontSource=https%3A%2F%2Ffonts.googleapis.com%2Fcss%3Ffamily%3DArchitects%2BDaughter;fontSize=16;" edge="1" parent="1" source="XZvLHF4rB5YBOy9yUA8D-27" target="XZvLHF4rB5YBOy9yUA8D-53">
          <mxGeometry relative="1" as="geometry" />
        </mxCell>
        <mxCell id="XZvLHF4rB5YBOy9yUA8D-55" style="edgeStyle=orthogonalEdgeStyle;rounded=1;hachureGap=4;orthogonalLoop=1;jettySize=auto;html=1;fontFamily=Architects Daughter;fontSource=https%3A%2F%2Ffonts.googleapis.com%2Fcss%3Ffamily%3DArchitects%2BDaughter;fontSize=16;" edge="1" parent="1" source="XZvLHF4rB5YBOy9yUA8D-56" target="XZvLHF4rB5YBOy9yUA8D-42">
          <mxGeometry relative="1" as="geometry" />
        </mxCell>
        <mxCell id="XZvLHF4rB5YBOy9yUA8D-56" value="Deploy" style="ellipse;whiteSpace=wrap;html=1;hachureGap=4;fontFamily=Architects Daughter;fontSource=https%3A%2F%2Ffonts.googleapis.com%2Fcss%3Ffamily%3DArchitects%2BDaughter;fontSize=20;rounded=1;fillColor=#f5f5f5;strokeColor=#666666;fontColor=#333333;" vertex="1" parent="1">
          <mxGeometry x="-1121.12" y="363.09" width="69" height="46" as="geometry" />
        </mxCell>
        <mxCell id="XZvLHF4rB5YBOy9yUA8D-57" style="edgeStyle=orthogonalEdgeStyle;rounded=1;hachureGap=4;orthogonalLoop=1;jettySize=auto;html=1;fontFamily=Architects Daughter;fontSource=https%3A%2F%2Ffonts.googleapis.com%2Fcss%3Ffamily%3DArchitects%2BDaughter;fontSize=16;" edge="1" parent="1" source="XZvLHF4rB5YBOy9yUA8D-58">
          <mxGeometry relative="1" as="geometry">
            <mxPoint x="-301.705882352941" y="441.3023529411766" as="targetPoint" />
            <Array as="points">
              <mxPoint x="-431" y="599.42" />
              <mxPoint x="-431" y="553.42" />
              <mxPoint x="-349" y="553.42" />
              <mxPoint x="-349" y="441.42" />
            </Array>
          </mxGeometry>
        </mxCell>
        <mxCell id="XZvLHF4rB5YBOy9yUA8D-58" value="" style="shape=image;html=1;verticalAlign=top;verticalLabelPosition=bottom;labelBackgroundColor=#ffffff;imageAspect=0;aspect=fixed;image=https://cdn4.iconfinder.com/data/icons/48-bubbles/48/18.Pictures-Day-128.png;hachureGap=4;fontFamily=Architects Daughter;fontSource=https%3A%2F%2Ffonts.googleapis.com%2Fcss%3Ffamily%3DArchitects%2BDaughter;fontSize=20;rounded=1;" vertex="1" parent="1">
          <mxGeometry x="-528.76" y="556.42" width="87" height="87" as="geometry" />
        </mxCell>
        <mxCell id="XZvLHF4rB5YBOy9yUA8D-59" style="edgeStyle=orthogonalEdgeStyle;rounded=1;hachureGap=4;orthogonalLoop=1;jettySize=auto;html=1;fontFamily=Architects Daughter;fontSource=https%3A%2F%2Ffonts.googleapis.com%2Fcss%3Ffamily%3DArchitects%2BDaughter;fontSize=16;entryX=0;entryY=0.5;entryDx=0;entryDy=0;" edge="1" parent="1" source="XZvLHF4rB5YBOy9yUA8D-42" target="XZvLHF4rB5YBOy9yUA8D-58">
          <mxGeometry relative="1" as="geometry">
            <Array as="points">
              <mxPoint x="-970" y="235.42" />
              <mxPoint x="-970" y="599.42" />
            </Array>
          </mxGeometry>
        </mxCell>
        <mxCell id="XZvLHF4rB5YBOy9yUA8D-60" value="Static&lt;br style=&quot;border-color: var(--border-color);&quot;&gt;Assets / CDN" style="shape=callout;whiteSpace=wrap;html=1;perimeter=calloutPerimeter;hachureGap=4;fontFamily=Architects Daughter;fontSource=https%3A%2F%2Ffonts.googleapis.com%2Fcss%3Ffamily%3DArchitects%2BDaughter;fontSize=20;position2=1;fillColor=#fff2cc;strokeColor=#d6b656;base=31;size=30;position=0.58;flipV=1;rounded=1;" vertex="1" parent="1">
          <mxGeometry x="-1290" y="247.42" width="154" height="102.67" as="geometry" />
        </mxCell>
        <mxCell id="XZvLHF4rB5YBOy9yUA8D-61" style="edgeStyle=orthogonalEdgeStyle;rounded=1;hachureGap=4;orthogonalLoop=1;jettySize=auto;html=1;fontFamily=Architects Daughter;fontSource=https%3A%2F%2Ffonts.googleapis.com%2Fcss%3Ffamily%3DArchitects%2BDaughter;fontSize=16;" edge="1" parent="1" source="XZvLHF4rB5YBOy9yUA8D-30" target="XZvLHF4rB5YBOy9yUA8D-47">
          <mxGeometry relative="1" as="geometry" />
        </mxCell>
        <mxCell id="XZvLHF4rB5YBOy9yUA8D-62" style="edgeStyle=orthogonalEdgeStyle;rounded=1;hachureGap=4;orthogonalLoop=1;jettySize=auto;html=1;fontFamily=Architects Daughter;fontSource=https%3A%2F%2Ffonts.googleapis.com%2Fcss%3Ffamily%3DArchitects%2BDaughter;fontSize=16;" edge="1" parent="1">
          <mxGeometry relative="1" as="geometry">
            <mxPoint x="670.333333333333" y="803" as="sourcePoint" />
            <mxPoint x="590" y="990" as="targetPoint" />
            <Array as="points">
              <mxPoint x="670" y="897" />
              <mxPoint x="590" y="897" />
            </Array>
          </mxGeometry>
        </mxCell>
        <mxCell id="XZvLHF4rB5YBOy9yUA8D-63" style="edgeStyle=orthogonalEdgeStyle;rounded=1;hachureGap=4;orthogonalLoop=1;jettySize=auto;html=1;exitX=0.75;exitY=1;exitDx=0;exitDy=0;fontFamily=Architects Daughter;fontSource=https%3A%2F%2Ffonts.googleapis.com%2Fcss%3Ffamily%3DArchitects%2BDaughter;fontSize=16;" edge="1" parent="1" source="XZvLHF4rB5YBOy9yUA8D-64" target="XZvLHF4rB5YBOy9yUA8D-91">
          <mxGeometry relative="1" as="geometry" />
        </mxCell>
        <mxCell id="XZvLHF4rB5YBOy9yUA8D-175" style="edgeStyle=orthogonalEdgeStyle;rounded=0;orthogonalLoop=1;jettySize=auto;html=1;" edge="1" parent="1" source="XZvLHF4rB5YBOy9yUA8D-64" target="XZvLHF4rB5YBOy9yUA8D-172">
          <mxGeometry relative="1" as="geometry">
            <Array as="points">
              <mxPoint x="830" y="910" />
              <mxPoint x="830" y="910" />
            </Array>
          </mxGeometry>
        </mxCell>
        <mxCell id="XZvLHF4rB5YBOy9yUA8D-176" style="edgeStyle=orthogonalEdgeStyle;rounded=0;orthogonalLoop=1;jettySize=auto;html=1;entryX=0.25;entryY=0;entryDx=0;entryDy=0;" edge="1" parent="1" source="XZvLHF4rB5YBOy9yUA8D-64" target="XZvLHF4rB5YBOy9yUA8D-173">
          <mxGeometry relative="1" as="geometry">
            <Array as="points">
              <mxPoint x="860" y="840" />
              <mxPoint x="880" y="840" />
              <mxPoint x="880" y="920" />
              <mxPoint x="970" y="920" />
            </Array>
          </mxGeometry>
        </mxCell>
        <mxCell id="XZvLHF4rB5YBOy9yUA8D-64" value="&lt;h1 style=&quot;border-color: var(--border-color); text-align: left;&quot;&gt;Customer website&lt;/h1&gt;" style="rounded=1;whiteSpace=wrap;html=1;hachureGap=4;fontFamily=Architects Daughter;fontSource=https%3A%2F%2Ffonts.googleapis.com%2Fcss%3Ffamily%3DArchitects%2BDaughter;fontSize=20;fillColor=#f8cecc;strokeColor=#b85450;" vertex="1" parent="1">
          <mxGeometry x="510.5" y="740" width="379.5" height="63" as="geometry" />
        </mxCell>
        <mxCell id="XZvLHF4rB5YBOy9yUA8D-65" value="" style="group;rounded=1;" connectable="0" vertex="1" parent="1">
          <mxGeometry x="1090" y="-204.42000000000002" width="750" height="360.37" as="geometry" />
        </mxCell>
        <mxCell id="XZvLHF4rB5YBOy9yUA8D-66" value="" style="group;rounded=1;" connectable="0" vertex="1" parent="XZvLHF4rB5YBOy9yUA8D-65">
          <mxGeometry x="-10" y="-109.63" width="750" height="352.37" as="geometry" />
        </mxCell>
        <mxCell id="XZvLHF4rB5YBOy9yUA8D-67" style="edgeStyle=orthogonalEdgeStyle;rounded=1;hachureGap=4;orthogonalLoop=1;jettySize=auto;html=1;exitX=0.25;exitY=1;exitDx=0;exitDy=0;fontFamily=Architects Daughter;fontSource=https%3A%2F%2Ffonts.googleapis.com%2Fcss%3Ffamily%3DArchitects%2BDaughter;fontSize=16;" edge="1" parent="XZvLHF4rB5YBOy9yUA8D-66" source="XZvLHF4rB5YBOy9yUA8D-68" target="XZvLHF4rB5YBOy9yUA8D-75">
          <mxGeometry relative="1" as="geometry">
            <Array as="points">
              <mxPoint x="188" y="324" />
              <mxPoint x="150" y="324" />
            </Array>
          </mxGeometry>
        </mxCell>
        <mxCell id="XZvLHF4rB5YBOy9yUA8D-68" value="" style="rounded=1;whiteSpace=wrap;html=1;hachureGap=4;fontFamily=Architects Daughter;fontSource=https%3A%2F%2Ffonts.googleapis.com%2Fcss%3Ffamily%3DArchitects%2BDaughter;fontSize=20;arcSize=2;fillColor=#d5e8d4;strokeColor=#82b366;movable=1;resizable=1;rotatable=1;deletable=1;editable=1;locked=0;connectable=1;" vertex="1" parent="XZvLHF4rB5YBOy9yUA8D-66">
          <mxGeometry y="40.370000000000005" width="750" height="312" as="geometry" />
        </mxCell>
        <mxCell id="XZvLHF4rB5YBOy9yUA8D-69" value="" style="endArrow=none;html=1;rounded=1;hachureGap=4;fontFamily=Architects Daughter;fontSource=https%3A%2F%2Ffonts.googleapis.com%2Fcss%3Ffamily%3DArchitects%2BDaughter;fontSize=16;fillColor=#f8cecc;strokeColor=#b85450;" edge="1" parent="XZvLHF4rB5YBOy9yUA8D-66">
          <mxGeometry width="50" height="50" relative="1" as="geometry">
            <mxPoint x="180" y="17" as="sourcePoint" />
            <mxPoint x="537" y="34.36576239476153" as="targetPoint" />
          </mxGeometry>
        </mxCell>
        <mxCell id="XZvLHF4rB5YBOy9yUA8D-70" value="Payment Processing flow" style="text;html=1;strokeColor=#6c8ebf;fillColor=#dae8fc;align=center;verticalAlign=middle;whiteSpace=wrap;rounded=1;fontSize=20;fontFamily=Architects Daughter;fontStyle=1;" vertex="1" parent="XZvLHF4rB5YBOy9yUA8D-66">
          <mxGeometry x="180" width="355" height="20" as="geometry" />
        </mxCell>
        <mxCell id="XZvLHF4rB5YBOy9yUA8D-71" value="&lt;p style=&quot;line-height: 80%;&quot;&gt;&lt;span style=&quot;font-size: 15px;&quot;&gt;&lt;b&gt;REST&lt;br&gt;API&lt;/b&gt;&lt;/span&gt;&lt;/p&gt;" style="rhombus;whiteSpace=wrap;html=1;fontSize=20;fontFamily=Architects Daughter;rounded=1;hachureGap=4;fontSource=https%3A%2F%2Ffonts.googleapis.com%2Fcss%3Ffamily%3DArchitects%2BDaughter;fillColor=#dae8fc;strokeColor=#6c8ebf;" vertex="1" parent="XZvLHF4rB5YBOy9yUA8D-66">
          <mxGeometry x="300" y="166.13" width="80" height="80" as="geometry" />
        </mxCell>
        <mxCell id="XZvLHF4rB5YBOy9yUA8D-72" style="edgeStyle=orthogonalEdgeStyle;rounded=1;hachureGap=4;orthogonalLoop=1;jettySize=auto;html=1;entryX=0;entryY=0.5;entryDx=0;entryDy=0;fontFamily=Architects Daughter;fontSource=https%3A%2F%2Ffonts.googleapis.com%2Fcss%3Ffamily%3DArchitects%2BDaughter;fontSize=16;" edge="1" parent="XZvLHF4rB5YBOy9yUA8D-66" source="XZvLHF4rB5YBOy9yUA8D-73" target="XZvLHF4rB5YBOy9yUA8D-71">
          <mxGeometry relative="1" as="geometry" />
        </mxCell>
        <mxCell id="XZvLHF4rB5YBOy9yUA8D-73" value="SDKs" style="whiteSpace=wrap;html=1;fontSize=20;fontFamily=Architects Daughter;rounded=1;hachureGap=4;fontSource=https%3A%2F%2Ffonts.googleapis.com%2Fcss%3Ffamily%3DArchitects%2BDaughter;" vertex="1" parent="XZvLHF4rB5YBOy9yUA8D-66">
          <mxGeometry x="100" y="106.87" width="150" height="40" as="geometry" />
        </mxCell>
        <mxCell id="XZvLHF4rB5YBOy9yUA8D-74" style="edgeStyle=orthogonalEdgeStyle;rounded=1;hachureGap=4;orthogonalLoop=1;jettySize=auto;html=1;exitX=1;exitY=0.5;exitDx=0;exitDy=0;fontFamily=Architects Daughter;fontSource=https%3A%2F%2Ffonts.googleapis.com%2Fcss%3Ffamily%3DArchitects%2BDaughter;fontSize=16;entryX=0;entryY=0.5;entryDx=0;entryDy=0;" edge="1" parent="XZvLHF4rB5YBOy9yUA8D-66" source="XZvLHF4rB5YBOy9yUA8D-71" target="XZvLHF4rB5YBOy9yUA8D-164">
          <mxGeometry relative="1" as="geometry">
            <mxPoint x="436.71000000000004" y="163.36500000000007" as="targetPoint" />
          </mxGeometry>
        </mxCell>
        <mxCell id="XZvLHF4rB5YBOy9yUA8D-75" value="Request" style="shape=parallelogram;perimeter=parallelogramPerimeter;whiteSpace=wrap;html=1;fixedSize=1;hachureGap=4;fontFamily=Architects Daughter;fontSource=https%3A%2F%2Ffonts.googleapis.com%2Fcss%3Ffamily%3DArchitects%2BDaughter;fontSize=20;rounded=1;" vertex="1" parent="XZvLHF4rB5YBOy9yUA8D-66">
          <mxGeometry x="90" y="227.37" width="120" height="60" as="geometry" />
        </mxCell>
        <mxCell id="XZvLHF4rB5YBOy9yUA8D-76" style="edgeStyle=orthogonalEdgeStyle;rounded=1;hachureGap=4;orthogonalLoop=1;jettySize=auto;html=1;entryX=0.533;entryY=1.088;entryDx=0;entryDy=0;entryPerimeter=0;fontFamily=Architects Daughter;fontSource=https%3A%2F%2Ffonts.googleapis.com%2Fcss%3Ffamily%3DArchitects%2BDaughter;fontSize=16;" edge="1" parent="XZvLHF4rB5YBOy9yUA8D-66" source="XZvLHF4rB5YBOy9yUA8D-75" target="XZvLHF4rB5YBOy9yUA8D-73">
          <mxGeometry relative="1" as="geometry" />
        </mxCell>
        <mxCell id="XZvLHF4rB5YBOy9yUA8D-77" value="Process" style="ellipse;shape=cloud;whiteSpace=wrap;html=1;hachureGap=4;fontFamily=Architects Daughter;fontSource=https%3A%2F%2Ffonts.googleapis.com%2Fcss%3Ffamily%3DArchitects%2BDaughter;fontSize=20;rounded=1;" vertex="1" parent="XZvLHF4rB5YBOy9yUA8D-66">
          <mxGeometry x="600" y="156.13" width="120" height="80" as="geometry" />
        </mxCell>
        <mxCell id="XZvLHF4rB5YBOy9yUA8D-78" style="edgeStyle=orthogonalEdgeStyle;rounded=1;hachureGap=4;orthogonalLoop=1;jettySize=auto;html=1;entryX=0.209;entryY=0.252;entryDx=0;entryDy=0;entryPerimeter=0;fontFamily=Architects Daughter;fontSource=https%3A%2F%2Ffonts.googleapis.com%2Fcss%3Ffamily%3DArchitects%2BDaughter;fontSize=16;" edge="1" parent="XZvLHF4rB5YBOy9yUA8D-66" target="XZvLHF4rB5YBOy9yUA8D-77">
          <mxGeometry relative="1" as="geometry">
            <mxPoint x="570" y="159.49444444444435" as="sourcePoint" />
          </mxGeometry>
        </mxCell>
        <mxCell id="XZvLHF4rB5YBOy9yUA8D-79" value="JSON Response" style="ellipse;whiteSpace=wrap;html=1;hachureGap=4;fontFamily=Architects Daughter;fontSource=https%3A%2F%2Ffonts.googleapis.com%2Fcss%3Ffamily%3DArchitects%2BDaughter;fontSize=20;rounded=1;" vertex="1" parent="XZvLHF4rB5YBOy9yUA8D-66">
          <mxGeometry x="450" y="236.13" width="120" height="80" as="geometry" />
        </mxCell>
        <mxCell id="XZvLHF4rB5YBOy9yUA8D-80" style="edgeStyle=orthogonalEdgeStyle;rounded=1;hachureGap=4;orthogonalLoop=1;jettySize=auto;html=1;fontFamily=Architects Daughter;fontSource=https%3A%2F%2Ffonts.googleapis.com%2Fcss%3Ffamily%3DArchitects%2BDaughter;fontSize=16;" edge="1" parent="XZvLHF4rB5YBOy9yUA8D-66" source="XZvLHF4rB5YBOy9yUA8D-77" target="XZvLHF4rB5YBOy9yUA8D-79">
          <mxGeometry relative="1" as="geometry" />
        </mxCell>
        <mxCell id="XZvLHF4rB5YBOy9yUA8D-81" style="edgeStyle=orthogonalEdgeStyle;rounded=1;hachureGap=4;orthogonalLoop=1;jettySize=auto;html=1;fontFamily=Architects Daughter;fontSource=https%3A%2F%2Ffonts.googleapis.com%2Fcss%3Ffamily%3DArchitects%2BDaughter;fontSize=16;" edge="1" parent="XZvLHF4rB5YBOy9yUA8D-66" source="XZvLHF4rB5YBOy9yUA8D-79">
          <mxGeometry relative="1" as="geometry">
            <mxPoint x="440" y="350" as="targetPoint" />
          </mxGeometry>
        </mxCell>
        <mxCell id="XZvLHF4rB5YBOy9yUA8D-164" value="" style="shape=image;verticalLabelPosition=bottom;labelBackgroundColor=default;verticalAlign=top;aspect=fixed;imageAspect=0;image=data:image/png,iVBORw0KGgoAAAANSUhEUgAAAKIAAABECAYAAAAC7+6EAAAKs2lDQ1BJQ0MgUHJvZmlsZQAASImVlwdUE1kXgN9MekgoCURASqih9xJASggtdOkgKiEJEAghBIKC2FlcwbWgIgKKoqsiCq5KkcWGBduiqNh1QURAXRcLNlT+AQ5hd//z///57zl37jd37rvvvnfmzbkDAFmLK5GIYGUAMsW50gh/b3pcfAIdNwSIAAdUAQQoXF6OhBUeHgwQmbZ/lw93kDhEbllO5Pr35/9VVPiCHB4AUDjCyfwcXibCxxH9wJNIcwFAHUL8BotyJRN8A2FVKVIgws8mOHWKP01w8iSjSZMxURFshOkA4ElcrjQVAJIF4qfn8VKRPKSJNdiI+UIxwoUIe2RmZvERbkfYBImRIDyRn5n8lzypf8uZLM/J5abKeWotk4L3EeZIRNz8/3M7/rdkimTTczAQJaVJAyIQS0H27FlGVpCcxcmhYdMs5E/GT3KaLCB6mnk57IRpzhFFcqaZz/UJkucRhQZPc4rQTx4jzOVETbMgxzdymqVZEfJ5U6Rs1jRzpTM1yDKi5f40AUeevyAtKnaa84QxofLaMiKDZmLYcr9UFiFfi0Ds7z0zr598HzJz/rJ2IUc+NjctKkC+D9yZ+gVi1kzOnDh5bXyBj+9MTLQ8XpLrLZ9LIgqXxwtE/nJ/Tl6kfGwu8nLOjA2X72E6NzB8mgEbZAERolJAB8HInQ8AuYLFuRMLYWdJ8qXC1LRcOgs5bQI6R8yzsqDb2dg5ADBxdqdejXe0yTMJ0a7M+FbrAeCePz4+3j7jC0LO1LGTABAfzPgYAwAoXgHg0jaeTJo35UNPXDDIV0EJ+SpoAB1gAEyAJbADTsANeAFfEAjCQBSIBwsAD6SBTKTyRaAQrATFoBRsBFtBJagBe8ABcBgcBS2gHZwFF8FVcAP0gIegFwyAl2AEfABjEAThIDJEhTQgXcgIMofsICbkAflCwVAEFA8lQamQGJJBhdBqqBQqgyqh3VAd9At0AjoLXYa6oftQHzQMvYW+wCiYBKvC2rAxbA0zYRYcBEfB8+FUOBsugIvg9XAFXAsfgpvhs/BVuAfuhV/CoyiAUkDRUHooSxQTxUaFoRJQKSgpahmqBFWOqkU1oNpQnahbqF7UK9RnNBZNRdPRlmg3dAA6Gs1DZ6OXodehK9EH0M3o8+hb6D70CPo7hozRwphjXDEcTBwmFbMIU4wpx+zDNGEuYHowA5gPWCyWhmVgnbEB2HhsOnYJdh12B7YRewbbje3HjuJwOA2cOc4dF4bj4nJxxbjtuEO407ibuAHcJ7wCXhdvh/fDJ+DF+FX4cvxB/Cn8TfwgfoygTDAiuBLCCHxCPmEDYS+hjXCdMEAYI6oQGUR3YhQxnbiSWEFsIF4gPiK+U1BQ0FdwUZirIFRYoVChcEThkkKfwmcShWRGYpMSSTLSetJ+0hnSfdI7MplsTPYiJ5BzyevJdeRz5CfkT4pURStFjiJfcblilWKz4k3F10oEJSMlltICpQKlcqVjSteVXikTlI2V2cpc5WXKVconlO8qj6pQVWxVwlQyVdapHFS5rDJEwVGMKb4UPqWIsodyjtJPRVENqGwqj7qaupd6gTqgilVlqHJU01VLVQ+rdqmOqFHUHNRi1BarVamdVOuloWjGNA5NRNtAO0q7Q/syS3sWa5Zg1tpZDbNuzvqoPlvdS12gXqLeqN6j/kWDruGrkaGxSaNF47EmWtNMc67mIs2dmhc0X81Wne02mze7ZPbR2Q+0YC0zrQitJVp7tK5pjWrraPtrS7S3a5/TfqVD0/HSSdfZonNKZ1iXquuhK9Tdonta9wVdjc6ii+gV9PP0ET0tvQA9md5uvS69MX2GfrT+Kv1G/ccGRAOmQYrBFoMOgxFDXcMQw0LDesMHRgQjplGa0TajTqOPxgzjWOM1xi3GQwx1BodRwKhnPDIhm3iaZJvUmtw2xZoyTTNMd5jeMIPNHM3SzKrMrpvD5k7mQvMd5t0WGAsXC7FFrcVdS5IlyzLPst6yz4pmFWy1yqrF6rW1oXWC9SbrTuvvNo42Ipu9Ng9tKbaBtqts22zf2pnZ8eyq7G7bk+397Jfbt9q/cTB3EDjsdLjnSHUMcVzj2OH4zcnZSerU4DTsbOic5FztfJepygxnrmNecsG4eLssd2l3+ezq5JrretT1TzdLtwy3g25DcxhzBHP2zul313fnuu927/WgeyR57PLo9dTz5HrWej71MvDie+3zGmSZstJZh1ivvW28pd5N3h/Zruyl7DM+KB9/nxKfLl+Kb7Rvpe8TP32/VL96vxF/R/8l/mcCMAFBAZsC7nK0OTxOHWck0DlwaeD5IFJQZFBl0NNgs2BpcFsIHBIYsjnkUahRqDi0JQyEccI2hz0OZ4Rnh/86Fzs3fG7V3OcRthGFEZ2R1MiFkQcjP0R5R22IehhtEi2L7ohRikmMqYv5GOsTWxbbG2cdtzTuarxmvDC+NQGXEJOwL2F0nu+8rfMGEh0TixPvzGfMXzz/8gLNBaIFJxcqLeQuPJaESYpNOpj0lRvGreWOJnOSq5NHeGzeNt5Lvhd/C39Y4C4oEwymuKeUpQyluqduTh1O80wrT3slZAsrhW/SA9Jr0j9mhGXszxgXxYoaM/GZSZknxBRxhvh8lk7W4qxuibmkWNKb7Zq9NXtEGiTdlwPlzM9pzVVFmqRrMhPZD7K+PI+8qrxPi2IWHVussli8+Fq+Wf7a/MECv4Kfl6CX8JZ0FOoVrizsW8paunsZtCx5Wcdyg+VFywdW+K84sJK4MmPlb6tsVpWter86dnVbkXbRiqL+H/x/qC9WLJYW313jtqbmR/SPwh+71tqv3b72ewm/5EqpTWl56dd1vHVXfrL9qeKn8fUp67s2OG3YuRG7UbzxzibPTQfKVMoKyvo3h2xu3kLfUrLl/daFWy+XO5TXbCNuk23rrQiuaN1uuH3j9q+VaZU9Vd5VjdVa1WurP+7g77i502tnQ412TWnNl13CXfd2++9urjWuLd+D3ZO35/nemL2dPzN/rtunua9037f94v29ByIOnK9zrqs7qHVwQz1cL6sfPpR46MZhn8OtDZYNuxtpjaVHwBHZkRe/JP1y52jQ0Y5jzGMNx42OVzdRm0qaoeb85pGWtJbe1vjW7hOBJzra3NqafrX6dX+7XnvVSbWTG04RTxWdGj9dcHr0jOTMq7OpZ/s7FnY8PBd37vb5uee7LgRduHTR7+K5Tlbn6Uvul9ovu14+cYV5peWq09Xma47Xmn5z/K2py6mr+brz9dYbLjfauud0n7rpefPsLZ9bF29zbl/tCe3pvhN9597dxLu99/j3hu6L7r95kPdg7OGKR5hHJY+VH5c/0XpS+7vp7429Tr0n+3z6rj2NfPqwn9f/8lnOs68DRc/Jz8sHdQfrhuyG2of9hm+8mPdi4KXk5dir4j9U/qh+bfL6+J9ef14biRsZeCN9M/523TuNd/vfO7zvGA0fffIh88PYx5JPGp8OfGZ+7vwS+2VwbNFX3NeKb6bf2r4HfX80njk+LuFKuZOtAApROCUFgLf7ASDHA0BFegjivKneelKgqf+BSQL/iaf670lxAqABMRNtEfsMAEcQNV6B5EbsREsU5QVge3u5TvfBkz37hGCRv5ddXhPUoz6fBP4hU/38X+r+pwUTWR3AP+2/AMhADEzbnSomAAAAimVYSWZNTQAqAAAACAAEARoABQAAAAEAAAA+ARsABQAAAAEAAABGASgAAwAAAAEAAgAAh2kABAAAAAEAAABOAAAAAAAAAJAAAAABAAAAkAAAAAEAA5KGAAcAAAASAAAAeKACAAQAAAABAAAAoqADAAQAAAABAAAARAAAAABBU0NJSQAAAFNjcmVlbnNob3QRAOnNAAAACXBIWXMAABYlAAAWJQFJUiTwAAAB1WlUWHRYTUw6Y29tLmFkb2JlLnhtcAAAAAAAPHg6eG1wbWV0YSB4bWxuczp4PSJhZG9iZTpuczptZXRhLyIgeDp4bXB0az0iWE1QIENvcmUgNi4wLjAiPgogICA8cmRmOlJERiB4bWxuczpyZGY9Imh0dHA6Ly93d3cudzMub3JnLzE5OTkvMDIvMjItcmRmLXN5bnRheC1ucyMiPgogICAgICA8cmRmOkRlc2NyaXB0aW9uIHJkZjphYm91dD0iIgogICAgICAgICAgICB4bWxuczpleGlmPSJodHRwOi8vbnMuYWRvYmUuY29tL2V4aWYvMS4wLyI+CiAgICAgICAgIDxleGlmOlBpeGVsWURpbWVuc2lvbj42ODwvZXhpZjpQaXhlbFlEaW1lbnNpb24+CiAgICAgICAgIDxleGlmOlBpeGVsWERpbWVuc2lvbj4xNjI8L2V4aWY6UGl4ZWxYRGltZW5zaW9uPgogICAgICAgICA8ZXhpZjpVc2VyQ29tbWVudD5TY3JlZW5zaG90PC9leGlmOlVzZXJDb21tZW50PgogICAgICA8L3JkZjpEZXNjcmlwdGlvbj4KICAgPC9yZGY6UkRGPgo8L3g6eG1wbWV0YT4KNvIH7QAAABxpRE9UAAAAAgAAAAAAAAAiAAAAKAAAACIAAAAiAAAWsAFtxTIAABZ8SURBVHgBrFt5kFbVlT/N1k2zN70DgqAITmpccMNRo2A0mgrOJMYtajSYZOIkRp1UZSr5Y7JUZsyMyRgVNSoZa6ZmXKKJMtKN5ZIxGiFMxcQKgkIDnaa7WewGpKGb7gZ6zn7ve+9739eAr8p37z3L7/zOuee77/teY9mqv35hCMqGQC4Zy8popXOauh6nKjcZr2P7aE4YvIxkPCUMlUmsHNwotsVxf9Xx2vlpPIorhmhlOcnIa9R5HpRe2p99zY8CqS/aGazxMV1YE6DZ5fgRpMaMY7M4ik3YvDR+uJD4lkvgHufD8QviUATNK8pJ4pKD4ab5a9wIMxOPQPxCHLXN7EPKhs0oz1V/g43IlzibwoHM0QpnZDNrim2JoBPqHYswcBH0FivYJzYkZesfDAFM4LiOeSY3LtZxbPaXmGFNjuin2Jk5qa0RaEo5Kg4PBerAGAk/41WsBlYTckzF8LWGjrCND48k58vykVwDH1Sm+ZI9JiLpR/aaI8ORiRjgTGw8nsrjWpuN4BqmxbG14ZAc+a76jDUikUFlFDANnlkjhtgnQUlMV6K5Cq2jeCG2bVogzJT4ZnGEZyiGySmq6GgmetXFzRTNwwcm+Ma4Xg4qFpnoRgQ/wSdl1k+4uFz94zpmaxTFwFgck2+WB4MwjwSO8SK1cfU8jbvo2IRufCnHKAblyEvDxIWs0UExPSdXRPmTn8rZrqANBcc4ZrfqMytwJUlakS1BsVGdJZcmF/mGeJqc2XrANFZMprCOEnIeqSIYT0IRO8XQuPEmx7aM57y1gCwUf/NLFlE3x/3Sa8RJ8eN6Mn/LTfNlvuqfqZHYsIkkjsDKi4Rkr1xFbdiGJzZxviQJuaCd4ZKC9oYGxaRpIVnw0XjkF+Pg3JtTcxK18dUQXr8oDk7Lmj+7YsgBSiScSc7IKyHH0WIl1hTM8QO5/KTTCdNaZFkeJg8+lCbT8sSt4DoqR7FDP8uF/RQHfTU1lFrhg63obE0Q4sej4eFocorlp1XGVu3Mj0zZnm6Gq3O1ydSB7BL+tlZsxWMTxQx5oTLeH7LVKxnHMK2eZhXFML4SSAy8lpILCUOdcM6NGG0WJeJEeZLcDNELGKvdF/18rvr0mqNnifhGJeKhXXot7FEsOvcrtKZE1Z/cEg2QwC3CW/mzOcZI4KXXaBTzYZ+UfyKfqDZiG/sTYYsn3EliPGieyIcFKCJMNpIaJ+2Dv8QTG47DeHQzP9OhSEAye8suqnO/KCfW040utrPGDdihXmjSfDWeiA5AXuYgc7pn9ArMOiJvZDWR8MkKGKFwBGgJF9CjTuCUcGZN4czfYqfXgptpHBLHeDHvgjkZrviRO9dHbXlI+5GJ5yf82CSqTWKNcuEp2JS86DVPXkQ8CEdlyfxy7B0s1FVEgsl0la/xZhndnLPME364MGjzs31h10Re6u8OFjv0Wlnz5/A7Il5xszkgO1qhImeVe0AGoFtINi6oJRRiCFaykFEcxHcOhhnFZF28Tm18klfEm3kaR+ErPINNYh3ziBs4hTNqwlgYN7sBxs2qg8qZ9XCkfwC2PrbCc2CqtKnKmQfb/ER+wtxy93rFfmkcdrF6ah4Je8GMP4DJ+Fpr9VFrHkKdcZnOn0RmbPX3nEgR11nX5pCwk/hlzdf8D7K3RGIAS8oAS63R1wgpHqHFzWYFdrtE8lEjkqMlgpjG3/0MPxXPN878DV9HwVE806FtKLjVQUfC8aIZjyGoqJ8Ck0+bDZWz6rH56mH0pHEc0W4977fB5gefdd7CCzETPMhaZMbL/C2PwEts2S7mI46Cg3fzcxyvk/prfNFbPik/x1e6ytH3w8GDf8hD6uYm7qvxaUhwEEvKUxrRN1QczFjyRKOEc3qdSoRAUwGtQN6IStDwmQ5y8LXGs7XEV244GF66ABmezMOKE/Adz/NWm8ya6mY6mw9B45Lzof7ys5h2odv+jdu4EZkf8dV8E2vmRjerp8xFjDExeY/NQqtrOh9UOm8yxMvXZisyqyfbpOJ6TVgpfm5PE8SUtXjT3fnF8SIj92cXy0n9WWlxELv52uyJyEEU3Ivn60IEyEMCsS/NeRIC2TrwLFDYiFyceMGNjGzjBoyLI7EK83IdEguNTSyRlyh5Lg2hchpQ33jVQqi/bJiNiFiBUxKHVjH3TK19gyM/3werH+nwQrnT1vpn4rKB7g25ZPaJkRiLIXkZ9jLgi12om+5zCl8wrP6GQ3HtUj+qefN10oiu9OSTAKI3mSahTp4QAbJMg9Ka2URr9fGiUzFQFmMk1ooX4wjEEIwaXw4T59TChNnV+F8NHDrQDxsffc2yjBpM4gcMXXuu6OIbnMyNG5MRQ26NS4bRiMueRS/LjQAkZhYPVR5b65Xj53WRAtAy4OIiW8NYH2GzX5xnzDP4OD5PbC/VGYdEPBIzBxmz+ZJBFEcxSUo4Zc3XUyOmQA3QisfrUEgJaGtyDkkyfk5hwyZQxIgUEYmIxXhkaevREyqg5txZ3HTUeBXV41ltt73vdsCG+1/CpfEhjcUxvsl1Ii7Z4uWf9FTellvjp4s3Ys/GNtiy7DkqKl7GReNHtZJYYsNzjW+NmeZm8cmWLl7zJJkT5+x60TkP3xvyD5wSeIop+GpDeJoPqeVK7RsJ0Sbpp/mLkN04boRFU29EAYiD2lzGrLPqFTBJMhAM8dEeF7IO2OJHcsOj0fyJt8jJbuoZM2D+7ReTsOAVGhHV8YZz3BCTnJmHb4rF06JRTCGa4iU8SzVi91t/gvZnXmGO3tSWH+XGBDQvtrJ4OTq1sVoJgHElJc4ZNJVjJMvykFwsTxp9DyyejjywHmcRpu8NG5BOc0rZ8NJsyCyqu8RFWfMNciKyHQcLycTJlWxEBkgVVGWhgMnikbogrvHwDMRv6gJsxL+9mFEL3fautxORtFYUHa0RGNN4pPnahmb9GU95cSN+Qr4j9n+wF3rbdkLvn3fgiP9t2wVDhw9pY2h+TDbioRxsE4wrjXHNyc3W7GJ+JLd82EjziTaYTUlHdrhwe8UQvXDK8kA3xErYkEgEgol35ktDJE/bJOOSccTFuaGs+YYXMaISio1UZt0bAK2gBGmJGGmVIbFkEqhnQcqX7VCW0KXXgkn+U888ikY0/p6sciU4lHFIzzvwE7nY0D2b9xCMn9MII8tHw4HWTjh8cCDg5dQjmbvy0Jx5SPs5Ly0NGjkPtY0xOR/FI84hP5nT3faR5q63Ofkm/ON4bCQ+Gbt438nO6ihzwmRYWlqOOPNcfI9Q1vx5bES6XGiFUrEBpPQcwAsWEyAwWysWrTmG6GSq+BEGy+O1JyJ41WeeAPO+8nEyK3jxifgAfUekC/HZvzCHDH9y0dis07zDBqbxxN5sM3iiEB5kmsFL+uMKL6ubzOkuDUdjyIPldFNMP73cJsQLdWAH8UFuxlukFtdiqL/nQFaF9lC8rW60sjxNloBAfum47IPCsuYbtREpKRJYciXXBGEJRH4cyUhbYkZAfMbPmAyVteNgzJRKGDNuDMc9MngIDu7uhb4dH8L+tt1kiJfhiz9/Ryz1aKZGVA6EwPnE65hflGvihEEb8hs9sRIq6iYz3JGBATjQtivCS/KjVeCrcVVGgzVS4ENSq4vWSeNWTKe/0EyDspEjYHDPPji4rRMG9+1jHuRDV4Iv4UQ5sl7tvCFYT5ohGFNTDeW1tTBy/DgYMbYCjvT1weH9PTCwfTsM7t1DRolYspb+EKXx5hXebJ+jvO1D7XHJVrlH9s7PG9EcyUiT4qHQp8xtFdyDKUHUi8gIDkHNaY1Qf8GJUHVqHYysGEWOudfh/kOwd8MO2Pm7LdD9dhvyEbypp0/H74iX5Pod6h2A3g5rYjMTDuvvW8k4U/7iBGi49C+FX8TbrN+7/wV+7M689iKYetZcE/PY9ov/ha7froOp582HqWfPS+hkIbH62ndB54rXWTSmaiLMuO5yrQeJrCY4xfgfvLoG9m/cCmOqp0DDkkUwYf4c9kvfDrS0Qtev34Leza2u8kMjrrfm5DqyRhmtJ55xGkw65yyoOGG6Y6QnvZs2wb61a6H3vfdE5XutvB2f1Caz/Y5kqLPTXIDwnsZyBdo23xQezRIjB5yTkUAhgNh60plAQzBlXg2ccuOZUNkw0cMezaTlybWw/fX32aXmjOKP5mK4a772OBei7vx5cOL1F+aavnvPMzD7C5fC2IaqjE3Hi6th56u/h8ZPnQf1l+a/0O7ZtA22PELvEQEqGqrhlG/elMEywfYV+N4Ty9hw1SITFR33rv0j7HzxZTgyMMj52J5l94RgZH8q58yC2k9fAWNqa4pix8q+zZuha8ULeCLLB5vj6P6SXfIELtCIQow/APRBkMvstMdIaHbNN4dHcyYZNjIn63BbExmZeyNS4uhj6xmfOBlOvvY0JXFsgzci4tbQd8QvffyYgNZ8/XHmVVuiEft390B51YSCMTpWYiO+MsxG/Bm+R8R6cCP+fX4j0j+QGFGOX0+O4jrYsQPa/v0pOHzggOxj3CCEE+3B5HMXQO2SK48CPZjS15HtTyyH/o4OiaONLfhkF3oh77TjXuA+EvvQY7qmAa+ypi+s9H8Yy/aeVNS9rIjW7KkNpzoRhcasX3gCnLr0HBIf18WN+Bs8ETFOzRkzsREvOiY8b8S/whPxuvwTsRh4x8o1sANPxGlXnlv6RORGpBNxKpxSpBGLxSumG+jaDZt//HA4mXgfuEzqNgQTPjYfGq+/uhhMSR19f+xc/hgMfrALbbXxLJb3CsGEvXdQtLNDiWVor65qomuy40ZkbQSka3Gy4DEIysjZiBkJJTZqzAg4/54rYfSEcud0rJPNT/0fdFIj4sUn4m3H2Ih30IkIUEuNeO0FjHe0t44mbEQ8EafRo3nxglz3/S3boOWR57hJxjZWw9y7bsy1PR5F16tvQNdrv4kgwsaW11bDzNtvg7JRxb+PR8650/72duh4/JFov9U00VjWEwYT9ZOJYntpLscsa7qFTkS6Ug2nTRU3WzhWoyDsnFxPu+hEmIffCz+KqwUbcfsb0XfEY27E5Zz0cTcin4jFG5G+I25+FBsRC8An4t35j+bjrdHmex/C73H4S1f3gQZqvlm3Lz2q74SleHzwq+eg550/SBjqlSiezQmDxQymPaF2hs9L7S2R4YcHhWVNt+Y0ojUmjubMI3mnm9TXpByCM+66EKrm19Ii9zo8cBh6WnfDiNEjoGIqvsqZWFHQtuUp/LHyxkbW8Y+VY23Eb2gjLjzlOB7Nq2HHa2/DtCtKP5q5EbFgFfVVcMrdNxfM7aMQ7v7tWtjV/DJDyf4MweRzFkDdkiuKwve1tsLe1b+DIwd7YdTEiVC1aBGMnjIl12ewuwu2PXifNpo0Ge219Ia6YR94j2j/GCcHRkE43FBqvdP0xVQjEjh7FwqmXW5B0nYSFS740RVQPnmsx05P9m3thnUPvwkDPQdRFeKNrZkA4+onQs3ZM6H2rJnsxo34ZtSIS/MfzQe2dUPr82s9nNLhGPtatmNeQ1B73vAbsbezGz58dytSxLxHjIC+7V2w550WmPbJEo2Ij+ZwImIj3lW6EbtXvw1dr6+FwQ/3wZhJE6DyxOlQc/FCKK+r9nwKTY4c7IeWf/kpHBkc9CaZ+dWlUNHYUMicZXvefBO6Xn4l0TQjy8uh4aaboGLGjFy/juU/g4H2baiXPqAm8hrrJDSZ2VDj0aVrnbOMbyIvSzQiKhzIOjUGiQNTA5EuBtNglzx4FZ50I9mz0O39/8TH7eotqrJkkBBj4YBxRo0dDbULZuJL7gOwB/+GTLqa0/FXc5FG/HDjdnh32SqF0QRT/GrpRLy2+I+V3vYuaHv+Ddi/dQdytA8K0RXMYTcixuYTsUQjbnn4v/Dv1J1eSynDEL5vLYfZX7sFxlRN1loVHjr++1no2fA+511eXwOz/u7LhQ1R2re1FdqfeIL1HEeC4Rpf4E+aBDPvupt1hW771q6G7lX4PlbrQDbcL44heye+UiuZa2rml+ojIl7WtHQle8QNGHBTzUYOjKybnAEW+cU/XYIvhfO/JHf/qRPWL18NhwcOIaA1IgHbpmfxScuP5i/mn4jeiExSMMgvfs3EJ2KRRhzs6YN19zyJf0PuJ9ckP+RKFzfi4iLvEelEfEy/I9KjuUQjrv8unmj4qkQuqwfGwjzGTm+A2V8tfqLufnMN7HrpVd6bqgvPg5rLFitWdtj+1NOwX19W+56zmcRtuOHzUDk3+SLfUPrb26Dz54/iUvdHmsHX3FDWE4pJQ/q3Be8z6/WGONKINGGZbh6vNZgBs0FUJLXnIN5M4rPwu5dBZV3y3wrGcWk+uL8ftjz/Duygk1GCo1TxdcPjNZlU0wvtW0s04kPRiai4VnB5NOOv5mvyfzX37dwD7/7r08wFb8jNcqaF5MffEReVaMTHrRHx9c2dxX+sbPj+A9j49DUFr0Q8WZ9w42dhwryTWF3o1retA/786BO84dNvvAbGzT25kBnLWu9/AAZ320tqyUfqL3lWLV4MUy4oXOMhfPy33vM9xBE/3zZGRhkLbA8DBau/+/n+RjZNtzUxqp0abkzBEDiAoJMXSYiQbaHvk/NvOhMaz58VohSZHeobgO51nbDjrS2wt2Wn5KKxGZ99JblqejSXOBHXYyMqCHom+VEufCJek/9o7tuxG9bd+4zkrZX2GmgBp12O3xFLnYjUiOhfUYcn4p3FT7QNP6BGpBNY6iphpf4kqzr7dPzLy+W5VTyM7/o2/fNPOO2TvnUnjByX/J+5Ysc9q9fAUD/G4iC2j2JBovLp06FyTn7Tty/7N2zkboUUjs6XpVZzNcGB6xfFS9oLlbKmL2kjahGo2egyZ98ElloQS0AahAuogWgYP30SnPvt/McDQ+XcOt/YBK0r3wH6u3HcSIRbTS+0b8lvIno0r38YG5GuiI9tMI11C/FE/FzxE3HdvU97/gIV8iXcaZ/E1zeX5L9H7KFH83I7EfFPfN8o/h4xNCLxjmpKwZFzBb4TnHPHUl7l3d77xx+yat73vpNn8pHIO//jcehva1Us6xVaao2cv5rgkD3kSGh6xfBG1AZkQDSyBhR7NOaJFimydT3hRiRmXTYX5lz1MYt2VCM9tjc+uQZPyvbAFxOtOR0b8dYijbgJf6w8/BLGCpuZPrHrzhtmI2qOhfJrHFYj/pI3oKIeG/GOEo34wwfhcJ8+miPuUjTMBUmc+oNvFa1hy7338/fMud/+ZlG741Xu/AX+sHp/Q4DxPddGRE2iZrSO+oWUojcIa8QvF380i3lowGSQIHc7jzIE829YMOxHtNGKx22vrIfWF/+IIiFbcyY24s35p9mH1IiPxI1ISVuBcMSC1J07jEb8MZ2IeBVoRmqKRno0lzgRt/z8l5xKRT1+RyzZiMuwEfvYnj9EHDzwpuW879wJI/BXdN619aHH+HvmSXd/Pc/kI5F/8OKvYP87v4+wwofehPLhp1Uyh9CBIo8PibKmrzSFv6xoAXhQkNjYgOMOZ1vv+PTGA8xcPBdmf+rUoq9zLIFC49YX/gDtv15PwPK35mE1YuAR+EvydfQe8er8ZqYfK+t+oo3IhLRoNMc8Kd+SjbgZ//XNcmxENK6oG0Yj/lOqEaO41pinfr/4ibj5vmX4crofTv6H/NcvDHuct10vPAsH1tHhYBfWhJuA6kQTa0zSS+14RBWbkZjkvhab/wcAAP//ynADigAAFPZJREFUtVp5jF3ldT8Tj7fxMmbz2BjHZrFxS0JY7RQVggNEiUSTNiGopWmlSqElhNCkTZqEFKWRqpZKBJLSNkFRISRpIsWEpVSvgCo1/QPVLDWFgB0wQ0zBO8b2eJnxMjM92+98595333t2S67ke79zzu/8zvKd971l3Ne6oTXZR3JN6l2efaYIXZ/YVMc2QfUZVvXuBX/zdbv79M+cSgtXLaHFly+jGScOhMexLCYOH6Unv/YgHR09TKecv4RW/N6vd3Tbu3ErvXj3Y2q3ElKensvQqrPp9Gs6c4xu300v3PFjrtN863ULzakfWEULVl/YMY99w6/Tq/c8oPYZQyfT2Tf/bkesGDb89T/Q+MGDism9htPUubNp+edvhNj4fPm2r9PEoUO04qu3NNrfLuW2Nf9Eoy9vKHQ8C9ZrqErfoodqSjjfC/PzPaoMYgb4WjhAWJokWgylreUOnKxlWHMgDPiJK4bohLPn06mXnEH9M6YqtNdt45onadt/vnKMg/g406XYlZomSQfxY10GcUdtEDU55ks8xzKIwzyI4jJjAQ/iZ3oM4m21QfSY8hCOOSvOpMXXfUy1nW4//9pfqWnZFz5LUwY6v9j3rltH4/v2GXGFzAeIdVqq2PzAybD9P/tvOrp7l6m8Jyrw2vzqPMcwmBKq9anaiRgDJPQ+rR4wAtmCAyMoP1kXds2sunngwoD2z+yn0y5bRgsvOZOmD85Uj063Hes20Us/eILmX7CEzv5E5yGyE5EHMWpAE8pgDq08hhPxznQiSlLg84059aqVtHD1RZ3SJTkRh++1E3Hm0Ek8iJ/oiBXDhjSI6FOfx5KeLrz6A3TCxed15Diyd4SGv/F3al96/R/QjFMXdsRue/AB2vfCC8le9kmUiFsA6J1obJ/NlvWsQY8wEzEP7icQ2JQAcVXgQbwRg5gcdKLKkOGtuhCZTeWExalh1EjUn97YkrDFmzZ7Or331qvpHdOmmFvDff/m3fTsHS2az2/N3QbxwJa36Lk7H2EGFJnyFF7OQQex14mogygO9R6YvEjemi/v/tYcgygn4k09TsS/KSciYmpbOf7UObPprJs/yf2ZJgk1XiMvrKctP3lIbUMfvJJOWLWyESfK/Rs20Nb718hU6NW2p9gnM8c7gYnoB9xd9hnQR147R9RU51a7cfAg/iuvsHFiqa5F0ynZ0HsAq22STrv0DBo4eRa9/tONNLan/bOP4SyW3Jd99HxadOkyWTZeh3YfoKf+8qGegzhxdJzW3vKDkm/k5cVybfPlROw2iPIZ8RtyIsqFRldfTHoiXt7lRHxVTsQH1V9PxJu6n4gv3fkdOrJnr0bEDS/ypb9/Lc06YwnUjc/trcdo9zP/pbY5K5bTomuvacRBueVHP6QDw6+oGHsotXLRsTe68LrZ9o6ZM2li1PaygvMeBY8T2KP0T4IFBomo0mL0tT4tgyhXtdlBxItCYFCVFQDZ/V33ztXLaNlH3qWsuzfupJ3Pb6Ydz71BR/aNWRwj1/WUaf103k2rac5pJyi+6Tby2pv03F2P0byzhujdN1zZBAndjqc30vD9T7iM/LxEHsyhi49hEL/5Y/XPdefT/u0exCMj+2jro/9OI+tfjjqmDc6hoaveR4PvWhG6Tovhu75NR3a/peYp06fRmZ+7uesJKsDt//IIjTz3bMPeehTfy9m/cg4NXriSjh7YTzseqr1AFcq9ZWzplfvzI3TpJAydwJJfX+smG8QAeAKG840MovaNdT5+8CC7rw7ih20QxY5rz6tv0p7hnUQTzjOljxZcvLTnZ8RtTw3TxjVradqs6bTqL7q/2iXW4ZGDNPbmiIadcfJcmjZ3gNZ+6R6V51+8nM7odSLmQUzNkrd2uRZd2eOtWU7E7/qJOJ8/I/Y4EZWUb4d37eYX636aNm+Qps6bC3XX58FNr9H/fP+HjMHeEJ1yxWo68ZJf6+onxomxMRp9bRONbdlMh7Zv1S85/bPnUP/cQeofHKQZixbHF5/9G14og5hmpMS1+BHUMfrw3MRmsiyQrz9bn6kNojKVIxnDZQxFr7BUfPnsN0lL3r+MzvqN9kE0n+O/r//uf9Cu9W9oCqu+eg1N5YE83isGcSUP4kc7f+EZlW/N/NZcebXWXoiLruJBfF+Xz4g+iNL0GfJl5dPdPyMeby0Zv/mBh2nfi+tDJQfKlFkDdObNN1Fff3/o/78LHcSH7Z1CuOLgwgzEhGHABIXh9CdjAgY/PBsHkRtvDkygzoUw6/UUlHhypQlfwm/Nb9cgjr21n56+7Z85gOW09EPn0Wmrz9GQx3Nb++V0IvYaRJyIWqzELfVLP/RE7DWI9z2kfjqIN/5yBnF08xbadM/3tA3l2671ad6FF9DQhz54PC3qim0cRO+PONpcyMp6pXK8gEUvGPRRJMc5R1/rZpyIxZhPN9HqEMDBZX2wrpAjAT8Rr357TsTnv/VvtHfTDg/HH5qn9tNFX/wwTZvT/ScfdUi3tbfcyxJ/WZG35t/qcSL+7Rqry2s2Grw4ZRBX9j4Rf8mDOHHkCL169z/yl5w9ml7bPnDui679OM1e1vlLYGpPz+UxD2LTnIA9DjhRYF7MaIOoA1WMOngixkT7JgSRkShECNOGSUP0RHwbBvHl+5+i7U8PSxi+MAiTdPJ73kkrrrvU1MdwnxyfoCdvvU/rGVq5gk7/yCUdvcZ27qGfyYmoPZE6EVdcrFY9ES+7oCPH/l+8Qa/c96AO80z++Wb5Ddd1xP5fDJPj4/T6j9bQAf58GPmlvRJO2ZK+/im04Oqrae45x/8OIhz5ahvEiGcofSFIUL1sPlRswmWM+/S1/thPRFUYQRQnjXcnfFY0clEiWMGIVnALL1pMv/rbnT9DCa7bdeTAIRp+5Fna8ewm3UzFekF45S+56t20+Ipzu9FUbGu/cq/K8y9a1vtEvIt/Z+OrNBfDaLUuuuIYTsTvye96kzSDv6ys6PHWfGjnLpp+ykkas9dNTsI3fvIw//zS/gI1X+TKkvds8Nxz6ZT3XxFfPHrFqNsnOeaunz5OI+ueDJPPD8u+/xyrXSc9lAszwnKHwexrfbbhrZkdMXjK0yb7JrExAukCfsRvndNo6D2n8b9FNLj02Jp8cMcIbXvmF7T1qVdpfOyQhsbgoRgUIvqBBfNo+ccvoVmnnmhpdrjv2biZfn4f/8WFryEexNN/s8dbswwi19MWWxrKeh3Eyzq/0PbJl5Xvp0H8VPfPiBvuuJsG+c94J118fseBnDh8mHave47efGItjY+Och7YeH+mDW7Pm/gjzVQ64b2raPCCC6l/1uwOnaqqj+7dQ3ueWUv7nl9Hk4dtP7AP1h/BY8jsafPAasyDUjqm0lM1RI95EB9lFAYIZPx0IoOL6GS+GRYQOrZ7Iyo4yYf1M+bNpFlDc/lvy/369+Up0/nJ/ywG0ejOERp5fRfJFxNc4METr+72OETT5w3QwCmDNDB/kKbI3685ufGxw3Rw224a3f4WHTlgv18Kd/BFHagBGyqosskiRWwVajbBolfWlIghseREPLvXIH79W3SU/9ODuM9ZfibNXDhfIzkdje18k0Y2vBS8CsxxK3mlGj0v8GBoZgwN0cDS0/23Rq9/cpImeNgmDo3pf54YP3iAxt54TZnVj0nqPGJs76e76KPWq+BAz91f9K3PPcr/+8YNbcMkbGi0reVuCbGPLlIwDYQg9gxucQwu94lXceJQXEqwY27gZwfmiZzEP8mmN52awOfPnB+GPPuLj+ZtC1t73aaq1+K5i5HzmCn/++aPun9G3CCDyKdcpQZxR67ep5Cdu4rnPKJYAaAniUf4GNPmJ3C53L/EMbxwJbOu8166ImEMX/oIRMkJnMDoIIogFxIsBUFfiCs4FdwWhRdZzc4t62gO6xAr9KqAr+TCa9dlbAxL5sux4ZP4Kv7eVG0EG0rTPT/4O78+Il/DyL34YQAs3xxLYhzLIK6/nf/WzD8um6+QWx9yjErMnjkK2nN0bMiqFwm9Rv6isyviNu4dUNhDkT3fKCBxA65P1jPGYMAYoK/1J/bWXABeABz5GZsfDRIjEgGhy5E87EJgmChQEteEar5CG0W5reZbOAyrRTEmitMF5MTXEFOsFT7w4Om5lFoTX87LgrMRcUtdA/Kt+Q+7n4jr+USUz31WS4qR4lf7ZZhqzdpSzUGsVbzlY/wlN/jbU73slmvLatebymsNZ9QuVsTgZfTSvGBDbNWy0Nf6Ux9E8XFsDJ4T6mbBmJodn43UD4lwEoqFzGIUgIYg0Zqc/ZKPhU7YhlzqjVeI80l6GDg8oyERR0DIuTy1NOZp80NvOvirH2MG+K255yDezoM4xoOY6qrXI3xmRu9YzrFjXwRY7xVkYYE/ajTiUl/BVOJpD4pNeEq+Sa84xBB97p1IzX42iBYxmh1J5YKM0Yhk7QUpVv1RGCdR46tg2fN4+EviXZqJPGNjkEt7nhE78ndMrgF8jhFEm5/jxdZxgNk0sOAkWn59jxNR3pr5S4JSJt5KTNarSQN26EUAYC97oX1UX8tXlgY3bMUudfeKl2IFj+tC9nhaR8KX2LLyXFuff4xXCGzKMDZsSEnYsYzBydiYgCbTgR9JeHyFCp/74KmiY2WNwmKj2vJ0DiWwPAObYwpXwuSBspgeq45DDgLS2MhZ+NBDMfqJeP3viNDxevH2v9dvquWEQf7gKvyFhHU5d45l/RKE15xzYWPpgWEM7zHa7BnPmCDPcTIPr2MfRC8XuOs+Zov4Erv1BRvE5qK8IJCqJ0jrQer6WiHMURrhvJkvmlbjkQZnHHIBn9pEKTjPCTZRi16ftjYBuvIEKHKsNBU45+CH4jwv8YWfxUIe8mWFf77pciIe5v9dvfHu+2jy6JHIUjdQOXM8CQreEi82G3UiJ2XzPsu6xhd9aeQ0PLhRm1KqyfPwWPqAUZ/oF+NSPlVcFWODyMkYCIW6XNsMiVE2G0UiqTpHe7OKr2VtcoNfNCfHAE6SgN7WJXfPRelRQ85DDOARbMHoOjoFHmAZWutRbE7OhfnQeOSknxE/aSfi+OgYHdyynQ5u3UYHN2/l9Tb+z6b847RfhVMUlkPXF6HA6vFFpxdyR07tenDDok9OPPJADgA0xkIcB2nhnrv7myXhHGM9Mmtf68/8RBTZA5UNMkI1RVIorB4MsqAN016QYQQhG6b2SlI1DgVKAeATha1lVeVnnFdW9IY3tcfmGisyeOp5sFznqcfMG5nX0T/OdersAZpz+mIdukNv7UmcqBV55VxlLRdqKhjkhKf2g5FRky2K7Dz6UBxzea2mQz8cUanbsE7pAOCRk8iCcFlRtg6/XgMsMVtfTIMYZGiAsCIZkCNgTe4aLPMZZ3XjXCePevNFhl6eKnjs9MIxE3ISyfNsG7zCJyjhi02NGsDjHApEDdBVMZV62mKWGBor1+Dc+rB0+O4xMo81oeTqGLzLuNlp6jVCFjPyL2v19dpFG/1QIfuaTzve9HKXfiJGyQm9cptj8gCXQUwEQmSNzaQgK00Sa0kadlE6JtkrGyX84oymsJB5qjZgDZ95so9YVVYuw8pda/GnPqI21FGNLRjw5liNPApOdUs9tVo0ZtKBW/XRBwla41EAajdeUWHw0LtKr8SuoOQnMvrMq2qPqrZKjUYsgOiHCtE/kwq3x1S/XIvg0Bdfw5Wf6Edf60vpRIwBQiHFsb0BKVj4lUItFnjKU/WML3WCx54oDPHQuDqfyMCET73h6sSxUnMEW4nNQokBG3ISgpJXNx7lxDClfrTFk7yFFtjgF2U1vmAsV+QgNRtO7nKVHohUx7uc8sHGC1ouyFXeEi9jLJliq+bGsUyhvBU/qdFtBQIey7Gv9eXHyt+a0RRGI0FsRJElBIIaWS7CAqUgqkiypukN8rU8SkOd03MpekHV4iJfYOUZlSJGla9wGJ/cEaPU6D4dchcf5ZFHwqg/y5aCcRikc17Bo8BqzmIzf7kbh3Gz2G2QOw4e+Hv4Szi54oUgQqlHTZA7xpI+uE/CmG/msz21QQxgrXDBOxk2S1V8qwdB8/NQii/05udyQ4HtfJ6LEqAJDXxutzgSpQFbwYDDsWxD7FJjcx+UJnpV/KK2SIL9M68CankFTy0fxiIfDJu4h07XckOO4BUUc2kORWcpsey5FZ4Gf83ZeORe9s8k7W0HHkG4KXJr9BecAqs59rVuaT8Rq8DcKGGBnAqJDKq2SKSh6W0NSRipqNjzut7oEi9SkEGs+KPgGlYdvIYUO/PouoMtGh/2lKfrUEMzD/Jq8hN22D1HUclV444eqxH9UYFvpWZMCXICf3WvtXXqpwwcq/SjcMqq8KhQlSN350s9KjkJC2pknA5iAHPRDuJMKkGlOM0OSSYyIXabhClBgYEPm2oN1RjJN2LWYqkYBThfpWEWK/wdW067VE/4lfwk/xyjbZ16ZTarU+6NNdT4Kj1xgrZchUwv62fOoeLfAZPz0nXkLA7YA+9TgNGD3B8NkHzMX+6YAVnLVc/RFTW9ID1uOLnc+oqciA7wpCqNYV3YHQdZn3oDOYqpyd6Iwuvx+IEBCVsHbMRM8UpTE58Uypjgi8I9N/fXB8fSp9clD5NRhyiAKU+Fx4YaRnSNMSNA8Y8Ybgu/uhy5CztyYh7FQT6enAtP6bvocIHTc/V8GvucbPDujAMvkJnfbH2tP5dvzV5MDIFo4FwaKNq8MSqq0sngEzyFw7CQqzzVxiKeeDDem251wwaehoI8h9hcyJ6TsJYahB5cYmC+WoOLPcWu5GR+cs9YyRs5i61sEuKVWBgKwx0vD+O75BycuX6pEwb0R+SEKbWIIeErGLPJHZfyBib5KQC1S85Y27OvdevjvHIhgTURZQVZcbQiIBfSkjz4gOEnO1X9mLeJnxM0nCTTwCPqhCkxDQ+5FOr6IAVn1pc8A5Zje57iAf7qGvUVHrPL3XUpZ+gslvlmvogRm2U8wJfBy3pbB08U0t7PKsbyA7fY5Aq5kUcQ8Cv5V/xEYIy6B4fp5B41isBXDGJxSAEUgkJMX4bAZSHJSbmPZAB9JK1B4Icka/xIHjzC37ghAgCHrUNGPileySX71XIRPvUBX0MNwp0wtjSeEsMw2SaMxe45JJ6q3fkqdXfqQ3vO0W8h5UvjpljVvJC7AhVf/M3mSn2UvUh+aklyJe+kz7gKhuh/Ac0cMieBVPZIAAAAAElFTkSuQmCC;" vertex="1" parent="XZvLHF4rB5YBOy9yUA8D-66">
          <mxGeometry x="443.36" y="124.05" width="133.29" height="55.95" as="geometry" />
        </mxCell>
        <mxCell id="XZvLHF4rB5YBOy9yUA8D-83" value="&lt;span style=&quot;font-weight: 600; font-kerning: none;&quot; class=&quot;OYPEnA font-feature-liga-off font-feature-clig-off font-feature-calt-off text-decoration-none text-strikethrough-none&quot;&gt;Account/ Profile Management&lt;/span&gt;" style="shape=document;whiteSpace=wrap;html=1;boundedLbl=1;fontSize=20;fontFamily=Architects Daughter;fillColor=#dae8fc;strokeColor=#6c8ebf;rounded=1;hachureGap=4;fontSource=https%3A%2F%2Ffonts.googleapis.com%2Fcss%3Ffamily%3DArchitects%2BDaughter;" vertex="1" parent="1">
          <mxGeometry x="200" y="990" width="181" height="80" as="geometry" />
        </mxCell>
        <mxCell id="XZvLHF4rB5YBOy9yUA8D-84" value="&lt;span style=&quot;font-weight: 600; font-kerning: none;&quot; class=&quot;OYPEnA font-feature-liga-off font-feature-clig-off font-feature-calt-off text-decoration-none text-strikethrough-none&quot;&gt;Inventory Management&lt;/span&gt;" style="shape=document;whiteSpace=wrap;html=1;boundedLbl=1;fontSize=20;fontFamily=Architects Daughter;fillColor=#dae8fc;strokeColor=#6c8ebf;rounded=1;hachureGap=4;fontSource=https%3A%2F%2Ffonts.googleapis.com%2Fcss%3Ffamily%3DArchitects%2BDaughter;" vertex="1" parent="1">
          <mxGeometry x="392" y="990" width="120" height="80" as="geometry" />
        </mxCell>
        <mxCell id="XZvLHF4rB5YBOy9yUA8D-85" value="Nutshell: Website Flow (Frontend)" style="text;html=1;strokeColor=#6c8ebf;fillColor=#dae8fc;align=center;verticalAlign=middle;whiteSpace=wrap;rounded=1;fontSize=20;fontFamily=Architects Daughter;fontStyle=1;" vertex="1" parent="1">
          <mxGeometry x="-1010" y="147.42000000000004" width="355" height="20" as="geometry" />
        </mxCell>
        <mxCell id="XZvLHF4rB5YBOy9yUA8D-86" style="edgeStyle=orthogonalEdgeStyle;rounded=1;hachureGap=4;orthogonalLoop=1;jettySize=auto;html=1;fontFamily=Architects Daughter;fontSource=https%3A%2F%2Ffonts.googleapis.com%2Fcss%3Ffamily%3DArchitects%2BDaughter;fontSize=16;startArrow=classic;startFill=1;" edge="1" parent="1" source="XZvLHF4rB5YBOy9yUA8D-12" target="XZvLHF4rB5YBOy9yUA8D-68">
          <mxGeometry relative="1" as="geometry">
            <mxPoint x="1453" y="130" as="targetPoint" />
          </mxGeometry>
        </mxCell>
        <mxCell id="XZvLHF4rB5YBOy9yUA8D-87" value="&lt;h1 style=&quot;border-color: var(--border-color); text-align: left;&quot;&gt;Closed API Implementation&lt;/h1&gt;" style="rounded=1;whiteSpace=wrap;html=1;hachureGap=4;fontFamily=Architects Daughter;fontSource=https%3A%2F%2Ffonts.googleapis.com%2Fcss%3Ffamily%3DArchitects%2BDaughter;fontSize=20;fillColor=#f8cecc;strokeColor=#b85450;" vertex="1" parent="1">
          <mxGeometry x="1050" y="457.59000000000003" width="537" height="63" as="geometry" />
        </mxCell>
        <mxCell id="XZvLHF4rB5YBOy9yUA8D-88" style="edgeStyle=orthogonalEdgeStyle;rounded=1;hachureGap=4;orthogonalLoop=1;jettySize=auto;html=1;entryX=0.115;entryY=1.081;entryDx=0;entryDy=0;entryPerimeter=0;fontFamily=Architects Daughter;fontSource=https%3A%2F%2Ffonts.googleapis.com%2Fcss%3Ffamily%3DArchitects%2BDaughter;fontSize=16;endArrow=none;endFill=0;startArrow=classic;startFill=1;" edge="1" parent="1" source="XZvLHF4rB5YBOy9yUA8D-83" target="XZvLHF4rB5YBOy9yUA8D-64">
          <mxGeometry relative="1" as="geometry">
            <Array as="points">
              <mxPoint x="330" y="808" />
            </Array>
          </mxGeometry>
        </mxCell>
        <mxCell id="XZvLHF4rB5YBOy9yUA8D-89" style="edgeStyle=orthogonalEdgeStyle;rounded=1;hachureGap=4;orthogonalLoop=1;jettySize=auto;html=1;fontFamily=Architects Daughter;fontSource=https%3A%2F%2Ffonts.googleapis.com%2Fcss%3Ffamily%3DArchitects%2BDaughter;fontSize=16;" edge="1" parent="1" source="XZvLHF4rB5YBOy9yUA8D-10" target="XZvLHF4rB5YBOy9yUA8D-64">
          <mxGeometry relative="1" as="geometry" />
        </mxCell>
        <mxCell id="XZvLHF4rB5YBOy9yUA8D-90" style="edgeStyle=orthogonalEdgeStyle;rounded=1;hachureGap=4;orthogonalLoop=1;jettySize=auto;html=1;entryX=0.336;entryY=1.099;entryDx=0;entryDy=0;entryPerimeter=0;fontFamily=Architects Daughter;fontSource=https%3A%2F%2Ffonts.googleapis.com%2Fcss%3Ffamily%3DArchitects%2BDaughter;fontSize=16;endArrow=none;endFill=0;startArrow=classic;startFill=1;" edge="1" parent="1" source="XZvLHF4rB5YBOy9yUA8D-84" target="XZvLHF4rB5YBOy9yUA8D-64">
          <mxGeometry relative="1" as="geometry">
            <Array as="points">
              <mxPoint x="452" y="880" />
              <mxPoint x="638" y="880" />
            </Array>
          </mxGeometry>
        </mxCell>
        <mxCell id="XZvLHF4rB5YBOy9yUA8D-91" value="&lt;span style=&quot;font-weight: 600; font-kerning: none;&quot; class=&quot;OYPEnA font-feature-liga-off font-feature-clig-off font-feature-calt-off text-decoration-none text-strikethrough-none&quot;&gt;Transaction System&lt;/span&gt;" style="shape=document;whiteSpace=wrap;html=1;boundedLbl=1;fontSize=20;fontFamily=Architects Daughter;fillColor=#dae8fc;strokeColor=#6c8ebf;rounded=1;hachureGap=4;fontSource=https%3A%2F%2Ffonts.googleapis.com%2Fcss%3Ffamily%3DArchitects%2BDaughter;" vertex="1" parent="1">
          <mxGeometry x="660" y="990" width="120" height="80" as="geometry" />
        </mxCell>
        <mxCell id="XZvLHF4rB5YBOy9yUA8D-92" value="&lt;span style=&quot;font-weight: 600; font-kerning: none;&quot; class=&quot;OYPEnA font-feature-liga-off font-feature-clig-off font-feature-calt-off text-decoration-none text-strikethrough-none&quot;&gt;Trade Management&lt;/span&gt;" style="shape=document;whiteSpace=wrap;html=1;boundedLbl=1;fontSize=20;fontFamily=Architects Daughter;fillColor=#dae8fc;strokeColor=#6c8ebf;rounded=1;hachureGap=4;fontSource=https%3A%2F%2Ffonts.googleapis.com%2Fcss%3Ffamily%3DArchitects%2BDaughter;" vertex="1" parent="1">
          <mxGeometry x="527" y="990" width="120" height="80" as="geometry" />
        </mxCell>
        <mxCell id="XZvLHF4rB5YBOy9yUA8D-93" value="Serves through Cloudflare" style="text;html=1;strokeColor=none;fillColor=none;align=center;verticalAlign=middle;whiteSpace=wrap;rounded=1;fontSize=22;fontFamily=Architects Daughter;fontStyle=1;" vertex="1" parent="1">
          <mxGeometry x="-1019.5" y="197.41999999999996" width="320" height="27" as="geometry" />
        </mxCell>
        <mxCell id="XZvLHF4rB5YBOy9yUA8D-94" value="" style="group;rounded=1;" connectable="0" vertex="1" parent="1">
          <mxGeometry x="-1390" y="-510" width="675.12" height="580" as="geometry" />
        </mxCell>
        <mxCell id="XZvLHF4rB5YBOy9yUA8D-95" value="" style="group;rounded=1;" connectable="0" vertex="1" parent="XZvLHF4rB5YBOy9yUA8D-94">
          <mxGeometry width="675.12" height="580" as="geometry" />
        </mxCell>
        <mxCell id="XZvLHF4rB5YBOy9yUA8D-96" value="&lt;h1&gt;&lt;u&gt;Stack info&amp;nbsp;&lt;/u&gt;&lt;/h1&gt;&lt;p style=&quot;font-size: 24px;&quot;&gt;&lt;b&gt;Arch: M&lt;/b&gt;onolithic&lt;b&gt;&lt;br&gt;Frontend: React (Redux) / TailwindCSS / Bootstrap&lt;br&gt;Backend: NodeJS&lt;br&gt;Cache: Redis&lt;br&gt;API Engine: Rest API&lt;br&gt;&lt;/b&gt;&lt;b style=&quot;background-color: initial;&quot;&gt;Framework:&amp;nbsp; Express&lt;/b&gt;&lt;/p&gt;&lt;b style=&quot;border-color: var(--border-color); font-size: 24px;&quot;&gt;Payment Gateways:&amp;nbsp;&lt;/b&gt;&lt;b&gt;stripe&lt;/b&gt;&lt;b style=&quot;border-color: var(--border-color); font-size: 24px;&quot;&gt;&lt;br style=&quot;border-color: var(--border-color);&quot;&gt;Validators: JSON Schema&lt;br style=&quot;border-color: var(--border-color);&quot;&gt;API Playground: Swagger&lt;br style=&quot;border-color: var(--border-color);&quot;&gt;Test Suite: Jest&lt;br style=&quot;border-color: var(--border-color);&quot;&gt;Database: MongoDB&amp;nbsp;&lt;/b&gt;" style="text;html=1;strokeColor=#666666;fillColor=#f5f5f5;spacing=20;spacingTop=-27;whiteSpace=wrap;overflow=hidden;rounded=1;fontSize=20;fontFamily=Architects Daughter;arcSize=13;container=0;fontColor=#333333;" vertex="1" parent="XZvLHF4rB5YBOy9yUA8D-95">
          <mxGeometry y="64.96000000000002" width="640" height="515.04" as="geometry" />
        </mxCell>
        <mxCell id="XZvLHF4rB5YBOy9yUA8D-98" value="&lt;font data-font-src=&quot;https://fonts.googleapis.com/css?family=Architects+Daughter&quot; face=&quot;Architects Daughter&quot; style=&quot;font-size: 18px;&quot;&gt;LoadBalanccer&lt;/font&gt;" style="text;html=1;strokeColor=#9673a6;fillColor=#e1d5e7;align=center;verticalAlign=middle;whiteSpace=wrap;rounded=0;" vertex="1" parent="1">
          <mxGeometry x="360" y="446.67" width="138.5" height="30" as="geometry" />
        </mxCell>
        <mxCell id="XZvLHF4rB5YBOy9yUA8D-99" style="edgeStyle=orthogonalEdgeStyle;rounded=1;orthogonalLoop=1;jettySize=auto;html=1;entryX=1;entryY=0.5;entryDx=0;entryDy=0;" edge="1" parent="1" source="XZvLHF4rB5YBOy9yUA8D-103" target="XZvLHF4rB5YBOy9yUA8D-12">
          <mxGeometry relative="1" as="geometry" />
        </mxCell>
        <mxCell id="XZvLHF4rB5YBOy9yUA8D-100" value="" style="edgeStyle=orthogonalEdgeStyle;rounded=1;orthogonalLoop=1;jettySize=auto;html=1;" edge="1" parent="1" source="XZvLHF4rB5YBOy9yUA8D-103" target="XZvLHF4rB5YBOy9yUA8D-104">
          <mxGeometry relative="1" as="geometry" />
        </mxCell>
        <mxCell id="XZvLHF4rB5YBOy9yUA8D-101" value="" style="edgeStyle=orthogonalEdgeStyle;rounded=1;orthogonalLoop=1;jettySize=auto;html=1;entryX=0;entryY=0.5;entryDx=0;entryDy=0;" edge="1" parent="1" source="XZvLHF4rB5YBOy9yUA8D-103" target="XZvLHF4rB5YBOy9yUA8D-105">
          <mxGeometry relative="1" as="geometry">
            <mxPoint x="1960" y="203" as="targetPoint" />
          </mxGeometry>
        </mxCell>
        <mxCell id="XZvLHF4rB5YBOy9yUA8D-102" style="edgeStyle=orthogonalEdgeStyle;rounded=1;orthogonalLoop=1;jettySize=auto;html=1;entryX=0;entryY=0.75;entryDx=0;entryDy=0;" edge="1" parent="1" source="XZvLHF4rB5YBOy9yUA8D-103" target="XZvLHF4rB5YBOy9yUA8D-106">
          <mxGeometry relative="1" as="geometry" />
        </mxCell>
        <mxCell id="XZvLHF4rB5YBOy9yUA8D-103" value="&lt;font style=&quot;font-size: 20px;&quot; data-font-src=&quot;https://fonts.googleapis.com/css?family=Architects+Daughter&quot; face=&quot;Architects Daughter&quot;&gt;wallet&lt;/font&gt;" style="rounded=1;whiteSpace=wrap;html=1;glass=0;dashed=1;dashPattern=8 8;" vertex="1" parent="1">
          <mxGeometry x="1620" y="165" width="260" height="76" as="geometry" />
        </mxCell>
        <mxCell id="XZvLHF4rB5YBOy9yUA8D-104" value="&lt;span style=&quot;color: rgb(29, 28, 29); font-family: Slack-Lato, Slack-Fractions, appleLogo, sans-serif; font-size: 15px; font-variant-ligatures: common-ligatures; text-align: left; background-color: rgb(248, 248, 248);&quot;&gt;deposits&lt;/span&gt;" style="rounded=1;whiteSpace=wrap;html=1;glass=0;dashed=1;dashPattern=8 8;" vertex="1" parent="1">
          <mxGeometry x="1880" y="83.58" width="188.16" height="55" as="geometry" />
        </mxCell>
        <mxCell id="XZvLHF4rB5YBOy9yUA8D-105" value="&lt;font style=&quot;font-size: 20px;&quot; data-font-src=&quot;https://fonts.googleapis.com/css?family=Architects+Daughter&quot; face=&quot;Architects Daughter&quot;&gt;withdrawal&lt;/font&gt;" style="rounded=1;whiteSpace=wrap;html=1;glass=0;dashed=1;dashPattern=8 8;" vertex="1" parent="1">
          <mxGeometry x="2010" y="160" width="188.16" height="55" as="geometry" />
        </mxCell>
        <mxCell id="XZvLHF4rB5YBOy9yUA8D-106" value="&lt;font style=&quot;font-size: 20px;&quot; data-font-src=&quot;https://fonts.googleapis.com/css?family=Architects+Daughter&quot; face=&quot;Architects Daughter&quot;&gt;trade&lt;/font&gt;" style="rounded=1;whiteSpace=wrap;html=1;glass=0;dashed=1;dashPattern=8 8;" vertex="1" parent="1">
          <mxGeometry x="1980" y="230" width="188.16" height="55" as="geometry" />
        </mxCell>
        <mxCell id="XZvLHF4rB5YBOy9yUA8D-107" value="" style="edgeStyle=orthogonalEdgeStyle;rounded=1;hachureGap=4;orthogonalLoop=1;jettySize=auto;html=1;fontFamily=Architects Daughter;fontSource=https%3A%2F%2Ffonts.googleapis.com%2Fcss%3Ffamily%3DArchitects%2BDaughter;fontSize=16;" edge="1" parent="1" source="XZvLHF4rB5YBOy9yUA8D-4" target="XZvLHF4rB5YBOy9yUA8D-109">
          <mxGeometry relative="1" as="geometry">
            <mxPoint x="740" y="360" as="targetPoint" />
            <mxPoint x="360" y="375" as="sourcePoint" />
          </mxGeometry>
        </mxCell>
        <mxCell id="XZvLHF4rB5YBOy9yUA8D-108" style="edgeStyle=orthogonalEdgeStyle;rounded=0;orthogonalLoop=1;jettySize=auto;html=1;entryX=0;entryY=0.75;entryDx=0;entryDy=0;" edge="1" parent="1" source="XZvLHF4rB5YBOy9yUA8D-109" target="XZvLHF4rB5YBOy9yUA8D-156">
          <mxGeometry relative="1" as="geometry" />
        </mxCell>
        <mxCell id="XZvLHF4rB5YBOy9yUA8D-109" value="&lt;b&gt;&lt;font style=&quot;font-size: 25px;&quot;&gt;&amp;nbsp;Express&lt;/font&gt;&lt;/b&gt;" style="whiteSpace=wrap;html=1;fontSize=20;fontFamily=Architects Daughter;verticalAlign=top;hachureGap=4;fontSource=https%3A%2F%2Ffonts.googleapis.com%2Fcss%3Ffamily%3DArchitects%2BDaughter;fillColor=#1ba1e2;fontColor=#ffffff;strokeColor=#006EAF;rounded=1;glass=0;" vertex="1" parent="1">
          <mxGeometry x="710" y="374.26" width="299" height="50" as="geometry" />
        </mxCell>
        <mxCell id="XZvLHF4rB5YBOy9yUA8D-110" value="" style="edgeStyle=orthogonalEdgeStyle;rounded=0;orthogonalLoop=1;jettySize=auto;html=1;" edge="1" parent="1" source="XZvLHF4rB5YBOy9yUA8D-111" target="XZvLHF4rB5YBOy9yUA8D-113">
          <mxGeometry relative="1" as="geometry" />
        </mxCell>
        <mxCell id="XZvLHF4rB5YBOy9yUA8D-111" value="" style="points=[[0,0,0],[0.25,0,0],[0.5,0,0],[0.75,0,0],[1,0,0],[0,1,0],[0.25,1,0],[0.5,1,0],[0.75,1,0],[1,1,0],[0,0.25,0],[0,0.5,0],[0,0.75,0],[1,0.25,0],[1,0.5,0],[1,0.75,0]];outlineConnect=0;fontColor=#232F3E;gradientColor=#945DF2;gradientDirection=north;fillColor=#5A30B5;strokeColor=#ffffff;dashed=0;verticalLabelPosition=bottom;verticalAlign=top;align=center;html=1;fontSize=12;fontStyle=0;aspect=fixed;shape=mxgraph.aws4.resourceIcon;resIcon=mxgraph.aws4.route_53;rounded=0;" vertex="1" parent="1">
          <mxGeometry x="190" y="-210.41999999999996" width="58" height="58" as="geometry" />
        </mxCell>
        <mxCell id="XZvLHF4rB5YBOy9yUA8D-112" style="edgeStyle=orthogonalEdgeStyle;rounded=0;orthogonalLoop=1;jettySize=auto;html=1;" edge="1" parent="1" source="XZvLHF4rB5YBOy9yUA8D-113" target="XZvLHF4rB5YBOy9yUA8D-115">
          <mxGeometry relative="1" as="geometry" />
        </mxCell>
        <mxCell id="XZvLHF4rB5YBOy9yUA8D-113" value="" style="points=[[0,0,0],[0.25,0,0],[0.5,0,0],[0.75,0,0],[1,0,0],[0,1,0],[0.25,1,0],[0.5,1,0],[0.75,1,0],[1,1,0],[0,0.25,0],[0,0.5,0],[0,0.75,0],[1,0.25,0],[1,0.5,0],[1,0.75,0]];outlineConnect=0;fontColor=#232F3E;gradientColor=#945DF2;gradientDirection=north;fillColor=#5A30B5;strokeColor=#ffffff;dashed=0;verticalLabelPosition=bottom;verticalAlign=top;align=center;html=1;fontSize=12;fontStyle=0;aspect=fixed;shape=mxgraph.aws4.resourceIcon;resIcon=mxgraph.aws4.global_accelerator;rounded=0;" vertex="1" parent="1">
          <mxGeometry x="302" y="-210.42000000000002" width="58" height="58" as="geometry" />
        </mxCell>
        <mxCell id="XZvLHF4rB5YBOy9yUA8D-114" style="edgeStyle=orthogonalEdgeStyle;rounded=0;orthogonalLoop=1;jettySize=auto;html=1;entryX=0.5;entryY=0;entryDx=0;entryDy=0;entryPerimeter=0;" edge="1" parent="1" source="XZvLHF4rB5YBOy9yUA8D-115" target="XZvLHF4rB5YBOy9yUA8D-119">
          <mxGeometry relative="1" as="geometry" />
        </mxCell>
        <mxCell id="XZvLHF4rB5YBOy9yUA8D-115" value="" style="sketch=0;outlineConnect=0;fontColor=#232F3E;gradientColor=none;fillColor=#4D27AA;strokeColor=none;dashed=0;verticalLabelPosition=bottom;verticalAlign=top;align=center;html=1;fontSize=12;fontStyle=0;aspect=fixed;pointerEvents=1;shape=mxgraph.aws4.application_load_balancer;" vertex="1" parent="1">
          <mxGeometry x="432" y="-210.42000000000002" width="58" height="58" as="geometry" />
        </mxCell>
        <mxCell id="XZvLHF4rB5YBOy9yUA8D-116" value="AWS Global accelrator" style="rounded=0;whiteSpace=wrap;html=1;strokeColor=none;fillColor=none;" vertex="1" parent="1">
          <mxGeometry x="291" y="-130" width="80" height="31" as="geometry" />
        </mxCell>
        <mxCell id="XZvLHF4rB5YBOy9yUA8D-117" value="Route53" style="rounded=0;whiteSpace=wrap;html=1;fillColor=none;strokeColor=none;" vertex="1" parent="1">
          <mxGeometry x="179" y="-139.99999999999994" width="80" height="31.75" as="geometry" />
        </mxCell>
        <mxCell id="XZvLHF4rB5YBOy9yUA8D-118" value="Region" style="points=[[0,0],[0.25,0],[0.5,0],[0.75,0],[1,0],[1,0.25],[1,0.5],[1,0.75],[1,1],[0.75,1],[0.5,1],[0.25,1],[0,1],[0,0.75],[0,0.5],[0,0.25]];outlineConnect=0;gradientColor=none;html=1;whiteSpace=wrap;fontSize=12;fontStyle=0;container=1;pointerEvents=0;collapsible=0;recursiveResize=0;shape=mxgraph.aws4.group;grIcon=mxgraph.aws4.group_region;strokeColor=#147EBA;fillColor=none;verticalAlign=top;align=left;spacingLeft=30;fontColor=#147EBA;dashed=1;rounded=0;" vertex="1" parent="1">
          <mxGeometry x="636" y="-301.42" width="210" height="240" as="geometry" />
        </mxCell>
        <mxCell id="XZvLHF4rB5YBOy9yUA8D-119" value="" style="points=[[0,0,0],[0.25,0,0],[0.5,0,0],[0.75,0,0],[1,0,0],[0,1,0],[0.25,1,0],[0.5,1,0],[0.75,1,0],[1,1,0],[0,0.25,0],[0,0.5,0],[0,0.75,0],[1,0.25,0],[1,0.5,0],[1,0.75,0]];outlineConnect=0;fontColor=#232F3E;gradientColor=#F78E04;gradientDirection=north;fillColor=#D05C17;strokeColor=#ffffff;dashed=0;verticalLabelPosition=bottom;verticalAlign=top;align=center;html=1;fontSize=12;fontStyle=0;aspect=fixed;shape=mxgraph.aws4.resourceIcon;resIcon=mxgraph.aws4.eks_anywhere;rounded=0;" vertex="1" parent="XZvLHF4rB5YBOy9yUA8D-118">
          <mxGeometry x="62" y="110" width="58" height="58" as="geometry" />
        </mxCell>
        <mxCell id="XZvLHF4rB5YBOy9yUA8D-120" value="EKS" style="rounded=0;whiteSpace=wrap;html=1;strokeColor=none;fillColor=none;" vertex="1" parent="XZvLHF4rB5YBOy9yUA8D-118">
          <mxGeometry x="71" y="168" width="40" height="24.5" as="geometry" />
        </mxCell>
        <mxCell id="XZvLHF4rB5YBOy9yUA8D-121" value="" style="sketch=0;points=[[0,0,0],[0.25,0,0],[0.5,0,0],[0.75,0,0],[1,0,0],[0,1,0],[0.25,1,0],[0.5,1,0],[0.75,1,0],[1,1,0],[0,0.25,0],[0,0.5,0],[0,0.75,0],[1,0.25,0],[1,0.5,0],[1,0.75,0]];outlineConnect=0;fontColor=#232F3E;gradientColor=#4D72F3;gradientDirection=north;fillColor=#3334B9;strokeColor=#ffffff;dashed=0;verticalLabelPosition=bottom;verticalAlign=top;align=center;html=1;fontSize=12;fontStyle=0;aspect=fixed;shape=mxgraph.aws4.resourceIcon;resIcon=mxgraph.aws4.database;" vertex="1" parent="1">
          <mxGeometry x="512" y="-119.42" width="58" height="58" as="geometry" />
        </mxCell>
        <mxCell id="XZvLHF4rB5YBOy9yUA8D-122" value="AWS RDS&amp;nbsp;" style="rounded=0;whiteSpace=wrap;html=1;strokeColor=none;" vertex="1" parent="1">
          <mxGeometry x="506" y="-61.42" width="70" height="24.5" as="geometry" />
        </mxCell>
        <mxCell id="XZvLHF4rB5YBOy9yUA8D-123" style="edgeStyle=orthogonalEdgeStyle;rounded=0;orthogonalLoop=1;jettySize=auto;html=1;entryX=0.75;entryY=0;entryDx=0;entryDy=0;entryPerimeter=0;" edge="1" parent="1" source="XZvLHF4rB5YBOy9yUA8D-119" target="XZvLHF4rB5YBOy9yUA8D-121">
          <mxGeometry relative="1" as="geometry" />
        </mxCell>
        <mxCell id="XZvLHF4rB5YBOy9yUA8D-124" value="Load Balancer" style="rounded=0;whiteSpace=wrap;html=1;strokeColor=none;fillColor=none;" vertex="1" parent="1">
          <mxGeometry x="430.5" y="-250" width="70" height="34.5" as="geometry" />
        </mxCell>
        <mxCell id="XZvLHF4rB5YBOy9yUA8D-125" value="" style="shape=image;verticalLabelPosition=bottom;labelBackgroundColor=default;verticalAlign=top;aspect=fixed;imageAspect=0;image=data:image/webp,UklGRq4JAABXRUJQVlA4WAoAAAAYAAAA/wAA/wAAQUxQSKUFAAAB8IT/n3K3tW39qmp4JlJAbk1m5hk0TGbmGeakGc+WZytMk+dshmkyMzNDmDmSwkyGgDLeqvp9G0LPZ7yuyYqICdCiQ5I0vmbd6b+f3NDZZqvfdrdh8venr1szLikFbeGQpLEPfuEWmvTWL354XEphiyTpacdNA+Rcqmdv/Xl2LTkD3HT806W0dCFo5ccfgpKrjU1D2tg1F9j4yZUKYYmStO/tkKtt06C2XTPcsb+UlmSgiW9AV7FpVpvawTcnNFiCgXaapBRsmtamZKZ3VlpU0rtm6IxN49q4Y+bdSosY6MOQsWlgmwwfUVrQQO+Cgk0T2xR4twYLSNpphoJNI9sUZnZSmidoYoqMTTPbZKYmFOb7Bh02DW3T8Y15kvYj26apbWf2U5IUtPJ2CqaxTeH2lQpS0ifoMM1tOj6upKCnbaC6xVzZ8DSFpOPJmAY3meOUNH4T1TS5K9Nj0ocobjUXPih9gWwa3ZkvaPxWartVbhlfA243w+qPkk2zO7PudDIN33Ha7yluNxd+N0ltucqNGzANbx7qWm/o1jOm6Y1xyxmz7P9l/2Pccsb/FHC72Xhz6206j2K3ml34+5F02G1m03HEk+6nYLeYTeH+J+oAyDZuLWNnc4Ci1kPtcoN3FdYrKujtl9Hol79DQVJUePvHv/i15v7Cx98eFDU7qtmj5o2DGJo7DqL+h2AaxNDccZDmi2r2OEdUeMfHv/i15v7ix98RFSUFveMKGv3Kdygoaj3ULjd4V+FjijoAZxvT2MbO5gA96QEKNg1uU7j/SUfSYdPkNh1HnEexaXS7cN5mbJrdZpNbz8Y0/D8FWPb/sv+X/f/fgI1bzrj9ME1vhtjtZvP4DdSWq1x/Oh1uNdNx2ips3GbGZnedwtDY7WXjISdLg1/irlQ3dy2d+VVSUDqZZj9loKAgrTrlsvs3Nff9l528SgqSQpTS9js09/ZJikFzxqQmT1H/QzCmvoxhqWLq4biAkNSnMS5BSOrpFOaI0tiqPfbtx73f+iQpLSpKY6v22Ld391g1JkVJSTuedAv9ufGbOyksImnHk26hl285cUJJSTtNAbUvDV6nsKCknaaA2sPA9M5KevEGhtU92sE6pQVEvXgDw+perkM2vFg6nyE2fWlTqK9SnE86nyE2PWwz5DztS7ZNf9p0fHMBSfuSbdPLtjP7/JiM6VPbbHySwlxB3yNjetpkfnQ3Nv1qm7cqzqVtpqimt23uLv2DK3srzbPDBtxvBdO7ruy7kE2YPjfGLWfcfvTwVkVPL/tv2X//Y8TY+F95GEzLmTKD2+6Re9uucseVVLebKxf9hNJwZL79ebqGc8cJh1JarrLHKwt2q9k89qwnTFKbjcJ50hnkVrMzJ0jvp9qthneRxm+mtpkp/EVK+hTZbjJnDlUKesEMTWYqk2OSos4m4xbLHK406/mPUe3WMoUrB5qddBIdrWW78G6lWUHbXkfBTWXT8QVFzZn0BmzcVGSmJxTmUtIxdLbbyVS8VkkL/Q4ddiuZWjlMSQsMWvE3OuwmsqmFYxS14KgdL6EzbiCbWvmUghaZNPE3uordOjYZjtHilLTi21Cwe2GPBWz/ANU9YuMOH6YQtPgoHQVdxR5xNqxSnCddRukPG0pheq2iljRIr7sGOtseZXbl5m01b9IpdLgfbFwzfGFCSUudtM2Jj0Kutj2qbIacoDRP1Cps3APGLhmufLeUtPRJet4Zj0HN1bNHj42HTO6gMI+iTmFo7JFmbJcMTB0+UAzakiFJz/vENEDpSrWNPTqMnTMbdlLU/EGDX+GuGnsU2di15q4C/PWQMSlpS8ckjb371Oszc5tRaoDzXqykhQalkwHMiDZzP3beibtKSvpHDEnSipcf/NkfXnbXowV7dJhy94/2kZIWHqTdT7v+cexRZFMeueOib5+wx7MkKWkpAQBWUDggIAMAAPAnAJ0BKgABAAE+bTSXR6QjIiEskKhAgA2JTdwt5B875/uH4q7e/0v8QPxyrM+qB/K/YB4i3Si8wH6c/rd71XoA83T+q9Zn6AHlo/sB8OPkq6tDgZ3cWv/dkl81qUibVqtjtUsdP9s4Fng0wBkfUTyfdjd2K/kZtzvEBRzRNq1Wx2rBXD/twcAFTl+spzEWIauCtf+x9g46ZHz9irONI8pcZzlIm1arY5whKvSchoFespzEWIauCtgOr/3G1jcZzlIm0fSSUcF7LXcyoqpRIC6+MyV+AGuFnlHljt8Xth1gOsB1gOpaZrUpE2rVbHaqxHoWNxFiGkv3fxXrOdBeRjrKbe7/rFHGWB+b9JW40RKC3ZkdOZBpZbRJa9rovj7ZOzKtLR5lHym6WXwi+e/aqWn1F46NBaPyR2OG9o1cFbhXnDjqA6wJzagA/v8yNANH6oNz3J3AEHpE9Je5o2jQA0c9HfsQ9onsda1TH9s/oldXWm6KtUAvu2s/1CQl9Gs7Ozs7Ozs7Oz2/oFJIN8Tb4OLreXmEAipl6RdlEUjPH3+dT6M1WWDp0Xa/TipAN65tkhTYJHjxhpUlY0Qp/h9+jKOT//MAAAAA7QE2MX4wfFOMjPu0DXSYLpLiXC4xCMy+gT+Pqk7g4ODg4ODg4ODg81tdDzCg9i3AyfpQsRUmDAyGgu2RELuA6YEhIwAABqd7y+yf09DFDieHCl3BbyikxPO+nhjKjaf2lSFJd7xsivgLmVo1hqFsjXX4DwRtvMrUqL+zj/Q+nWTonfoqfx2/WsDiMt7X8ynf/ctH9ku1y+QC7FtHIHrbkKMW2DUmOMSCAdP5jKz44QdSdP/Yd0PcI/6EGAsCe5GV0M2AMedhiiTINSzqPJ1picHfnOigL0okvUohkiHmWYGF4LPeNPDZlDL/rhkTUuP4bkrv65Po2MmZ0ipgsbE/sRRs6q+pDBS9G5uKFCoRmpwGTolElRVlWlHqnHYPz1P7BKErCz5wb49TkZzqVizV0SxB9Gtnwfvx/uK0EKES+4SS7J1RjqoyD/gEIbjDZGUM4/TOWH5AkAAARVhJRroAAABFeGlmAABJSSoACAAAAAYAEgEDAAEAAAABAAAAGgEFAAEAAABWAAAAGwEFAAEAAABeAAAAKAEDAAEAAAACAAAAEwIDAAEAAAABAAAAaYcEAAEAAABmAAAAAAAAAEgAAAABAAAASAAAAAEAAAAGAACQBwAEAAAAMDIxMAGRBwAEAAAAAQIDAACgBwAEAAAAMDEwMAGgAwABAAAA//8AAAKgBAABAAAAAAEAAAOgBAABAAAAAAEAAAAAAAA=;" vertex="1" parent="1">
          <mxGeometry x="441" y="3.33" width="86" height="86" as="geometry" />
        </mxCell>
        <mxCell id="XZvLHF4rB5YBOy9yUA8D-126" value="ELK stack for monitoring" style="rounded=0;whiteSpace=wrap;html=1;strokeColor=none;fillColor=none;" vertex="1" parent="1">
          <mxGeometry x="441" y="93.33" width="90" height="45.25" as="geometry" />
        </mxCell>
        <mxCell id="XZvLHF4rB5YBOy9yUA8D-127" style="edgeStyle=orthogonalEdgeStyle;rounded=0;orthogonalLoop=1;jettySize=auto;html=1;entryX=1;entryY=0.5;entryDx=0;entryDy=0;" edge="1" parent="1" source="XZvLHF4rB5YBOy9yUA8D-119" target="XZvLHF4rB5YBOy9yUA8D-125">
          <mxGeometry relative="1" as="geometry" />
        </mxCell>
        <mxCell id="XZvLHF4rB5YBOy9yUA8D-128" style="edgeStyle=orthogonalEdgeStyle;rounded=0;orthogonalLoop=1;jettySize=auto;html=1;entryX=0.03;entryY=0.955;entryDx=0;entryDy=0;entryPerimeter=0;exitX=0.5;exitY=0;exitDx=0;exitDy=0;" edge="1" parent="1" source="XZvLHF4rB5YBOy9yUA8D-10" target="XZvLHF4rB5YBOy9yUA8D-109">
          <mxGeometry relative="1" as="geometry">
            <Array as="points">
              <mxPoint x="719" y="600" />
            </Array>
          </mxGeometry>
        </mxCell>
        <mxCell id="XZvLHF4rB5YBOy9yUA8D-129" style="edgeStyle=orthogonalEdgeStyle;rounded=0;orthogonalLoop=1;jettySize=auto;html=1;" edge="1" parent="1" source="XZvLHF4rB5YBOy9yUA8D-130" target="XZvLHF4rB5YBOy9yUA8D-132">
          <mxGeometry relative="1" as="geometry" />
        </mxCell>
        <mxCell id="XZvLHF4rB5YBOy9yUA8D-130" value="LDAP adapter&lt;br&gt;(Lightweight Directory Access Protocol)" style="rounded=1;whiteSpace=wrap;html=1;" vertex="1" parent="1">
          <mxGeometry x="-90" y="367.50000000000006" width="190" height="97" as="geometry" />
        </mxCell>
        <mxCell id="XZvLHF4rB5YBOy9yUA8D-131" value="Post/Get" style="text;html=1;strokeColor=none;fillColor=none;align=center;verticalAlign=middle;whiteSpace=wrap;rounded=0;" vertex="1" parent="1">
          <mxGeometry x="160" y="364.89" width="60" height="30" as="geometry" />
        </mxCell>
        <mxCell id="XZvLHF4rB5YBOy9yUA8D-132" value="KeyStore" style="shape=cylinder3;whiteSpace=wrap;html=1;boundedLbl=1;backgroundOutline=1;size=15;" vertex="1" parent="1">
          <mxGeometry x="-40" y="606.78" width="90" height="80" as="geometry" />
        </mxCell>
        <mxCell id="XZvLHF4rB5YBOy9yUA8D-133" value="" style="points=[[0,0.5,0],[0.24,0,0],[0.5,0.28,0],[0.995,0.475,0],[0.5,0.72,0],[0.24,1,0]];verticalLabelPosition=bottom;sketch=0;html=1;verticalAlign=top;aspect=fixed;align=center;pointerEvents=1;shape=mxgraph.cisco19.key;fillColor=#005073;strokeColor=none;" vertex="1" parent="1">
          <mxGeometry x="110" y="634.28" width="50" height="22.5" as="geometry" />
        </mxCell>
        <mxCell id="XZvLHF4rB5YBOy9yUA8D-134" value="Key" style="text;html=1;strokeColor=none;fillColor=none;align=center;verticalAlign=middle;whiteSpace=wrap;rounded=0;" vertex="1" parent="1">
          <mxGeometry x="94" y="656.78" width="60" height="30" as="geometry" />
        </mxCell>
        <mxCell id="XZvLHF4rB5YBOy9yUA8D-135" value="Private" style="text;html=1;strokeColor=none;fillColor=none;align=center;verticalAlign=middle;whiteSpace=wrap;rounded=0;" vertex="1" parent="1">
          <mxGeometry x="100" y="604.78" width="60" height="30" as="geometry" />
        </mxCell>
        <mxCell id="XZvLHF4rB5YBOy9yUA8D-136" style="edgeStyle=orthogonalEdgeStyle;rounded=0;orthogonalLoop=1;jettySize=auto;html=1;entryX=0.006;entryY=0.435;entryDx=0;entryDy=0;entryPerimeter=0;" edge="1" parent="1" source="XZvLHF4rB5YBOy9yUA8D-132">
          <mxGeometry relative="1" as="geometry">
            <mxPoint x="95" y="646.78" as="targetPoint" />
          </mxGeometry>
        </mxCell>
        <mxCell id="XZvLHF4rB5YBOy9yUA8D-137" value="" style="rounded=1;whiteSpace=wrap;html=1;" vertex="1" parent="1">
          <mxGeometry x="-60" y="223.00000000000003" width="80" height="60" as="geometry" />
        </mxCell>
        <mxCell id="XZvLHF4rB5YBOy9yUA8D-138" value="Response" style="text;html=1;strokeColor=none;fillColor=none;align=center;verticalAlign=middle;whiteSpace=wrap;rounded=0;" vertex="1" parent="1">
          <mxGeometry x="154" y="432.9999999999999" width="60" height="30" as="geometry" />
        </mxCell>
        <mxCell id="XZvLHF4rB5YBOy9yUA8D-139" value="" style="verticalLabelPosition=bottom;html=1;verticalAlign=top;align=center;strokeColor=none;fillColor=#00BEF2;shape=mxgraph.azure.user;" vertex="1" parent="1">
          <mxGeometry x="-30" y="231.78" width="17.5" height="20" as="geometry" />
        </mxCell>
        <mxCell id="XZvLHF4rB5YBOy9yUA8D-140" value="Hacker" style="text;html=1;strokeColor=none;fillColor=none;align=center;verticalAlign=middle;whiteSpace=wrap;rounded=0;" vertex="1" parent="1">
          <mxGeometry x="-51.25" y="251.78" width="60" height="30" as="geometry" />
        </mxCell>
        <mxCell id="XZvLHF4rB5YBOy9yUA8D-141" value="man-in-middle attack:&lt;br&gt;Cannot break seccured. channnel" style="text;html=1;strokeColor=none;fillColor=none;align=center;verticalAlign=middle;whiteSpace=wrap;rounded=0;" vertex="1" parent="1">
          <mxGeometry x="-125" y="294.45000000000005" width="210" height="30" as="geometry" />
        </mxCell>
        <mxCell id="XZvLHF4rB5YBOy9yUA8D-142" style="edgeStyle=orthogonalEdgeStyle;rounded=0;orthogonalLoop=1;jettySize=auto;html=1;" edge="1" parent="1" source="XZvLHF4rB5YBOy9yUA8D-137">
          <mxGeometry relative="1" as="geometry">
            <mxPoint x="140" y="380" as="targetPoint" />
          </mxGeometry>
        </mxCell>
        <mxCell id="XZvLHF4rB5YBOy9yUA8D-143" value="TrustStorer" style="shape=cylinder3;whiteSpace=wrap;html=1;boundedLbl=1;backgroundOutline=1;size=15;" vertex="1" parent="1">
          <mxGeometry x="-187.59000000000003" y="654.78" width="90" height="80" as="geometry" />
        </mxCell>
        <mxCell id="XZvLHF4rB5YBOy9yUA8D-144" style="edgeStyle=orthogonalEdgeStyle;rounded=0;orthogonalLoop=1;jettySize=auto;html=1;entryX=0.5;entryY=0;entryDx=0;entryDy=0;entryPerimeter=0;" edge="1" parent="1" source="XZvLHF4rB5YBOy9yUA8D-143" target="XZvLHF4rB5YBOy9yUA8D-146">
          <mxGeometry relative="1" as="geometry" />
        </mxCell>
        <mxCell id="XZvLHF4rB5YBOy9yUA8D-145" style="edgeStyle=orthogonalEdgeStyle;rounded=0;orthogonalLoop=1;jettySize=auto;html=1;" edge="1" parent="1" source="XZvLHF4rB5YBOy9yUA8D-130" target="XZvLHF4rB5YBOy9yUA8D-143">
          <mxGeometry relative="1" as="geometry">
            <Array as="points">
              <mxPoint x="-50" y="695" />
            </Array>
          </mxGeometry>
        </mxCell>
        <mxCell id="XZvLHF4rB5YBOy9yUA8D-146" value="Trusted CA certificates" style="points=[[0.015,0.015,0],[0.25,0,0],[0.5,0,0],[0.75,0,0],[0.985,0.015,0],[1,0.22,0],[1,0.44,0],[1,0.67,0],[0.985,0.89,0],[0,0.22,0],[0,0.44,0],[0,0.67,0],[0.015,0.89,0],[0.25,0.91,0],[0.5,0.91,0],[0.785,0.955,0]];verticalLabelPosition=bottom;sketch=0;html=1;verticalAlign=top;aspect=fixed;align=center;pointerEvents=1;shape=mxgraph.cisco19.x509_certificate;fillColor=#005073;strokeColor=none;" vertex="1" parent="1">
          <mxGeometry x="-190" y="786.78" width="94.81" height="90.07" as="geometry" />
        </mxCell>
        <mxCell id="XZvLHF4rB5YBOy9yUA8D-147" style="edgeStyle=orthogonalEdgeStyle;rounded=0;orthogonalLoop=1;jettySize=auto;html=1;entryX=1;entryY=0.325;entryDx=0;entryDy=0;entryPerimeter=0;" edge="1" parent="1" source="XZvLHF4rB5YBOy9yUA8D-7" target="XZvLHF4rB5YBOy9yUA8D-130">
          <mxGeometry relative="1" as="geometry">
            <Array as="points">
              <mxPoint x="280" y="410" />
              <mxPoint x="280" y="410" />
            </Array>
          </mxGeometry>
        </mxCell>
        <mxCell id="XZvLHF4rB5YBOy9yUA8D-148" value="" style="endArrow=none;dashed=1;html=1;rounded=0;exitX=1;exitY=0.25;exitDx=0;exitDy=0;entryX=0.023;entryY=0.396;entryDx=0;entryDy=0;entryPerimeter=0;" edge="1" parent="1" source="XZvLHF4rB5YBOy9yUA8D-130" target="XZvLHF4rB5YBOy9yUA8D-7">
          <mxGeometry width="50" height="50" relative="1" as="geometry">
            <mxPoint x="70" y="436.8869999999996" as="sourcePoint" />
            <mxPoint x="270.48" y="433.61" as="targetPoint" />
          </mxGeometry>
        </mxCell>
        <mxCell id="XZvLHF4rB5YBOy9yUA8D-149" value="" style="endArrow=none;dashed=1;html=1;rounded=0;exitX=1.007;exitY=0.69;exitDx=0;exitDy=0;exitPerimeter=0;entryX=0.219;entryY=0.991;entryDx=0;entryDy=0;entryPerimeter=0;" edge="1" parent="1" source="XZvLHF4rB5YBOy9yUA8D-130" target="XZvLHF4rB5YBOy9yUA8D-7">
          <mxGeometry width="50" height="50" relative="1" as="geometry">
            <mxPoint x="112" y="405" as="sourcePoint" />
            <mxPoint x="398" y="402" as="targetPoint" />
          </mxGeometry>
        </mxCell>
        <mxCell id="XZvLHF4rB5YBOy9yUA8D-150" style="edgeStyle=orthogonalEdgeStyle;rounded=0;orthogonalLoop=1;jettySize=auto;html=1;entryX=0.125;entryY=0.75;entryDx=0;entryDy=0;entryPerimeter=0;" edge="1" parent="1" source="XZvLHF4rB5YBOy9yUA8D-130" target="XZvLHF4rB5YBOy9yUA8D-7">
          <mxGeometry relative="1" as="geometry" />
        </mxCell>
        <mxCell id="XZvLHF4rB5YBOy9yUA8D-151" value="&lt;span style=&quot;color: rgb(0, 0, 0); font-family: Helvetica; font-size: 12px; font-style: normal; font-variant-ligatures: normal; font-variant-caps: normal; font-weight: 400; letter-spacing: normal; orphans: 2; text-align: center; text-indent: 0px; text-transform: none; widows: 2; word-spacing: 0px; -webkit-text-stroke-width: 0px; background-color: rgb(251, 251, 251); text-decoration-thickness: initial; text-decoration-style: initial; text-decoration-color: initial; float: none; display: inline !important;&quot;&gt;SSL communication channel&lt;/span&gt;" style="text;whiteSpace=wrap;html=1;" vertex="1" parent="1">
          <mxGeometry x="130" y="460" width="190" height="40" as="geometry" />
        </mxCell>
        <mxCell id="XZvLHF4rB5YBOy9yUA8D-152" style="edgeStyle=orthogonalEdgeStyle;rounded=0;orthogonalLoop=1;jettySize=auto;html=1;entryX=0;entryY=0.5;entryDx=0;entryDy=0;" edge="1" parent="1" source="XZvLHF4rB5YBOy9yUA8D-153" target="XZvLHF4rB5YBOy9yUA8D-31">
          <mxGeometry relative="1" as="geometry" />
        </mxCell>
        <mxCell id="XZvLHF4rB5YBOy9yUA8D-153" value="SuperAdmin" style="verticalLabelPosition=bottom;html=1;fillColor=#A153A0;verticalAlign=top;align=center;pointerEvents=1;shape=mxgraph.cisco_safe.design.actor_2;hachureGap=4;fontFamily=Architects Daughter;fontSource=https%3A%2F%2Ffonts.googleapis.com%2Fcss%3Ffamily%3DArchitects%2BDaughter;fontSize=20;rounded=1;" vertex="1" parent="1">
          <mxGeometry x="-660" y="734.52" width="49" height="128.95" as="geometry" />
        </mxCell>
        <mxCell id="XZvLHF4rB5YBOy9yUA8D-154" style="edgeStyle=orthogonalEdgeStyle;rounded=0;orthogonalLoop=1;jettySize=auto;html=1;entryX=0;entryY=1;entryDx=0;entryDy=0;" edge="1" parent="1" source="XZvLHF4rB5YBOy9yUA8D-31" target="XZvLHF4rB5YBOy9yUA8D-47">
          <mxGeometry relative="1" as="geometry" />
        </mxCell>
        <mxCell id="XZvLHF4rB5YBOy9yUA8D-155" value="" style="edgeStyle=orthogonalEdgeStyle;rounded=0;orthogonalLoop=1;jettySize=auto;html=1;" edge="1" parent="1" source="XZvLHF4rB5YBOy9yUA8D-156" target="XZvLHF4rB5YBOy9yUA8D-160">
          <mxGeometry relative="1" as="geometry" />
        </mxCell>
        <mxCell id="XZvLHF4rB5YBOy9yUA8D-156" value="Notifications&amp;nbsp;" style="whiteSpace=wrap;html=1;fontSize=20;fontFamily=Architects Daughter;verticalAlign=top;hachureGap=4;fontSource=https%3A%2F%2Ffonts.googleapis.com%2Fcss%3Ffamily%3DArchitects%2BDaughter;fillColor=#ffe6cc;strokeColor=#d79b00;fillStyle=hatch;rounded=1;" vertex="1" parent="1">
          <mxGeometry x="1260" y="343.09000000000003" width="164" height="66" as="geometry" />
        </mxCell>
        <mxCell id="XZvLHF4rB5YBOy9yUA8D-157" style="edgeStyle=orthogonalEdgeStyle;rounded=1;orthogonalLoop=1;jettySize=auto;html=1;curved=0;" edge="1" parent="1" source="XZvLHF4rB5YBOy9yUA8D-160" target="XZvLHF4rB5YBOy9yUA8D-161">
          <mxGeometry relative="1" as="geometry" />
        </mxCell>
        <mxCell id="XZvLHF4rB5YBOy9yUA8D-158" style="edgeStyle=orthogonalEdgeStyle;rounded=1;orthogonalLoop=1;jettySize=auto;html=1;curved=0;" edge="1" parent="1" source="XZvLHF4rB5YBOy9yUA8D-160" target="XZvLHF4rB5YBOy9yUA8D-162">
          <mxGeometry relative="1" as="geometry" />
        </mxCell>
        <mxCell id="XZvLHF4rB5YBOy9yUA8D-159" style="edgeStyle=orthogonalEdgeStyle;rounded=1;orthogonalLoop=1;jettySize=auto;html=1;curved=0;" edge="1" parent="1" source="XZvLHF4rB5YBOy9yUA8D-160" target="XZvLHF4rB5YBOy9yUA8D-163">
          <mxGeometry relative="1" as="geometry" />
        </mxCell>
        <mxCell id="XZvLHF4rB5YBOy9yUA8D-160" value="&lt;font style=&quot;font-size: 20px;&quot; data-font-src=&quot;https://fonts.googleapis.com/css?family=Architects+Daughter&quot; face=&quot;Architects Daughter&quot;&gt;Provide templates for common alert types&lt;/font&gt;" style="rounded=1;whiteSpace=wrap;html=1;glass=0;dashed=1;dashPattern=8 8;" vertex="1" parent="1">
          <mxGeometry x="1510" y="338.09" width="260" height="76" as="geometry" />
        </mxCell>
        <mxCell id="XZvLHF4rB5YBOy9yUA8D-161" value="&lt;font style=&quot;font-size: 20px;&quot; data-font-src=&quot;https://fonts.googleapis.com/css?family=Architects+Daughter&quot; face=&quot;Architects Daughter&quot;&gt;Promotions&lt;/font&gt;" style="rounded=1;whiteSpace=wrap;html=1;glass=0;dashed=1;dashPattern=8 8;" vertex="1" parent="1">
          <mxGeometry x="1860" y="330" width="188.16" height="55" as="geometry" />
        </mxCell>
        <mxCell id="XZvLHF4rB5YBOy9yUA8D-162" value="&lt;font style=&quot;font-size: 20px;&quot; data-font-src=&quot;https://fonts.googleapis.com/css?family=Architects+Daughter&quot; face=&quot;Architects Daughter&quot;&gt;Announcements&lt;/font&gt;" style="rounded=1;whiteSpace=wrap;html=1;glass=0;dashed=1;dashPattern=8 8;" vertex="1" parent="1">
          <mxGeometry x="1910" y="402.59" width="188.16" height="55" as="geometry" />
        </mxCell>
        <mxCell id="XZvLHF4rB5YBOy9yUA8D-163" value="&lt;font style=&quot;font-size: 20px;&quot; data-font-src=&quot;https://fonts.googleapis.com/css?family=Architects+Daughter&quot; face=&quot;Architects Daughter&quot;&gt;Warnings&lt;/font&gt;" style="rounded=1;whiteSpace=wrap;html=1;glass=0;dashed=1;dashPattern=8 8;" vertex="1" parent="1">
          <mxGeometry x="1770" y="476.66999999999996" width="188.16" height="55" as="geometry" />
        </mxCell>
        <mxCell id="XZvLHF4rB5YBOy9yUA8D-168" style="edgeStyle=orthogonalEdgeStyle;rounded=0;orthogonalLoop=1;jettySize=auto;html=1;entryX=0.5;entryY=0;entryDx=0;entryDy=0;" edge="1" parent="1" source="XZvLHF4rB5YBOy9yUA8D-166" target="XZvLHF4rB5YBOy9yUA8D-10">
          <mxGeometry relative="1" as="geometry">
            <Array as="points">
              <mxPoint x="460" y="579" />
              <mxPoint x="675" y="579" />
            </Array>
          </mxGeometry>
        </mxCell>
        <mxCell id="XZvLHF4rB5YBOy9yUA8D-171" value="unique SteamID&amp;nbsp;" style="edgeLabel;html=1;align=center;verticalAlign=middle;resizable=0;points=[];" vertex="1" connectable="0" parent="XZvLHF4rB5YBOy9yUA8D-168">
          <mxGeometry x="0.0027" y="1" relative="1" as="geometry">
            <mxPoint as="offset" />
          </mxGeometry>
        </mxCell>
        <mxCell id="XZvLHF4rB5YBOy9yUA8D-166" value="" style="shape=image;verticalLabelPosition=bottom;labelBackgroundColor=default;verticalAlign=top;aspect=fixed;imageAspect=0;image=data:image/jpeg,/9j/4AAQSkZJRgABAQAAAQABAAD/2wCEAAkGBwgHBhUIBxIWFhUXGBoVGBUYFRMTIBoYFhkZFxUXGBUYHSggGh0lHhcVITEhJSkrLi4uFx8zODMtNygtLisBCgoKDQ0NDg0NDysZHxkrKysrKysrNysrKysrLSsrKysrKysrKysrKysrKysrKysrKysrKysrKysrKysrKysrK//AABEIAMIBBAMBIgACEQEDEQH/xAAcAAEAAgMBAQEAAAAAAAAAAAAABgcDBQgEAgH/xABBEAACAQMCAwUEBgcGBwAAAAAAAQIDBREEBhIhMQcTQWFxIlGBkRQjMkJysRZikqGywdEIFTM0NlIXNUNEVKLS/8QAFQEBAQAAAAAAAAAAAAAAAAAAAAH/xAAYEQEBAQEBAAAAAAAAAAAAAAAAARExIf/aAAwDAQACEQMRAD8Ao4AAAAAAAAAAAAAAAAAAAAAAAAAAAAAAAAAAAAAAAAAAAAAAAAAAAAAAAAAAAAAAAAAAAAAAAAAAAAAAAAAAAAAAAAAAAAAAAAAAAAAAAAAAAAAAAAAAAAAAAAAAAAAAAAAAAAAAAAAAAAAAAAAAAfsVxPhLD2F2eVL5p5XC4zVHTx61JLq/dFPqBXeAXqtn9n84d1GvXTfLvWvZ9c8OMfEgu/tgajbXDqqMlUoz5xqx6PyfuZNEEABQAAAAAD9UZS+yfhZHZJsmO5Lg6+tT7mniU/P3RT88fICMWPaF4vf+QpSl6Jv5s2mv7NNyaKh3tXT1MeS4sfLJ0JqrxobFVjZ7JQdSol/g0klwr3yl4GGe6Lpb/rb5opQpeNSElU4fOS9xNRynqdLW0s+Gqmn6GA6X7Rdk23dFld1tKj3ijxpwSxUj1ecfe8/gzm7VUJabUOlLwKrCAAAAAAAAAAAAAAAAAAAAAAAD12yMZa2KkdM17bp61y0W3sYoQpd7KHTjklyT9/PL+LOYNNV7mqp+46B2re47stVCroqihrtMsR42vrIYxjzyuRKi1Pounen7jgjw4xw4WMehpr1tXQ3Lb87RTShGT4o8uJQlnOYxfRdeS9592u8a7Uz7i46WpSkusuUoP0l4fE2dLUxn9lp45cmnj1wFc8bn7Ib1beKroo97Fc8wy3+x1/MrzWW3VaOq4V4NY96aO0YzjI1F72xZ75BxuFGLb+8lwy/aQRxw+QL23L2J8WatjqJ9XwTxF/CS5Mqm/bRu1jq91raUovzT5+j6MaqPg+pwlD7SaPko+6MJVaijE6f7JbdO1bK7ycGpScp8/vJL2Xj3FSdkmy5bguqr6mP1MMSk/wAorzf5HSsKdOFJUqaSSXCljwXLHoQRbs7pRqWeVxlh1K05SnL48o/D3EqqQjODjUSaaw0/FeOUQyMdds7Wz7mlKtpKknNKHOVKT6rh8Yn3X3lU1sO4sOnqzqPknOLhGPhmTfuJKjLsqP0XUaq2U3mnSrNQXXCnnMfh/U5z7QtPT0u6K1KnjCqTXL8R0Rp+52dtqes18055dSpPl7dWXSK9/P8AmcyX/Wy19znXlzbk2/VvLLBrAAVQAAAAAAAAAAAAAAAAAAAAAPVo9bX0c1OhJprmsPHM8oAlU9/bgnp+4lqKnD+JmOzb1vFp1He6aq0/Hn19V4kZBMF7bb7Z6c8Ur1Tz+vDk/jHoyzrLuW13mClbqsZfq5w16xZx4ng9miueq0c1KjNrHubQHaCqxkY9VpdPrKTpamCnF9YySkvkznbbXa7drfw0te1VivCfN48p9S1tudpVhu+Iyn3Un92bWPhNcvngDy7l7JbHdcz0GaMn4JZj8uq+BDtN2MfQ+LU3evCnThz4knLK9/ki8KVeNSClBpp9Gnn95kbjIYI9srS2a32daOy1IVEucpRcW2396SXQ386sYkP3naqWi0jvtoSp16TU+KPsqcc4cZRXJ9fzG4t5W+zWeGu1LzKpCM4U1yb4o5Tb8I55BEg11wo6LTy1OrnGEY9ZN4+Hm/Ir+69rtn0uY6aE6jXTLUU/N+JUe8993Lceofey4Yr7MI8lH0Xv8yHylJ/aHVTDeu+7huet9c+GCzwwjySz+b8yHPmAUAAAAAAAAAAAAAAAAAAAAAAAAAAAAAAAADJTrVKX+G2jGALF7M98aiz3iFLX1Jdy3iceJ4w/vcPlnPwLy1W4NRoJ97qKLqUJ+1Tr0PrPZfPE4dc+a5ehyVCcoy4ovDJftztCvlhpd1pKrUf9jxJfsvp8CYLwumu1m7KX936CnUp0W06taqu79mL6Ri+fn8EVJ2u7g09yuy0duadKjCNKLXio9WvLLZ4L/wBpV+vOndCtVai+sYpQT9UupDKtSVWXFN5YxGMAFUAAAAAAAAAAAAAAAAAAAAAAAAAAA3dg2xdL/V7q3U5Tfks49X4Gmhzmjpbs0pS0nZr9JskE60uJtcnmSlhL4R5peZKKZufZxuK26d6jUUJqK5t4yl646GgtNm1l2uC0Oig5Tk8KK8cLL/cmXLe9472tWiqUtXSaUlhVJUscOer6YfLlzKhtF+1ljvSueiaVSLbTaUubTT9l8nybJPUSJdlW6H/28/3f1NffNhX2yaJ6zX0ZRgmk5PHV9F1L17Ld03Lc1qram4yTlDhUcRjHGVLwXXoVHvztBvV1hO1aqadPizjgjHnFvHtLmURCw2HX3/V/RrZBznhvhWOi6vmSX/hTuj/x5/8Ar/U3XYHz3WvwT/IsLeF63ppLvOlY6cnTTXC+4U/BN4ljnzYFD7j2ndtucP8AetN0+LPDxY54xnGPU0UIcc+GJNe0TcG4LpqIaXcaxKmnwxdONNriw+aS8cI0+zrTUvF9p6WmnmUlH5vm/gFZNTs69aazxutSlJUZYanhY59PyI61wnX9y0Gh11oqbZo44o0Y4jhLC5qm/LnE5PvOjlorhKlUWGm1jzQGx29tC8bhpSq2qlKoo4UnHHJvmupqNVo62k1DoVotSTxh8uaeC+f7PKxatR+KH8LPJ2jbG+k7yp1dKsLUSWFjlx8lP/6+I0Vdo9j3zWWp3OjRk6STfHhYxHq/QxaHZ9212ker01OTgnw8S4eucYxnJ07d9FRt2yquh06SjToSivguvx6/E54tW6qdojKhKDl9bTqZylhU85j6vPUIj9w29ctBp3qdTTkoKbpuTWPbSy4+uDTk/wB2b6jf7P8AQ5QxLvXUysJPMZJtrxk3LLZABFAAUAAAAAAAAAAAAAAAAAAB+xWZFo7B1W8LJancLVCToylwyzHji5JdeHr5ZRV0XwyLR2V2s66x6KNv1cVUpxWIp4i4r3KS8PUlFsbOvty3Jp50L3QSjw4b4XFPLw4tPPhz5HOG7tPR019q0tN9lTkl6JvBY+5e2XVavQy01sgqXEmnJPieH/t93qVFqa8tRWdWXViIv/sD/wBP6j1j/DIpHc3/ADif4pfxMl3Z92hy2nb6mm7tT48Pm2sYTX8yDXPV/TNZKv72383kCyewL/VS/BP8kWDvDd+5LXeJ6a1U4zjFpLNKcuqT6qSz1KW7Pt1fopeFruBS5SjhvH2l1yWY+22L/wCjH5sCtd/ay8XW5u4XinwSkkuUJQT4UlyTbJz2B2HvLhO61l7NOPLK+9Lp8llkX7R99x3d3ce7Ue7UlybeeLGfyPXtntJ/R/a8rVpaS4pKWamX9qSwnjyRBdmntkqO6p3j6VBqacO7/VwlGKeebTSKY7brH9A3HLVU44jV+sXLxf2v3p/Mh2n3LrqOtVeM3yaa5+55RJ9+9oNPdlsp0KlJRnB54028prmseuH8AJ5/Z/eLJqfWP8LJJt3dNvlZeO61IKpp3JLicctJPhlHPPLi+F4Kc7Pu0H9EtBU0/dqfeYfN4xhNfzIdc7lU1etlXi8ZbfzZVdH6C41LpsfV66o8uo6svRYilFeSSwc0XH/Oy9SfWXtIlbNnzssaSblxe22/v4zyRXlefeVXP3iIxgAqgAAAAAAAAAAAAAAAAAAAAAAAAAAAAAAAAAAAAAAAAAAAAAAAAAAAAAAAAAAAAAAAAAAAAAAAAAAAAAAAAAAAAAAAAAAAAAAAAAAAAAAAAAAAAAAAAAAAAAAAAAAAAAAAAAAAAAAAAAAAAAAAAAAAAAAAAAAAAAAAAAAAAAAAAAAAAAAAAAAAAAAAAAAAAAAAP//Z;" vertex="1" parent="1">
          <mxGeometry x="409.59000000000003" y="606.78" width="80.41" height="60" as="geometry" />
        </mxCell>
        <mxCell id="XZvLHF4rB5YBOy9yUA8D-172" value="&lt;span style=&quot;font-weight: 600; font-kerning: none;&quot; class=&quot;OYPEnA font-feature-liga-off font-feature-clig-off font-feature-calt-off text-decoration-none text-strikethrough-none&quot;&gt;satistics&lt;/span&gt;" style="shape=document;whiteSpace=wrap;html=1;boundedLbl=1;fontSize=20;fontFamily=Architects Daughter;fillColor=#dae8fc;strokeColor=#6c8ebf;rounded=1;hachureGap=4;fontSource=https%3A%2F%2Ffonts.googleapis.com%2Fcss%3Ffamily%3DArchitects%2BDaughter;" vertex="1" parent="1">
          <mxGeometry x="799.5" y="990" width="120" height="80" as="geometry" />
        </mxCell>
        <mxCell id="XZvLHF4rB5YBOy9yUA8D-173" value="&lt;span style=&quot;font-weight: 600; font-kerning: none;&quot; class=&quot;OYPEnA font-feature-liga-off font-feature-clig-off font-feature-calt-off text-decoration-none text-strikethrough-none&quot;&gt;Sales&lt;/span&gt;" style="shape=document;whiteSpace=wrap;html=1;boundedLbl=1;fontSize=20;fontFamily=Architects Daughter;fillColor=#dae8fc;strokeColor=#6c8ebf;rounded=1;hachureGap=4;fontSource=https%3A%2F%2Ffonts.googleapis.com%2Fcss%3Ffamily%3DArchitects%2BDaughter;" vertex="1" parent="1">
          <mxGeometry x="940" y="990" width="120" height="80" as="geometry" />
        </mxCell>
        <mxCell id="XZvLHF4rB5YBOy9yUA8D-174" value="&lt;span style=&quot;font-weight: 700; font-kerning: none;&quot; class=&quot;OYPEnA font-feature-liga-off font-feature-clig-off font-feature-calt-off text-decoration-none text-strikethrough-none&quot;&gt;Settings&lt;/span&gt;" style="shape=document;whiteSpace=wrap;html=1;boundedLbl=1;fontSize=20;fontFamily=Architects Daughter;fillColor=#dae8fc;strokeColor=#6c8ebf;rounded=1;hachureGap=4;fontSource=https%3A%2F%2Ffonts.googleapis.com%2Fcss%3Ffamily%3DArchitects%2BDaughter;" vertex="1" parent="1">
          <mxGeometry x="1080" y="990" width="120" height="80" as="geometry" />
        </mxCell>
        <mxCell id="XZvLHF4rB5YBOy9yUA8D-177" style="edgeStyle=orthogonalEdgeStyle;rounded=0;orthogonalLoop=1;jettySize=auto;html=1;entryX=0.383;entryY=0.054;entryDx=0;entryDy=0;entryPerimeter=0;" edge="1" parent="1" source="XZvLHF4rB5YBOy9yUA8D-64" target="XZvLHF4rB5YBOy9yUA8D-174">
          <mxGeometry relative="1" as="geometry">
            <Array as="points">
              <mxPoint x="880" y="820" />
              <mxPoint x="930" y="820" />
              <mxPoint x="930" y="900" />
              <mxPoint x="990" y="900" />
              <mxPoint x="990" y="924" />
              <mxPoint x="1126" y="924" />
            </Array>
          </mxGeometry>
        </mxCell>
        <mxCell id="XZvLHF4rB5YBOy9yUA8D-178" value="" style="shape=document;whiteSpace=wrap;html=1;boundedLbl=1;fontSize=20;fontFamily=Architects Daughter;fillColor=#f8cecc;strokeColor=#b85450;rounded=1;hachureGap=4;fontSource=https%3A%2F%2Ffonts.googleapis.com%2Fcss%3Ffamily%3DArchitects%2BDaughter;" vertex="1" parent="1">
          <mxGeometry x="1250" y="876.85" width="460" height="193.15" as="geometry" />
        </mxCell>
        <mxCell id="XZvLHF4rB5YBOy9yUA8D-181" value="Steam API Key" style="text;html=1;align=center;verticalAlign=middle;whiteSpace=wrap;rounded=0;" vertex="1" parent="1">
          <mxGeometry x="1260" y="884" width="130" height="30" as="geometry" />
        </mxCell>
        <mxCell id="XZvLHF4rB5YBOy9yUA8D-183" value="" style="shape=image;verticalLabelPosition=bottom;labelBackgroundColor=default;verticalAlign=top;aspect=fixed;imageAspect=0;image=data:image/svg+xml,PHN2ZyB4bWxuczp4bGluaz0iaHR0cDovL3d3dy53My5vcmcvMTk5OS94bGluayIgeG1sbnM9Imh0dHA6Ly93d3cudzMub3JnLzIwMDAvc3ZnIiB4bWw6c3BhY2U9InByZXNlcnZlIiB2aWV3Qm94PSIwIDAgMzU1LjY2NiA4OS4zMzMiIGhlaWdodD0iODkuMzMzcHgiIHdpZHRoPSIzNTUuNjY2cHgiIHk9IjBweCIgeD0iMHB4IiBpZD0iTGF5ZXJfMSIgdmVyc2lvbj0iMS4xIj4mI3hhOzxnPiYjeGE7CTxwYXRoIGQ9Ik00NC4yMzgsMC42MDFDMjEsMC42MDEsMS45NjMsMTguNTE5LDAuMTU0LDQxLjI5bDIzLjcxLDkuODAzYzIuMDA5LTEuMzc0LDQuNDM2LTIuMTc5LDcuMDQ3LTIuMTc5JiMxMDsmIzk7JiM5O2MwLjIzNCwwLDAuNDY3LDAuMDA4LDAuNjk4LDAuMDIxbDEwLjU0NC0xNS4yODNjMC0wLjA3My0wLjAwMS0wLjE0NC0wLjAwMS0wLjIxNmMwLTkuMTk5LDcuNDgzLTE2LjY4MywxNi42ODMtMTYuNjgzJiMxMDsmIzk7JiM5O2M5LjE5OSwwLDE2LjY4Miw3LjQ4NCwxNi42ODIsMTYuNjgzYzAsOS4xOTktNy40ODMsMTYuNjg0LTE2LjY4MiwxNi42ODRjLTAuMTI3LDAtMC4yNTMtMC4wMDMtMC4zNzktMC4wMDZsLTE1LjAzOCwxMC43MyYjMTA7JiM5OyYjOTtjMC4wMDgsMC4xOTUsMC4wMTUsMC4zOTQsMC4wMTUsMC41OTJjMCw2LjkwNi01LjYxNywxMi41MjItMTIuNTIyLDEyLjUyMmMtNi4wNjEsMC0xMS4xMjktNC4zMjYtMTIuMjc3LTEwLjA1NUwxLjY3OCw1Ni44OTMmIzEwOyYjOTsmIzk7YzUuMjUsMTguNTY4LDIyLjMwOSwzMi4xODEsNDIuNTYsMzIuMTgxYzI0LjQzMiwwLDQ0LjIzNy0xOS44MDYsNDQuMjM3LTQ0LjIzNUM4OC40NzUsMjAuNDA2LDY4LjY2OSwwLjYwMSw0NC4yMzgsMC42MDEiIGZpbGw9IiNDNUMzQzAiLz4mI3hhOwk8cGF0aCBkPSJNMjcuODc1LDY3LjcyM2wtNS40MzQtMi4yNDVjMC45NjMsMi4wMDUsMi42MjksMy42ODQsNC44NDEsNC42MDZjNC43ODIsMS45OTIsMTAuMjk1LTAuMjc3LDEyLjI4OC01LjA2MyYjMTA7JiM5OyYjOTtjMC45NjUtMi4zMTQsMC45NzEtNC44NjksMC4wMTQtNy4xODljLTAuOTU1LTIuMzIxLTIuNzU3LTQuMTMxLTUuMDc0LTUuMDk3Yy0yLjI5OS0wLjk1Ny00Ljc2Mi0wLjkyMi02LjkyNi0wLjEwNWw1LjYxMywyLjMyMSYjMTA7JiM5OyYjOTtjMy41MjcsMS40Nyw1LjE5NSw1LjUyLDMuNzI1LDkuMDQ3QzM1LjQ1NSw2Ny41MjYsMzEuNDAyLDY5LjE5NCwyNy44NzUsNjcuNzIzIiBmaWxsPSIjQzVDM0MwIi8+JiN4YTsJPHBhdGggZD0iTTY5Ljk1LDMzLjQzNmMwLTYuMTI5LTQuOTg2LTExLjExNi0xMS4xMTYtMTEuMTE2Yy02LjEyOSwwLTExLjExNiw0Ljk4Ny0xMS4xMTYsMTEuMTE2JiMxMDsmIzk7JiM5O2MwLDYuMTMsNC45ODcsMTEuMTE1LDExLjExNiwxMS4xMTVDNjQuOTY0LDQ0LjU1LDY5Ljk1LDM5LjU2NSw2OS45NSwzMy40MzYgTTUwLjUwMiwzMy40MTdjMC00LjYxMiwzLjczOS04LjM1LDguMzUxLTguMzUmIzEwOyYjOTsmIzk7YzQuNjEyLDAsOC4zNTEsMy43MzgsOC4zNTEsOC4zNXMtMy43MzksOC4zNS04LjM1MSw4LjM1QzU0LjI0MSw0MS43NjcsNTAuNTAyLDM4LjAyOCw1MC41MDIsMzMuNDE3IiBmaWxsPSIjQzVDM0MwIi8+JiN4YTsJPHBhdGggZD0iTTEzNS43MTgsMzAuODY4bC0yLjk2NCw1LjIxYy0yLjI4My0xLjU5NS01LjM3Ny0yLjU1NS04LjA3OC0yLjU1NWMtMy4wODcsMC00Ljk5NywxLjI3OC00Ljk5NywzLjU2NyYjMTA7JiM5OyYjOTtjMCwyLjc4MSwzLjM5MywzLjQyOCw4LjQzNiw1LjIzOGM1LjQyMSwxLjkxNyw4LjUzNyw0LjE3LDguNTM3LDkuMTM1YzAsNi43OTMtNS4zNDIsMTAuNjA4LTEzLjAyLDEwLjYwOCYjMTA7JiM5OyYjOTtjLTMuNzQyLDAtOC4yNTYtMC45NjYtMTEuNzI2LTMuMDc3bDIuMTYyLTUuNzc2YzIuODE5LDEuNDg5LDYuMTkxLDIuMzcyLDkuMTk3LDIuMzcyYzQuMDUyLDAsNS45NzgtMS40OTUsNS45NzgtMy43MDUmIzEwOyYjOTsmIzk7YzAtMi41MjktMi45MzctMy4yODktNy42NzgtNC44NTljLTUuNDAzLTEuODA0LTkuMTQ3LTQuMTcxLTkuMTQ3LTkuNjY2YzAtNi4xOTcsNC45NjMtOS43NTYsMTIuMTA0LTkuNzU2JiMxMDsmIzk7JiM5O0MxMjkuNDk5LDI3LjYwNCwxMzMuNDk5LDI5LjE4MSwxMzUuNzE4LDMwLjg2OCIgZmlsbD0iI0M1QzNDMCIvPiYjeGE7CTxwb2x5Z29uIHBvaW50cz0iMTU4Ljg4OCwzNC4xNjEgMTU4Ljg4OCw2MS41IDE1MS45MDksNjEuNSAxNTEuOTA5LDM0LjE2MSAxNDEuNzc5LDM0LjE2MSAxNDEuNzc5LDI4LjE3NSAmIzEwOyYjOTsmIzk7MTY4Ljk4OCwyOC4xNzUgMTY4Ljk4OCwzNC4xNjEiIGZpbGw9IiNDNUMzQzAiLz4mI3hhOwk8cG9seWdvbiBwb2ludHM9IjE4My43LDM0LjE0MyAxODMuNyw0MS42NTIgMTk3LjA1Niw0MS42NTIgMTk3LjA1Niw0Ny42MzggMTgzLjcsNDcuNjM4IDE4My43LDU1LjQ1OSAmIzEwOyYjOTsmIzk7MTk5LjE5Niw1NS40NTkgMTk5LjE5Niw2MS41IDE3Ni43MjMsNjEuNSAxNzYuNzIzLDI4LjE3NSAxOTkuMTk2LDI4LjE3NSAxOTkuMTk2LDM0LjE0MyIgZmlsbD0iI0M1QzNDMCIvPiYjeGE7CTxwYXRoIGQ9Ik0yMTQuNzczLDU1LjAzbC0yLjIwNiw2LjQ3MWgtNy4zMTZsMTIuNDk1LTMzLjMyNWg3LjAyNUwyMzcuNjE5LDYxLjVoLTcuNTYzbC0yLjI1NC02LjQ3MUgyMTQuNzczeiYjMTA7JiM5OyYjOTsgTTIyMS4yMTksMzYuMTI1bC00LjU1MSwxMy4zNDNoOS4xOTZMMjIxLjIxOSwzNi4xMjV6IiBmaWxsPSIjQzVDM0MwIi8+JiN4YTsJPHBvbHlnb24gcG9pbnRzPSIyNzMuNDM2LDQxLjA1NiAyNjQuMzE2LDYwLjUyOSAyNjAuMzc4LDYwLjUyOSAyNTEuNDA2LDQxLjIzIDI1MS40MDYsNjEuNSAyNDQuNzIzLDYxLjUgJiMxMDsmIzk7JiM5OzI0NC43MjMsMjguMTc1IDI1MS4zOTEsMjguMTc1IDI2Mi41OTEsNTIuMjMxIDI3My4zOTMsMjguMTc1IDI4MC4xMTksMjguMTc1IDI4MC4xMTksNjEuNSAyNzMuNDM3LDYxLjUiIGZpbGw9IiNDNUMzQzAiLz4mI3hhOwk8cGF0aCBkPSJNMjkzLjYxMSwzMi4zNzljMCwyLjg2NC0yLjE0Niw0LjY0OS00LjYwOSw0LjY0OWMtMi40NzIsMC00LjYyMy0xLjc4NS00LjYyMy00LjY0OSYjMTA7JiM5OyYjOTtjMC0yLjg2MywyLjE1MS00LjYzNiw0LjYyMy00LjYzNkMyOTEuNDY2LDI3Ljc0MywyOTMuNjExLDI5LjUxNiwyOTMuNjExLDMyLjM3OSBNMjg1LjE1NCwzMi4zNzljMCwyLjM5NiwxLjcyNiwzLjkwMSwzLjg0OCwzLjkwMSYjMTA7JiM5OyYjOTtjMi4xMTQsMCwzLjgzMy0xLjUwNSwzLjgzMy0zLjkwMWMwLTIuNDAzLTEuNzE5LTMuODg1LTMuODMzLTMuODg1QzI4Ni44ODYsMjguNDk0LDI4NS4xNTQsMjkuOTk0LDI4NS4xNTQsMzIuMzc5IE0yODkuMDY2LDMwLjAxJiMxMDsmIzk7JiM5O2MxLjE5NSwwLDEuNTk3LDAuNjMyLDEuNTk3LDEuMzE1YzAsMC42MjYtMC4zNzEsMS4wNDYtMC44MjMsMS4yNmwxLjA3MSwyLjAwN2gtMC44NzdsLTAuOTAzLTEuNzc5SDI4OC4ydjEuNzc5aC0wLjczVjMwLjAxJiMxMDsmIzk7JiM5O0gyODkuMDY2eiBNMjg4LjIwNywzMi4xNDJoMC44MTRjMC41MjcsMCwwLjgzOC0wLjMzMSwwLjgzOC0wLjc0N2MwLTAuNDItMC4yMjMtMC42OS0wLjg0LTAuNjloLTAuODEzVjMyLjE0MnoiIGZpbGw9IiNDNUMzQzAiLz4mI3hhOzwvZz4mI3hhOzwvc3ZnPg==;" vertex="1" parent="1">
          <mxGeometry x="1310" y="920" width="356" height="89" as="geometry" />
        </mxCell>
        <mxCell id="XZvLHF4rB5YBOy9yUA8D-184" style="edgeStyle=orthogonalEdgeStyle;rounded=0;orthogonalLoop=1;jettySize=auto;html=1;entryX=0.001;entryY=0.342;entryDx=0;entryDy=0;entryPerimeter=0;" edge="1" parent="1" source="XZvLHF4rB5YBOy9yUA8D-64" target="XZvLHF4rB5YBOy9yUA8D-178">
          <mxGeometry relative="1" as="geometry">
            <Array as="points">
              <mxPoint x="950" y="771" />
              <mxPoint x="950" y="840" />
              <mxPoint x="1170" y="840" />
              <mxPoint x="1170" y="943" />
            </Array>
          </mxGeometry>
        </mxCell>
      </root>
    </mxGraphModel>
  </diagram>
</mxfile>
